G04 EAGLE Gerber RS-274X export*
G75*
%MOMM*%
%FSLAX34Y34*%
%LPD*%
%INBottom Copper*%
%IPPOS*%
%AMOC8*
5,1,8,0,0,1.08239X$1,22.5*%
G01*
%ADD10R,1.000000X1.100000*%
%ADD11C,1.187500*%
%ADD12C,1.790700*%
%ADD13C,0.756400*%
%ADD14C,0.152400*%


D10*
X111000Y206500D03*
X111000Y223500D03*
X111000Y188500D03*
X111000Y171500D03*
D11*
X238813Y152063D02*
X238813Y23937D01*
X203187Y23937D01*
X203187Y152063D01*
X238813Y152063D01*
X238813Y35218D02*
X203187Y35218D01*
X203187Y46499D02*
X238813Y46499D01*
X238813Y57780D02*
X203187Y57780D01*
X203187Y69061D02*
X238813Y69061D01*
X238813Y80342D02*
X203187Y80342D01*
X203187Y91623D02*
X238813Y91623D01*
X238813Y102904D02*
X203187Y102904D01*
X203187Y114185D02*
X238813Y114185D01*
X238813Y125466D02*
X203187Y125466D01*
X203187Y136747D02*
X238813Y136747D01*
X238813Y148028D02*
X203187Y148028D01*
X146813Y152063D02*
X146813Y23937D01*
X111187Y23937D01*
X111187Y152063D01*
X146813Y152063D01*
X146813Y35218D02*
X111187Y35218D01*
X111187Y46499D02*
X146813Y46499D01*
X146813Y57780D02*
X111187Y57780D01*
X111187Y69061D02*
X146813Y69061D01*
X146813Y80342D02*
X111187Y80342D01*
X111187Y91623D02*
X146813Y91623D01*
X146813Y102904D02*
X111187Y102904D01*
X111187Y114185D02*
X146813Y114185D01*
X146813Y125466D02*
X111187Y125466D01*
X111187Y136747D02*
X146813Y136747D01*
X146813Y148028D02*
X111187Y148028D01*
D10*
X67000Y206500D03*
X67000Y223500D03*
X89000Y206500D03*
X89000Y223500D03*
D12*
X357347Y221000D02*
X375254Y221000D01*
X375254Y171000D02*
X357347Y171000D01*
X52254Y217000D02*
X34347Y217000D01*
X34347Y167000D02*
X52254Y167000D01*
D13*
X180000Y220000D03*
D14*
X165000Y235000D01*
X112000Y235000D01*
X110000Y233000D01*
X110000Y224500D01*
X111000Y223500D01*
X67000Y223500D02*
X67000Y230000D01*
X72000Y235000D01*
X87000Y235000D01*
X90000Y232000D01*
X90000Y224500D01*
X89000Y223500D01*
X108000Y235000D02*
X110000Y233000D01*
X93000Y235000D02*
X90000Y232000D01*
X93000Y235000D02*
X108000Y235000D01*
X67000Y223500D02*
X60500Y217000D01*
X43300Y217000D01*
X67000Y206500D02*
X67000Y198000D01*
X70000Y195000D01*
X87000Y195000D01*
X90000Y198000D01*
X90000Y205500D01*
X89000Y206500D01*
X87500Y129500D02*
X129000Y88000D01*
X87500Y129500D02*
X87000Y130000D01*
X87000Y161000D01*
X87000Y195000D01*
X43300Y167000D02*
X80800Y129500D01*
X87500Y129500D01*
D13*
X87000Y161000D03*
X130650Y202350D03*
D14*
X126300Y198000D01*
X112000Y198000D01*
X111000Y199000D01*
X111000Y206500D01*
D13*
X134000Y189000D03*
D14*
X133500Y188500D02*
X111000Y188500D01*
X133500Y188500D02*
X134000Y189000D01*
X111000Y171500D02*
X121500Y161000D01*
X165000Y161000D01*
X186000Y161000D01*
X227000Y120000D01*
X227000Y86000D01*
X223000Y86000D01*
X221000Y88000D01*
D13*
X165000Y161000D03*
M02*
