G04 EAGLE Gerber RS-274X export*
G75*
%MOMM*%
%FSLAX34Y34*%
%LPD*%
%INTop Copper*%
%IPPOS*%
%AMOC8*
5,1,8,0,0,1.08239X$1,22.5*%
G01*
%ADD10R,1.900000X0.600000*%
%ADD11C,0.442500*%
%ADD12R,1.100000X1.000000*%
%ADD13R,0.600000X0.700000*%
%ADD14R,1.000000X1.100000*%
%ADD15C,1.187500*%
%ADD16R,3.400000X1.900000*%
%ADD17C,1.790700*%
%ADD18C,1.270000*%
%ADD19C,0.152400*%
%ADD20C,0.756400*%

G36*
X143612Y12243D02*
X143612Y12243D01*
X143660Y12242D01*
X144326Y12308D01*
X144350Y12314D01*
X144473Y12337D01*
X145113Y12531D01*
X145135Y12542D01*
X145251Y12589D01*
X145841Y12904D01*
X145861Y12919D01*
X145966Y12987D01*
X146483Y13412D01*
X146499Y13430D01*
X146588Y13517D01*
X147438Y14552D01*
X147450Y14573D01*
X147521Y14676D01*
X148152Y15856D01*
X148159Y15879D01*
X148209Y15994D01*
X148597Y17275D01*
X148600Y17299D01*
X148626Y17422D01*
X148758Y18754D01*
X148756Y18780D01*
X148761Y18828D01*
X148761Y146586D01*
X148757Y146612D01*
X148758Y146660D01*
X148692Y147326D01*
X148686Y147350D01*
X148663Y147473D01*
X148469Y148113D01*
X148458Y148135D01*
X148411Y148251D01*
X148096Y148841D01*
X148081Y148861D01*
X148013Y148966D01*
X147588Y149483D01*
X147569Y149500D01*
X147538Y149538D01*
X146245Y150831D01*
X146220Y150850D01*
X146171Y150897D01*
X145671Y151281D01*
X145657Y151288D01*
X145645Y151299D01*
X145498Y151380D01*
X144916Y151621D01*
X144901Y151625D01*
X144887Y151632D01*
X144724Y151673D01*
X144099Y151755D01*
X144084Y151754D01*
X144060Y151759D01*
X141853Y151933D01*
X139760Y152435D01*
X137770Y153259D01*
X135935Y154384D01*
X134274Y155802D01*
X133761Y156315D01*
X133761Y176000D01*
X133758Y176020D01*
X133760Y176039D01*
X133738Y176141D01*
X133722Y176243D01*
X133712Y176260D01*
X133708Y176280D01*
X133655Y176369D01*
X133606Y176460D01*
X133592Y176474D01*
X133582Y176491D01*
X133503Y176558D01*
X133428Y176630D01*
X133410Y176638D01*
X133395Y176651D01*
X133299Y176690D01*
X133205Y176733D01*
X133185Y176735D01*
X133167Y176743D01*
X133000Y176761D01*
X103000Y176761D01*
X102910Y176747D01*
X102819Y176739D01*
X102789Y176727D01*
X102757Y176722D01*
X102677Y176679D01*
X102593Y176643D01*
X102561Y176617D01*
X102540Y176606D01*
X102518Y176583D01*
X102462Y176538D01*
X90685Y164761D01*
X45657Y164761D01*
X45635Y164758D01*
X45597Y164759D01*
X43461Y164591D01*
X43429Y164583D01*
X43343Y164572D01*
X41259Y164072D01*
X41229Y164059D01*
X41145Y164035D01*
X39165Y163215D01*
X39137Y163197D01*
X39059Y163161D01*
X37232Y162041D01*
X37207Y162019D01*
X37135Y161971D01*
X35506Y160579D01*
X35428Y160487D01*
X35349Y160395D01*
X35348Y160393D01*
X35347Y160391D01*
X35303Y160281D01*
X35257Y160167D01*
X35257Y160164D01*
X35256Y160162D01*
X35256Y160154D01*
X35239Y160000D01*
X35239Y149000D01*
X35254Y148910D01*
X35261Y148819D01*
X35273Y148789D01*
X35279Y148757D01*
X35321Y148677D01*
X35357Y148593D01*
X35383Y148561D01*
X35394Y148540D01*
X35417Y148518D01*
X35462Y148462D01*
X36219Y147704D01*
X36240Y147689D01*
X36274Y147654D01*
X37435Y146702D01*
X37455Y146690D01*
X37559Y146619D01*
X38883Y145911D01*
X38905Y145904D01*
X39020Y145854D01*
X40457Y145419D01*
X40481Y145416D01*
X40603Y145390D01*
X42097Y145242D01*
X42123Y145244D01*
X42172Y145239D01*
X86686Y145239D01*
X89725Y145000D01*
X92660Y144295D01*
X95449Y143140D01*
X96455Y142523D01*
X96456Y142523D01*
X97698Y141762D01*
X98023Y141563D01*
X100341Y139583D01*
X101239Y138685D01*
X101239Y17828D01*
X101243Y17802D01*
X101242Y17754D01*
X101374Y16422D01*
X101380Y16398D01*
X101403Y16275D01*
X101791Y14994D01*
X101802Y14973D01*
X101848Y14856D01*
X102479Y13676D01*
X102494Y13657D01*
X102562Y13552D01*
X103412Y12517D01*
X103416Y12514D01*
X103418Y12509D01*
X103508Y12433D01*
X103596Y12355D01*
X103601Y12353D01*
X103605Y12349D01*
X103715Y12305D01*
X103823Y12260D01*
X103828Y12259D01*
X103833Y12257D01*
X104000Y12239D01*
X143586Y12239D01*
X143612Y12243D01*
G37*
G36*
X236035Y11372D02*
X236035Y11372D01*
X236083Y11371D01*
X236708Y11453D01*
X236750Y11467D01*
X236868Y11496D01*
X237450Y11737D01*
X237488Y11762D01*
X237593Y11820D01*
X238093Y12204D01*
X238117Y12230D01*
X238156Y12259D01*
X240448Y14552D01*
X240473Y14586D01*
X240504Y14615D01*
X240536Y14678D01*
X240577Y14736D01*
X240587Y14777D01*
X240607Y14815D01*
X240620Y14904D01*
X240633Y14953D01*
X240630Y14974D01*
X240634Y15000D01*
X240634Y146586D01*
X240629Y146613D01*
X240631Y146648D01*
X240566Y147314D01*
X240553Y147360D01*
X240541Y147436D01*
X240347Y148076D01*
X240325Y148119D01*
X240299Y148191D01*
X239984Y148782D01*
X239954Y148819D01*
X239915Y148885D01*
X239490Y149402D01*
X239469Y149420D01*
X239448Y149448D01*
X238156Y150741D01*
X238127Y150761D01*
X238118Y150771D01*
X238117Y150771D01*
X238093Y150796D01*
X237593Y151180D01*
X237553Y151200D01*
X237450Y151263D01*
X236868Y151504D01*
X236851Y151507D01*
X236824Y151513D01*
X236708Y151547D01*
X236083Y151629D01*
X236047Y151627D01*
X236000Y151634D01*
X222309Y151634D01*
X219255Y151875D01*
X216301Y152584D01*
X213493Y153747D01*
X210902Y155334D01*
X208573Y157324D01*
X200634Y165263D01*
X200634Y168555D01*
X200691Y169127D01*
X200849Y169648D01*
X201105Y170129D01*
X201300Y170366D01*
X220000Y170366D01*
X220065Y170377D01*
X220131Y170379D01*
X220174Y170397D01*
X220221Y170405D01*
X220278Y170439D01*
X220338Y170464D01*
X220373Y170495D01*
X220414Y170520D01*
X220456Y170571D01*
X220504Y170615D01*
X220526Y170657D01*
X220555Y170694D01*
X220576Y170756D01*
X220607Y170815D01*
X220615Y170869D01*
X220627Y170906D01*
X220626Y170946D01*
X220634Y171000D01*
X220634Y177000D01*
X220623Y177065D01*
X220621Y177131D01*
X220603Y177174D01*
X220595Y177221D01*
X220561Y177278D01*
X220536Y177338D01*
X220505Y177373D01*
X220480Y177414D01*
X220429Y177456D01*
X220385Y177504D01*
X220343Y177526D01*
X220306Y177555D01*
X220244Y177576D01*
X220185Y177607D01*
X220131Y177615D01*
X220094Y177627D01*
X220054Y177626D01*
X220000Y177634D01*
X197657Y177634D01*
X197630Y177629D01*
X197595Y177631D01*
X196586Y177532D01*
X196539Y177519D01*
X196464Y177508D01*
X195494Y177213D01*
X195451Y177191D01*
X195379Y177166D01*
X194485Y176688D01*
X194447Y176658D01*
X194381Y176619D01*
X193598Y175976D01*
X193550Y175920D01*
X193496Y175870D01*
X193478Y175835D01*
X193452Y175805D01*
X193427Y175736D01*
X193393Y175671D01*
X193387Y175626D01*
X193375Y175594D01*
X193375Y175550D01*
X193366Y175485D01*
X193366Y16414D01*
X193371Y16387D01*
X193369Y16352D01*
X193434Y15686D01*
X193448Y15640D01*
X193459Y15564D01*
X193653Y14924D01*
X193675Y14881D01*
X193701Y14809D01*
X194016Y14218D01*
X194025Y14207D01*
X194029Y14199D01*
X194048Y14178D01*
X194085Y14115D01*
X194510Y13598D01*
X194546Y13566D01*
X194598Y13510D01*
X195632Y12661D01*
X195674Y12637D01*
X195736Y12591D01*
X196916Y11960D01*
X196962Y11946D01*
X197031Y11913D01*
X198312Y11524D01*
X198360Y11519D01*
X198434Y11500D01*
X199766Y11369D01*
X199793Y11371D01*
X199828Y11366D01*
X236000Y11366D01*
X236035Y11372D01*
G37*
G36*
X364738Y129370D02*
X364738Y129370D01*
X364765Y129368D01*
X367894Y129614D01*
X367934Y129624D01*
X367992Y129630D01*
X371044Y130362D01*
X371082Y130379D01*
X371139Y130393D01*
X374038Y131594D01*
X374073Y131616D01*
X374127Y131639D01*
X376803Y133279D01*
X376834Y133306D01*
X376883Y133337D01*
X378354Y134593D01*
X378354Y134594D01*
X379270Y135376D01*
X379284Y135393D01*
X379306Y135409D01*
X393327Y149430D01*
X393343Y149453D01*
X393369Y149476D01*
X394270Y150574D01*
X394293Y150616D01*
X394339Y150677D01*
X395008Y151929D01*
X395023Y151975D01*
X395056Y152044D01*
X395468Y153403D01*
X395473Y153451D01*
X395492Y153525D01*
X395631Y154938D01*
X395627Y154986D01*
X395631Y155062D01*
X395492Y156475D01*
X395479Y156521D01*
X395468Y156597D01*
X395056Y157956D01*
X395034Y157999D01*
X395008Y158071D01*
X394339Y159323D01*
X394309Y159361D01*
X394270Y159426D01*
X393369Y160524D01*
X393348Y160541D01*
X393327Y160570D01*
X390448Y163448D01*
X390418Y163470D01*
X390404Y163485D01*
X390401Y163487D01*
X390385Y163504D01*
X390322Y163536D01*
X390264Y163577D01*
X390223Y163587D01*
X390185Y163607D01*
X390096Y163620D01*
X390047Y163633D01*
X390026Y163630D01*
X390000Y163634D01*
X366414Y163634D01*
X366387Y163629D01*
X366352Y163631D01*
X365686Y163566D01*
X365640Y163553D01*
X365564Y163541D01*
X364924Y163347D01*
X364881Y163325D01*
X364809Y163299D01*
X364218Y162984D01*
X364181Y162954D01*
X364115Y162915D01*
X363598Y162490D01*
X363580Y162469D01*
X363552Y162448D01*
X355427Y154324D01*
X354244Y153314D01*
X354244Y153313D01*
X353098Y152334D01*
X350507Y150747D01*
X347699Y149584D01*
X344745Y148875D01*
X341691Y148634D01*
X285263Y148634D01*
X284324Y149573D01*
X282334Y151902D01*
X280747Y154493D01*
X279584Y157301D01*
X278875Y160255D01*
X278634Y163309D01*
X278634Y176000D01*
X278623Y176065D01*
X278621Y176131D01*
X278603Y176174D01*
X278595Y176221D01*
X278561Y176278D01*
X278536Y176338D01*
X278505Y176373D01*
X278480Y176414D01*
X278429Y176456D01*
X278385Y176504D01*
X278343Y176526D01*
X278306Y176555D01*
X278244Y176576D01*
X278185Y176607D01*
X278131Y176615D01*
X278094Y176627D01*
X278054Y176626D01*
X278000Y176634D01*
X261267Y176634D01*
X259740Y176754D01*
X258274Y177106D01*
X256881Y177683D01*
X255596Y178471D01*
X254634Y179292D01*
X254634Y206586D01*
X254629Y206613D01*
X254631Y206648D01*
X254566Y207314D01*
X254553Y207360D01*
X254541Y207436D01*
X254347Y208076D01*
X254325Y208119D01*
X254299Y208191D01*
X253984Y208782D01*
X253954Y208819D01*
X253915Y208885D01*
X253490Y209402D01*
X253434Y209450D01*
X253385Y209504D01*
X253350Y209522D01*
X253320Y209548D01*
X253251Y209573D01*
X253185Y209607D01*
X253140Y209613D01*
X253109Y209625D01*
X253065Y209625D01*
X253000Y209634D01*
X226000Y209634D01*
X225935Y209623D01*
X225869Y209621D01*
X225826Y209603D01*
X225779Y209595D01*
X225722Y209561D01*
X225662Y209536D01*
X225627Y209505D01*
X225586Y209480D01*
X225545Y209429D01*
X225496Y209385D01*
X225474Y209343D01*
X225445Y209306D01*
X225424Y209244D01*
X225393Y209185D01*
X225385Y209131D01*
X225373Y209094D01*
X225374Y209054D01*
X225366Y209000D01*
X225366Y177000D01*
X225373Y176958D01*
X225371Y176916D01*
X225393Y176849D01*
X225405Y176779D01*
X225427Y176743D01*
X225440Y176702D01*
X225494Y176629D01*
X225520Y176586D01*
X225536Y176573D01*
X225552Y176552D01*
X266694Y135409D01*
X266712Y135397D01*
X266730Y135376D01*
X269117Y133337D01*
X269152Y133317D01*
X269155Y133314D01*
X269167Y133301D01*
X269176Y133297D01*
X269197Y133279D01*
X271873Y131639D01*
X271912Y131624D01*
X271962Y131594D01*
X274861Y130393D01*
X274902Y130384D01*
X274956Y130362D01*
X278008Y129630D01*
X278049Y129627D01*
X278106Y129614D01*
X281235Y129368D01*
X281256Y129370D01*
X281284Y129366D01*
X364716Y129366D01*
X364738Y129370D01*
G37*
G36*
X314387Y168241D02*
X314387Y168241D01*
X314410Y168240D01*
X325789Y168799D01*
X325815Y168804D01*
X325863Y168806D01*
X337132Y170478D01*
X337157Y170486D01*
X337205Y170492D01*
X348257Y173260D01*
X348281Y173271D01*
X348328Y173282D01*
X359055Y177120D01*
X359078Y177133D01*
X359124Y177149D01*
X369422Y182020D01*
X369444Y182035D01*
X369488Y182055D01*
X379260Y187912D01*
X379280Y187929D01*
X379322Y187953D01*
X388472Y194740D01*
X388491Y194759D01*
X388530Y194787D01*
X396971Y202438D01*
X396982Y202451D01*
X396995Y202460D01*
X397058Y202547D01*
X397125Y202630D01*
X397130Y202646D01*
X397140Y202659D01*
X397172Y202761D01*
X397208Y202861D01*
X397209Y202878D01*
X397214Y202894D01*
X397219Y203062D01*
X397045Y205273D01*
X397037Y205306D01*
X397026Y205391D01*
X396508Y207549D01*
X396496Y207579D01*
X396471Y207663D01*
X395622Y209712D01*
X395605Y209740D01*
X395568Y209819D01*
X394409Y211711D01*
X394387Y211735D01*
X394339Y211807D01*
X392898Y213494D01*
X392806Y213572D01*
X392714Y213651D01*
X392711Y213652D01*
X392710Y213653D01*
X392600Y213697D01*
X392486Y213743D01*
X392483Y213743D01*
X392481Y213744D01*
X392473Y213744D01*
X392319Y213761D01*
X364000Y213761D01*
X363910Y213747D01*
X363819Y213739D01*
X363789Y213727D01*
X363757Y213722D01*
X363677Y213679D01*
X363593Y213643D01*
X363561Y213617D01*
X363540Y213606D01*
X363518Y213583D01*
X363462Y213538D01*
X349802Y199878D01*
X346056Y196594D01*
X341935Y193840D01*
X337489Y191647D01*
X332796Y190054D01*
X327934Y189087D01*
X322963Y188761D01*
X260000Y188761D01*
X259980Y188758D01*
X259961Y188760D01*
X259859Y188738D01*
X259757Y188722D01*
X259740Y188712D01*
X259720Y188708D01*
X259631Y188655D01*
X259540Y188606D01*
X259526Y188592D01*
X259509Y188582D01*
X259442Y188503D01*
X259371Y188428D01*
X259362Y188410D01*
X259349Y188395D01*
X259310Y188299D01*
X259267Y188205D01*
X259265Y188185D01*
X259257Y188167D01*
X259239Y188000D01*
X259239Y183000D01*
X259242Y182980D01*
X259240Y182961D01*
X259262Y182859D01*
X259279Y182757D01*
X259288Y182740D01*
X259292Y182720D01*
X259345Y182631D01*
X259394Y182540D01*
X259408Y182526D01*
X259418Y182509D01*
X259497Y182442D01*
X259572Y182371D01*
X259590Y182362D01*
X259605Y182349D01*
X259701Y182310D01*
X259795Y182267D01*
X259815Y182265D01*
X259833Y182257D01*
X260000Y182239D01*
X282548Y182239D01*
X283103Y182184D01*
X283600Y182033D01*
X284058Y181789D01*
X284459Y181459D01*
X284789Y181058D01*
X285033Y180600D01*
X285184Y180103D01*
X285239Y179548D01*
X285239Y169000D01*
X285242Y168980D01*
X285240Y168961D01*
X285262Y168859D01*
X285279Y168757D01*
X285288Y168740D01*
X285292Y168720D01*
X285345Y168631D01*
X285394Y168540D01*
X285408Y168526D01*
X285418Y168509D01*
X285497Y168442D01*
X285572Y168371D01*
X285590Y168362D01*
X285605Y168349D01*
X285701Y168310D01*
X285795Y168267D01*
X285815Y168265D01*
X285833Y168257D01*
X286000Y168239D01*
X314373Y168239D01*
X314387Y168241D01*
G37*
G36*
X134005Y182999D02*
X134005Y182999D01*
X134005Y183000D01*
X134005Y194000D01*
X134003Y194002D01*
X134004Y194004D01*
X121569Y206439D01*
X121568Y206439D01*
X118894Y208723D01*
X118893Y208723D01*
X118893Y208724D01*
X115894Y210561D01*
X115893Y210562D01*
X112644Y211908D01*
X112643Y211907D01*
X112643Y211908D01*
X109223Y212729D01*
X109222Y212729D01*
X105716Y213005D01*
X40000Y213005D01*
X39058Y212912D01*
X39057Y212912D01*
X38151Y212637D01*
X38150Y212637D01*
X37315Y212191D01*
X37315Y212190D01*
X37314Y212190D01*
X36583Y211590D01*
X36583Y211589D01*
X36582Y211589D01*
X34996Y210004D01*
X34996Y210002D01*
X34995Y210001D01*
X34996Y210000D01*
X34995Y210000D01*
X34995Y201414D01*
X35061Y200748D01*
X35061Y200747D01*
X35255Y200106D01*
X35256Y200106D01*
X35256Y200105D01*
X35571Y199515D01*
X35572Y199515D01*
X35572Y199514D01*
X35996Y198997D01*
X35997Y198997D01*
X35997Y198996D01*
X37219Y197952D01*
X37220Y197952D01*
X38590Y197112D01*
X38591Y197112D01*
X40076Y196497D01*
X40076Y196496D01*
X41639Y196121D01*
X41640Y196122D01*
X41640Y196121D01*
X43242Y195995D01*
X43243Y195995D01*
X80715Y195995D01*
X83844Y195749D01*
X86895Y195016D01*
X89793Y193816D01*
X92468Y192176D01*
X94855Y190138D01*
X101996Y182996D01*
X101999Y182996D01*
X102000Y182995D01*
X134000Y182995D01*
X134005Y182999D01*
G37*
D10*
X269000Y186650D03*
X211000Y186650D03*
X269000Y173950D03*
X269000Y199350D03*
X269000Y212050D03*
X211000Y173950D03*
X211000Y199350D03*
X211000Y212050D03*
D11*
X227462Y207788D02*
X252538Y207788D01*
X252538Y178212D01*
X227462Y178212D01*
X227462Y207788D01*
X227462Y182416D02*
X252538Y182416D01*
X252538Y186620D02*
X227462Y186620D01*
X227462Y190824D02*
X252538Y190824D01*
X252538Y195028D02*
X227462Y195028D01*
X227462Y199232D02*
X252538Y199232D01*
X252538Y203436D02*
X227462Y203436D01*
X227462Y207640D02*
X252538Y207640D01*
D12*
X191500Y204000D03*
X174500Y204000D03*
D13*
X300000Y233000D03*
X290000Y233000D03*
D14*
X181000Y186500D03*
X181000Y169500D03*
D15*
X199187Y146063D02*
X199187Y17937D01*
X199187Y146063D02*
X234813Y146063D01*
X234813Y17937D01*
X199187Y17937D01*
X199187Y29218D02*
X234813Y29218D01*
X234813Y40499D02*
X199187Y40499D01*
X199187Y51780D02*
X234813Y51780D01*
X234813Y63061D02*
X199187Y63061D01*
X199187Y74342D02*
X234813Y74342D01*
X234813Y85623D02*
X199187Y85623D01*
X199187Y96904D02*
X234813Y96904D01*
X234813Y108185D02*
X199187Y108185D01*
X199187Y119466D02*
X234813Y119466D01*
X234813Y130747D02*
X199187Y130747D01*
X199187Y142028D02*
X234813Y142028D01*
X107187Y146063D02*
X107187Y17937D01*
X107187Y146063D02*
X142813Y146063D01*
X142813Y17937D01*
X107187Y17937D01*
X107187Y29218D02*
X142813Y29218D01*
X142813Y40499D02*
X107187Y40499D01*
X107187Y51780D02*
X142813Y51780D01*
X142813Y63061D02*
X107187Y63061D01*
X107187Y74342D02*
X142813Y74342D01*
X142813Y85623D02*
X107187Y85623D01*
X107187Y96904D02*
X142813Y96904D01*
X142813Y108185D02*
X107187Y108185D01*
X107187Y119466D02*
X142813Y119466D01*
X142813Y130747D02*
X107187Y130747D01*
X107187Y142028D02*
X142813Y142028D01*
D12*
X186500Y239000D03*
X203500Y239000D03*
D14*
X167500Y274000D03*
X150500Y274000D03*
X201500Y274000D03*
X184500Y274000D03*
X129000Y171500D03*
X129000Y188500D03*
X107000Y171500D03*
X107000Y188500D03*
D16*
X302000Y178500D03*
X302000Y139500D03*
D17*
X368347Y205000D02*
X386254Y205000D01*
X386254Y155000D02*
X368347Y155000D01*
X61654Y155000D02*
X43747Y155000D01*
X43747Y205000D02*
X61654Y205000D01*
D14*
X167500Y228000D03*
X150500Y228000D03*
D12*
X167500Y250000D03*
X150500Y250000D03*
D13*
X290000Y222000D03*
X300000Y222000D03*
X300000Y197000D03*
X290000Y197000D03*
D18*
X162000Y160000D03*
X233000Y241000D03*
X300000Y209000D03*
X163000Y187000D03*
X148000Y168000D03*
D19*
X239000Y203000D02*
X240000Y202000D01*
X239000Y203000D02*
X239000Y205000D01*
X241000Y207000D01*
D20*
X311000Y197000D03*
D19*
X300000Y197000D01*
D20*
X162000Y204000D03*
D19*
X174500Y204000D01*
D20*
X223000Y274000D03*
D19*
X201500Y274000D01*
X300000Y233000D02*
X300000Y222000D01*
X320000Y202000D01*
X320000Y182000D01*
X148000Y168000D02*
X132500Y168000D01*
X129000Y171500D01*
X140000Y182500D01*
X140000Y247000D01*
X143000Y250000D01*
X150500Y250000D01*
X143000Y250000D02*
X140000Y253000D01*
X140000Y272000D01*
X142000Y274000D01*
X150500Y274000D01*
X196150Y199350D02*
X211000Y199350D01*
X196150Y199350D02*
X191500Y204000D01*
X182850Y186650D02*
X211000Y186650D01*
X182850Y186650D02*
X181000Y186500D01*
X163500Y186500D01*
X163000Y187000D01*
X210950Y174000D02*
X211000Y173950D01*
X194500Y169500D02*
X181000Y169500D01*
X194500Y169500D02*
X198000Y173000D01*
X181000Y169500D02*
X162500Y169500D01*
X150500Y181500D02*
X150500Y228000D01*
X150500Y181500D02*
X162500Y169500D01*
X162000Y169000D01*
X162000Y160000D01*
X211000Y212050D02*
X220050Y212050D01*
X223000Y215000D01*
X223000Y234000D01*
X218000Y239000D01*
X203500Y239000D01*
X184500Y274000D02*
X167500Y274000D01*
X184500Y258000D02*
X203500Y239000D01*
X184500Y258000D02*
X184500Y274000D01*
X226000Y234000D02*
X233000Y241000D01*
X226000Y234000D02*
X223000Y234000D01*
X269000Y212050D02*
X269050Y212050D01*
X269000Y212050D02*
X280050Y212050D01*
X283000Y215000D02*
X283000Y229000D01*
X287000Y233000D01*
X290000Y233000D01*
X283000Y215000D02*
X280050Y212050D01*
X168000Y250000D02*
X167500Y250000D01*
X168000Y228500D02*
X167500Y228000D01*
X178500Y239000D01*
X186500Y239000D01*
X178500Y239000D02*
X167500Y250000D01*
X290000Y222000D02*
X290000Y209000D01*
X290000Y197000D01*
X281650Y199350D02*
X269000Y199350D01*
X281650Y199350D02*
X284000Y197000D01*
X290000Y197000D01*
X290000Y209000D02*
X300000Y209000D01*
M02*
