G04 EAGLE Gerber RS-274X export*
G75*
%MOMM*%
%FSLAX34Y34*%
%LPD*%
%INBottom Copper*%
%IPPOS*%
%AMOC8*
5,1,8,0,0,1.08239X$1,22.5*%
G01*
%ADD10C,1.790700*%
%ADD11C,0.756400*%

G36*
X360739Y10178D02*
X360739Y10178D01*
X360843Y10189D01*
X360860Y10197D01*
X360879Y10200D01*
X360971Y10249D01*
X361066Y10294D01*
X361079Y10307D01*
X361096Y10316D01*
X361168Y10391D01*
X361244Y10463D01*
X361252Y10480D01*
X361265Y10494D01*
X361309Y10589D01*
X361358Y10681D01*
X361361Y10700D01*
X361369Y10717D01*
X361381Y10821D01*
X361397Y10924D01*
X361394Y10943D01*
X361396Y10961D01*
X361374Y11063D01*
X361357Y11166D01*
X361348Y11183D01*
X361344Y11202D01*
X361290Y11291D01*
X361241Y11384D01*
X361227Y11397D01*
X361218Y11413D01*
X361139Y11481D01*
X361063Y11553D01*
X361042Y11563D01*
X361031Y11573D01*
X361001Y11585D01*
X360914Y11631D01*
X358414Y12612D01*
X348353Y20635D01*
X341103Y31268D01*
X337310Y43566D01*
X337310Y56434D01*
X341103Y68732D01*
X341880Y69871D01*
X341880Y69872D01*
X343437Y72155D01*
X344475Y73678D01*
X345513Y75200D01*
X346032Y75961D01*
X347070Y77484D01*
X348108Y79006D01*
X348109Y79007D01*
X348353Y79365D01*
X358414Y87388D01*
X370393Y92090D01*
X383226Y93051D01*
X386106Y92394D01*
X389441Y91633D01*
X392776Y90872D01*
X395773Y90188D01*
X406917Y83753D01*
X415670Y74320D01*
X418392Y68668D01*
X418436Y68606D01*
X418472Y68538D01*
X418506Y68506D01*
X418533Y68467D01*
X418595Y68421D01*
X418650Y68369D01*
X418693Y68349D01*
X418731Y68321D01*
X418804Y68297D01*
X418873Y68265D01*
X418920Y68260D01*
X418965Y68246D01*
X419042Y68247D01*
X419117Y68238D01*
X419164Y68248D01*
X419211Y68249D01*
X419283Y68274D01*
X419358Y68290D01*
X419399Y68315D01*
X419443Y68331D01*
X419504Y68378D01*
X419569Y68417D01*
X419600Y68453D01*
X419637Y68482D01*
X419679Y68546D01*
X419729Y68604D01*
X419747Y68648D01*
X419773Y68687D01*
X419792Y68761D01*
X419821Y68832D01*
X419828Y68895D01*
X419836Y68925D01*
X419834Y68951D01*
X419839Y68998D01*
X419839Y281002D01*
X419827Y281077D01*
X419824Y281153D01*
X419807Y281197D01*
X419800Y281244D01*
X419764Y281312D01*
X419737Y281383D01*
X419707Y281420D01*
X419684Y281462D01*
X419629Y281514D01*
X419581Y281573D01*
X419541Y281598D01*
X419506Y281631D01*
X419437Y281663D01*
X419372Y281704D01*
X419326Y281715D01*
X419283Y281735D01*
X419207Y281743D01*
X419133Y281761D01*
X419086Y281757D01*
X419039Y281762D01*
X418964Y281746D01*
X418888Y281739D01*
X418845Y281720D01*
X418798Y281710D01*
X418733Y281670D01*
X418663Y281640D01*
X418628Y281608D01*
X418587Y281583D01*
X418538Y281526D01*
X418481Y281474D01*
X418447Y281420D01*
X418427Y281396D01*
X418417Y281372D01*
X418392Y281332D01*
X415670Y275680D01*
X406917Y266247D01*
X395773Y259812D01*
X383226Y256949D01*
X370393Y257910D01*
X358414Y262612D01*
X348353Y270635D01*
X341103Y281268D01*
X337310Y293566D01*
X337310Y306434D01*
X341103Y318732D01*
X341150Y318800D01*
X342188Y320323D01*
X343745Y322606D01*
X343745Y322607D01*
X344783Y324129D01*
X345821Y325651D01*
X345821Y325652D01*
X347378Y327935D01*
X348353Y329365D01*
X358414Y337388D01*
X360914Y338369D01*
X361004Y338423D01*
X361096Y338472D01*
X361109Y338485D01*
X361126Y338495D01*
X361194Y338574D01*
X361265Y338650D01*
X361273Y338667D01*
X361286Y338682D01*
X361325Y338778D01*
X361369Y338873D01*
X361371Y338892D01*
X361378Y338910D01*
X361385Y339014D01*
X361396Y339117D01*
X361392Y339136D01*
X361393Y339155D01*
X361366Y339256D01*
X361344Y339358D01*
X361334Y339374D01*
X361329Y339392D01*
X361271Y339479D01*
X361218Y339569D01*
X361203Y339581D01*
X361193Y339597D01*
X361110Y339661D01*
X361031Y339729D01*
X361013Y339736D01*
X360998Y339748D01*
X360900Y339782D01*
X360803Y339821D01*
X360779Y339823D01*
X360766Y339828D01*
X360734Y339828D01*
X360636Y339839D01*
X69217Y339839D01*
X69170Y339832D01*
X69122Y339833D01*
X69049Y339812D01*
X68975Y339800D01*
X68932Y339777D01*
X68886Y339763D01*
X68824Y339720D01*
X68757Y339684D01*
X68724Y339650D01*
X68685Y339622D01*
X68640Y339561D01*
X68588Y339506D01*
X68568Y339463D01*
X68539Y339424D01*
X68516Y339352D01*
X68484Y339283D01*
X68479Y339235D01*
X68464Y339190D01*
X68465Y339114D01*
X68457Y339039D01*
X68467Y338992D01*
X68468Y338944D01*
X68493Y338872D01*
X68509Y338798D01*
X68534Y338757D01*
X68550Y338712D01*
X68597Y338652D01*
X68635Y338587D01*
X68672Y338556D01*
X68701Y338518D01*
X68805Y338442D01*
X68822Y338427D01*
X68829Y338425D01*
X68837Y338419D01*
X76917Y333753D01*
X85670Y324320D01*
X91254Y312725D01*
X93172Y300000D01*
X91254Y287275D01*
X85670Y275680D01*
X76917Y266247D01*
X65773Y259812D01*
X53226Y256949D01*
X40393Y257910D01*
X28414Y262612D01*
X18353Y270635D01*
X11551Y280612D01*
X11538Y280626D01*
X11528Y280643D01*
X11453Y280715D01*
X11381Y280790D01*
X11364Y280799D01*
X11350Y280812D01*
X11256Y280856D01*
X11164Y280905D01*
X11145Y280908D01*
X11127Y280916D01*
X11024Y280927D01*
X10921Y280944D01*
X10902Y280941D01*
X10883Y280943D01*
X10781Y280921D01*
X10678Y280904D01*
X10661Y280895D01*
X10642Y280891D01*
X10553Y280837D01*
X10461Y280789D01*
X10448Y280775D01*
X10431Y280765D01*
X10363Y280686D01*
X10292Y280610D01*
X10284Y280593D01*
X10271Y280578D01*
X10232Y280481D01*
X10189Y280387D01*
X10186Y280368D01*
X10179Y280350D01*
X10161Y280183D01*
X10161Y69817D01*
X10164Y69798D01*
X10162Y69779D01*
X10184Y69677D01*
X10200Y69574D01*
X10210Y69557D01*
X10214Y69538D01*
X10267Y69449D01*
X10316Y69357D01*
X10330Y69344D01*
X10340Y69327D01*
X10419Y69259D01*
X10494Y69188D01*
X10512Y69179D01*
X10526Y69167D01*
X10623Y69128D01*
X10717Y69084D01*
X10736Y69082D01*
X10754Y69075D01*
X10858Y69068D01*
X10961Y69057D01*
X10980Y69061D01*
X11000Y69060D01*
X11100Y69087D01*
X11202Y69109D01*
X11219Y69119D01*
X11237Y69124D01*
X11324Y69182D01*
X11413Y69235D01*
X11426Y69250D01*
X11442Y69261D01*
X11551Y69388D01*
X11880Y69871D01*
X11880Y69872D01*
X12399Y70633D01*
X12918Y71394D01*
X13437Y72155D01*
X13956Y72916D01*
X13956Y72917D01*
X14475Y73678D01*
X14994Y74439D01*
X14995Y74439D01*
X15513Y75200D01*
X16032Y75961D01*
X16032Y75962D01*
X16551Y76723D01*
X16552Y76723D01*
X17070Y77484D01*
X17071Y77484D01*
X17589Y78245D01*
X17590Y78245D01*
X18108Y79006D01*
X18109Y79007D01*
X18353Y79365D01*
X28414Y87388D01*
X40393Y92090D01*
X53226Y93051D01*
X56106Y92394D01*
X59441Y91633D01*
X62776Y90872D01*
X65773Y90188D01*
X76917Y83753D01*
X85670Y74320D01*
X91254Y62725D01*
X93172Y50000D01*
X91254Y37275D01*
X85670Y25680D01*
X76917Y16247D01*
X68837Y11581D01*
X68800Y11551D01*
X68757Y11528D01*
X68705Y11473D01*
X68646Y11425D01*
X68621Y11385D01*
X68588Y11350D01*
X68556Y11281D01*
X68516Y11217D01*
X68504Y11170D01*
X68484Y11127D01*
X68476Y11052D01*
X68458Y10978D01*
X68462Y10930D01*
X68457Y10883D01*
X68473Y10808D01*
X68480Y10733D01*
X68499Y10689D01*
X68509Y10642D01*
X68548Y10577D01*
X68579Y10508D01*
X68611Y10472D01*
X68635Y10431D01*
X68693Y10382D01*
X68744Y10326D01*
X68786Y10302D01*
X68822Y10271D01*
X68893Y10243D01*
X68959Y10206D01*
X69006Y10197D01*
X69051Y10179D01*
X69179Y10165D01*
X69201Y10161D01*
X69207Y10162D01*
X69217Y10161D01*
X360636Y10161D01*
X360739Y10178D01*
G37*
%LPC*%
G36*
X366060Y193506D02*
X366060Y193506D01*
X361836Y195256D01*
X358602Y198489D01*
X356852Y202714D01*
X356852Y207286D01*
X358602Y211511D01*
X361836Y214744D01*
X366060Y216494D01*
X388540Y216494D01*
X392764Y214744D01*
X395998Y211511D01*
X397748Y207286D01*
X397748Y202714D01*
X395998Y198489D01*
X392764Y195256D01*
X388540Y193506D01*
X366060Y193506D01*
G37*
%LPD*%
%LPC*%
G36*
X41460Y143506D02*
X41460Y143506D01*
X37236Y145256D01*
X34002Y148489D01*
X32252Y152714D01*
X32252Y157286D01*
X34002Y161511D01*
X37236Y164744D01*
X41460Y166494D01*
X63940Y166494D01*
X68164Y164744D01*
X71398Y161511D01*
X73148Y157286D01*
X73148Y152714D01*
X71398Y148489D01*
X68164Y145256D01*
X63940Y143506D01*
X41460Y143506D01*
G37*
%LPD*%
D10*
X368347Y205000D02*
X386254Y205000D01*
X386254Y155000D02*
X368347Y155000D01*
X61654Y155000D02*
X43747Y155000D01*
X43747Y205000D02*
X61654Y205000D01*
D11*
X311000Y197000D03*
X162000Y204000D03*
X223000Y274000D03*
M02*
