G04 EAGLE Gerber RS-274X export*
G75*
%MOMM*%
%FSLAX34Y34*%
%LPD*%
%IN*%
%IPPOS*%
%AMOC8*
5,1,8,0,0,1.08239X$1,22.5*%
G01*
%ADD10C,0.254000*%


D10*
X0Y35000D02*
X133Y31950D01*
X532Y28922D01*
X1193Y25941D01*
X2111Y23029D01*
X3279Y20208D01*
X4689Y17500D01*
X6330Y14925D01*
X8188Y12502D01*
X10251Y10251D01*
X12502Y8188D01*
X14925Y6330D01*
X17500Y4689D01*
X20208Y3279D01*
X23029Y2111D01*
X25941Y1193D01*
X28922Y532D01*
X31950Y133D01*
X35000Y0D01*
X390000Y0D01*
X393278Y-75D01*
X396550Y136D01*
X399791Y631D01*
X402977Y1406D01*
X406082Y2457D01*
X409085Y3774D01*
X411961Y5348D01*
X414689Y7166D01*
X417249Y9216D01*
X419620Y11480D01*
X421784Y13943D01*
X423726Y16585D01*
X425430Y19386D01*
X426883Y22325D01*
X428075Y25379D01*
X428996Y28526D01*
X429639Y31741D01*
X430000Y35000D01*
X430000Y320000D01*
X429431Y323031D01*
X428600Y326002D01*
X427513Y328888D01*
X426179Y331669D01*
X424608Y334323D01*
X422811Y336830D01*
X420802Y339171D01*
X418598Y341328D01*
X416213Y343284D01*
X413667Y345026D01*
X410979Y346538D01*
X408170Y347811D01*
X405260Y348834D01*
X402272Y349599D01*
X399229Y350102D01*
X396154Y350337D01*
X393069Y350303D01*
X390000Y350000D01*
X35000Y350000D01*
X32158Y350094D01*
X29318Y349940D01*
X26503Y349540D01*
X23734Y348895D01*
X21031Y348012D01*
X18415Y346896D01*
X15907Y345556D01*
X13525Y344003D01*
X11287Y342249D01*
X9211Y340306D01*
X7312Y338189D01*
X5604Y335915D01*
X4102Y333501D01*
X2815Y330965D01*
X1754Y328326D01*
X928Y325606D01*
X342Y322823D01*
X0Y320000D01*
X0Y35000D01*
X49476Y316000D02*
X48431Y315932D01*
X47392Y315795D01*
X46365Y315590D01*
X45353Y315319D01*
X44361Y314983D01*
X43393Y314582D01*
X42454Y314118D01*
X41546Y313595D01*
X40675Y313013D01*
X39844Y312375D01*
X39057Y311684D01*
X38316Y310943D01*
X37625Y310156D01*
X36988Y309325D01*
X36406Y308454D01*
X35882Y307546D01*
X35418Y306607D01*
X35017Y305639D01*
X34681Y304647D01*
X34410Y303635D01*
X34205Y302608D01*
X34069Y301569D01*
X34000Y300524D01*
X34000Y299476D01*
X34069Y298431D01*
X34205Y297392D01*
X34410Y296365D01*
X34681Y295353D01*
X35017Y294361D01*
X35418Y293393D01*
X35882Y292454D01*
X36406Y291546D01*
X36988Y290675D01*
X37625Y289844D01*
X38316Y289057D01*
X39057Y288316D01*
X39844Y287625D01*
X40675Y286988D01*
X41546Y286406D01*
X42454Y285882D01*
X43393Y285418D01*
X44361Y285017D01*
X45353Y284681D01*
X46365Y284410D01*
X47392Y284205D01*
X48431Y284069D01*
X49476Y284000D01*
X50524Y284000D01*
X51569Y284069D01*
X52608Y284205D01*
X53635Y284410D01*
X54647Y284681D01*
X55639Y285017D01*
X56607Y285418D01*
X57546Y285882D01*
X58454Y286406D01*
X59325Y286988D01*
X60156Y287625D01*
X60943Y288316D01*
X61684Y289057D01*
X62375Y289844D01*
X63013Y290675D01*
X63595Y291546D01*
X64118Y292454D01*
X64582Y293393D01*
X64983Y294361D01*
X65319Y295353D01*
X65590Y296365D01*
X65795Y297392D01*
X65932Y298431D01*
X66000Y299476D01*
X66000Y300524D01*
X65932Y301569D01*
X65795Y302608D01*
X65590Y303635D01*
X65319Y304647D01*
X64983Y305639D01*
X64582Y306607D01*
X64118Y307546D01*
X63595Y308454D01*
X63013Y309325D01*
X62375Y310156D01*
X61684Y310943D01*
X60943Y311684D01*
X60156Y312375D01*
X59325Y313013D01*
X58454Y313595D01*
X57546Y314118D01*
X56607Y314582D01*
X55639Y314983D01*
X54647Y315319D01*
X53635Y315590D01*
X52608Y315795D01*
X51569Y315932D01*
X50524Y316000D01*
X49476Y316000D01*
X50524Y66000D02*
X51569Y65932D01*
X52608Y65795D01*
X53635Y65590D01*
X54647Y65319D01*
X55639Y64983D01*
X56607Y64582D01*
X57546Y64118D01*
X58454Y63595D01*
X59325Y63013D01*
X60156Y62375D01*
X60943Y61684D01*
X61684Y60943D01*
X62375Y60156D01*
X63013Y59325D01*
X63595Y58454D01*
X64118Y57546D01*
X64582Y56607D01*
X64983Y55639D01*
X65319Y54647D01*
X65590Y53635D01*
X65795Y52608D01*
X65932Y51569D01*
X66000Y50524D01*
X66000Y49476D01*
X65932Y48431D01*
X65795Y47392D01*
X65590Y46365D01*
X65319Y45353D01*
X64983Y44361D01*
X64582Y43393D01*
X64118Y42454D01*
X63595Y41546D01*
X63013Y40675D01*
X62375Y39844D01*
X61684Y39057D01*
X60943Y38316D01*
X60156Y37625D01*
X59325Y36988D01*
X58454Y36406D01*
X57546Y35882D01*
X56607Y35418D01*
X55639Y35017D01*
X54647Y34681D01*
X53635Y34410D01*
X52608Y34205D01*
X51569Y34069D01*
X50524Y34000D01*
X49476Y34000D01*
X48431Y34069D01*
X47392Y34205D01*
X46365Y34410D01*
X45353Y34681D01*
X44361Y35017D01*
X43393Y35418D01*
X42454Y35882D01*
X41546Y36406D01*
X40675Y36988D01*
X39844Y37625D01*
X39057Y38316D01*
X38316Y39057D01*
X37625Y39844D01*
X36988Y40675D01*
X36406Y41546D01*
X35882Y42454D01*
X35418Y43393D01*
X35017Y44361D01*
X34681Y45353D01*
X34410Y46365D01*
X34205Y47392D01*
X34069Y48431D01*
X34000Y49476D01*
X34000Y50524D01*
X34069Y51569D01*
X34205Y52608D01*
X34410Y53635D01*
X34681Y54647D01*
X35017Y55639D01*
X35418Y56607D01*
X35882Y57546D01*
X36406Y58454D01*
X36988Y59325D01*
X37625Y60156D01*
X38316Y60943D01*
X39057Y61684D01*
X39844Y62375D01*
X40675Y63013D01*
X41546Y63595D01*
X42454Y64118D01*
X43393Y64582D01*
X44361Y64983D01*
X45353Y65319D01*
X46365Y65590D01*
X47392Y65795D01*
X48431Y65932D01*
X49476Y66000D01*
X50524Y66000D01*
X380524Y34000D02*
X381569Y34069D01*
X382608Y34205D01*
X383635Y34410D01*
X384647Y34681D01*
X385639Y35017D01*
X386607Y35418D01*
X387546Y35882D01*
X388454Y36406D01*
X389325Y36988D01*
X390156Y37625D01*
X390943Y38316D01*
X391684Y39057D01*
X392375Y39844D01*
X393013Y40675D01*
X393595Y41546D01*
X394118Y42454D01*
X394582Y43393D01*
X394983Y44361D01*
X395319Y45353D01*
X395590Y46365D01*
X395795Y47392D01*
X395932Y48431D01*
X396000Y49476D01*
X396000Y50524D01*
X395932Y51569D01*
X395795Y52608D01*
X395590Y53635D01*
X395319Y54647D01*
X394983Y55639D01*
X394582Y56607D01*
X394118Y57546D01*
X393595Y58454D01*
X393013Y59325D01*
X392375Y60156D01*
X391684Y60943D01*
X390943Y61684D01*
X390156Y62375D01*
X389325Y63013D01*
X388454Y63595D01*
X387546Y64118D01*
X386607Y64582D01*
X385639Y64983D01*
X384647Y65319D01*
X383635Y65590D01*
X382608Y65795D01*
X381569Y65932D01*
X380524Y66000D01*
X379476Y66000D01*
X378431Y65932D01*
X377392Y65795D01*
X376365Y65590D01*
X375353Y65319D01*
X374361Y64983D01*
X373393Y64582D01*
X372454Y64118D01*
X371546Y63595D01*
X370675Y63013D01*
X369844Y62375D01*
X369057Y61684D01*
X368316Y60943D01*
X367625Y60156D01*
X366988Y59325D01*
X366406Y58454D01*
X365882Y57546D01*
X365418Y56607D01*
X365017Y55639D01*
X364681Y54647D01*
X364410Y53635D01*
X364205Y52608D01*
X364069Y51569D01*
X364000Y50524D01*
X364000Y49476D01*
X364069Y48431D01*
X364205Y47392D01*
X364410Y46365D01*
X364681Y45353D01*
X365017Y44361D01*
X365418Y43393D01*
X365882Y42454D01*
X366406Y41546D01*
X366988Y40675D01*
X367625Y39844D01*
X368316Y39057D01*
X369057Y38316D01*
X369844Y37625D01*
X370675Y36988D01*
X371546Y36406D01*
X372454Y35882D01*
X373393Y35418D01*
X374361Y35017D01*
X375353Y34681D01*
X376365Y34410D01*
X377392Y34205D01*
X378431Y34069D01*
X379476Y34000D01*
X380524Y34000D01*
X364000Y299476D02*
X364069Y298431D01*
X364205Y297392D01*
X364410Y296365D01*
X364681Y295353D01*
X365017Y294361D01*
X365418Y293393D01*
X365882Y292454D01*
X366406Y291546D01*
X366988Y290675D01*
X367625Y289844D01*
X368316Y289057D01*
X369057Y288316D01*
X369844Y287625D01*
X370675Y286988D01*
X371546Y286406D01*
X372454Y285882D01*
X373393Y285418D01*
X374361Y285017D01*
X375353Y284681D01*
X376365Y284410D01*
X377392Y284205D01*
X378431Y284069D01*
X379476Y284000D01*
X380524Y284000D01*
X381569Y284069D01*
X382608Y284205D01*
X383635Y284410D01*
X384647Y284681D01*
X385639Y285017D01*
X386607Y285418D01*
X387546Y285882D01*
X388454Y286406D01*
X389325Y286988D01*
X390156Y287625D01*
X390943Y288316D01*
X391684Y289057D01*
X392375Y289844D01*
X393013Y290675D01*
X393595Y291546D01*
X394118Y292454D01*
X394582Y293393D01*
X394983Y294361D01*
X395319Y295353D01*
X395590Y296365D01*
X395795Y297392D01*
X395932Y298431D01*
X396000Y299476D01*
X396000Y300524D01*
X395932Y301569D01*
X395795Y302608D01*
X395590Y303635D01*
X395319Y304647D01*
X394983Y305639D01*
X394582Y306607D01*
X394118Y307546D01*
X393595Y308454D01*
X393013Y309325D01*
X392375Y310156D01*
X391684Y310943D01*
X390943Y311684D01*
X390156Y312375D01*
X389325Y313013D01*
X388454Y313595D01*
X387546Y314118D01*
X386607Y314582D01*
X385639Y314983D01*
X384647Y315319D01*
X383635Y315590D01*
X382608Y315795D01*
X381569Y315932D01*
X380524Y316000D01*
X379476Y316000D01*
X378431Y315932D01*
X377392Y315795D01*
X376365Y315590D01*
X375353Y315319D01*
X374361Y314983D01*
X373393Y314582D01*
X372454Y314118D01*
X371546Y313595D01*
X370675Y313013D01*
X369844Y312375D01*
X369057Y311684D01*
X368316Y310943D01*
X367625Y310156D01*
X366988Y309325D01*
X366406Y308454D01*
X365882Y307546D01*
X365418Y306607D01*
X365017Y305639D01*
X364681Y304647D01*
X364410Y303635D01*
X364205Y302608D01*
X364069Y301569D01*
X364000Y300524D01*
X364000Y299476D01*
M02*
