G04 EAGLE Gerber RS-274X export*
G75*
%MOMM*%
%FSLAX34Y34*%
%LPD*%
%INSilkscreen Bottom*%
%IPPOS*%
%AMOC8*
5,1,8,0,0,1.08239X$1,22.5*%
G01*
%ADD10C,0.152400*%
%ADD11C,0.203200*%
%ADD12C,0.248919*%
%ADD13C,0.300000*%
%ADD14C,0.457200*%


D10*
X15710Y300000D02*
X15720Y300842D01*
X15751Y301683D01*
X15803Y302523D01*
X15875Y303361D01*
X15968Y304197D01*
X16081Y305031D01*
X16215Y305862D01*
X16369Y306690D01*
X16543Y307513D01*
X16738Y308332D01*
X16952Y309146D01*
X17187Y309954D01*
X17441Y310756D01*
X17714Y311552D01*
X18008Y312341D01*
X18320Y313122D01*
X18652Y313896D01*
X19002Y314661D01*
X19371Y315417D01*
X19759Y316164D01*
X20165Y316901D01*
X20588Y317629D01*
X21030Y318345D01*
X21489Y319051D01*
X21965Y319744D01*
X22458Y320427D01*
X22968Y321096D01*
X23493Y321753D01*
X24035Y322397D01*
X24593Y323028D01*
X25166Y323644D01*
X25753Y324247D01*
X26356Y324834D01*
X26972Y325407D01*
X27603Y325965D01*
X28247Y326507D01*
X28904Y327032D01*
X29573Y327542D01*
X30256Y328035D01*
X30949Y328511D01*
X31655Y328970D01*
X32371Y329412D01*
X33099Y329835D01*
X33836Y330241D01*
X34583Y330629D01*
X35339Y330998D01*
X36104Y331348D01*
X36878Y331680D01*
X37659Y331992D01*
X38448Y332286D01*
X39244Y332559D01*
X40046Y332813D01*
X40854Y333048D01*
X41668Y333262D01*
X42487Y333457D01*
X43310Y333631D01*
X44138Y333785D01*
X44969Y333919D01*
X45803Y334032D01*
X46639Y334125D01*
X47477Y334197D01*
X48317Y334249D01*
X49158Y334280D01*
X50000Y334290D01*
X50842Y334280D01*
X51683Y334249D01*
X52523Y334197D01*
X53361Y334125D01*
X54197Y334032D01*
X55031Y333919D01*
X55862Y333785D01*
X56690Y333631D01*
X57513Y333457D01*
X58332Y333262D01*
X59146Y333048D01*
X59954Y332813D01*
X60756Y332559D01*
X61552Y332286D01*
X62341Y331992D01*
X63122Y331680D01*
X63896Y331348D01*
X64661Y330998D01*
X65417Y330629D01*
X66164Y330241D01*
X66901Y329835D01*
X67629Y329412D01*
X68345Y328970D01*
X69051Y328511D01*
X69744Y328035D01*
X70427Y327542D01*
X71096Y327032D01*
X71753Y326507D01*
X72397Y325965D01*
X73028Y325407D01*
X73644Y324834D01*
X74247Y324247D01*
X74834Y323644D01*
X75407Y323028D01*
X75965Y322397D01*
X76507Y321753D01*
X77032Y321096D01*
X77542Y320427D01*
X78035Y319744D01*
X78511Y319051D01*
X78970Y318345D01*
X79412Y317629D01*
X79835Y316901D01*
X80241Y316164D01*
X80629Y315417D01*
X80998Y314661D01*
X81348Y313896D01*
X81680Y313122D01*
X81992Y312341D01*
X82286Y311552D01*
X82559Y310756D01*
X82813Y309954D01*
X83048Y309146D01*
X83262Y308332D01*
X83457Y307513D01*
X83631Y306690D01*
X83785Y305862D01*
X83919Y305031D01*
X84032Y304197D01*
X84125Y303361D01*
X84197Y302523D01*
X84249Y301683D01*
X84280Y300842D01*
X84290Y300000D01*
X84280Y299158D01*
X84249Y298317D01*
X84197Y297477D01*
X84125Y296639D01*
X84032Y295803D01*
X83919Y294969D01*
X83785Y294138D01*
X83631Y293310D01*
X83457Y292487D01*
X83262Y291668D01*
X83048Y290854D01*
X82813Y290046D01*
X82559Y289244D01*
X82286Y288448D01*
X81992Y287659D01*
X81680Y286878D01*
X81348Y286104D01*
X80998Y285339D01*
X80629Y284583D01*
X80241Y283836D01*
X79835Y283099D01*
X79412Y282371D01*
X78970Y281655D01*
X78511Y280949D01*
X78035Y280256D01*
X77542Y279573D01*
X77032Y278904D01*
X76507Y278247D01*
X75965Y277603D01*
X75407Y276972D01*
X74834Y276356D01*
X74247Y275753D01*
X73644Y275166D01*
X73028Y274593D01*
X72397Y274035D01*
X71753Y273493D01*
X71096Y272968D01*
X70427Y272458D01*
X69744Y271965D01*
X69051Y271489D01*
X68345Y271030D01*
X67629Y270588D01*
X66901Y270165D01*
X66164Y269759D01*
X65417Y269371D01*
X64661Y269002D01*
X63896Y268652D01*
X63122Y268320D01*
X62341Y268008D01*
X61552Y267714D01*
X60756Y267441D01*
X59954Y267187D01*
X59146Y266952D01*
X58332Y266738D01*
X57513Y266543D01*
X56690Y266369D01*
X55862Y266215D01*
X55031Y266081D01*
X54197Y265968D01*
X53361Y265875D01*
X52523Y265803D01*
X51683Y265751D01*
X50842Y265720D01*
X50000Y265710D01*
X49158Y265720D01*
X48317Y265751D01*
X47477Y265803D01*
X46639Y265875D01*
X45803Y265968D01*
X44969Y266081D01*
X44138Y266215D01*
X43310Y266369D01*
X42487Y266543D01*
X41668Y266738D01*
X40854Y266952D01*
X40046Y267187D01*
X39244Y267441D01*
X38448Y267714D01*
X37659Y268008D01*
X36878Y268320D01*
X36104Y268652D01*
X35339Y269002D01*
X34583Y269371D01*
X33836Y269759D01*
X33099Y270165D01*
X32371Y270588D01*
X31655Y271030D01*
X30949Y271489D01*
X30256Y271965D01*
X29573Y272458D01*
X28904Y272968D01*
X28247Y273493D01*
X27603Y274035D01*
X26972Y274593D01*
X26356Y275166D01*
X25753Y275753D01*
X25166Y276356D01*
X24593Y276972D01*
X24035Y277603D01*
X23493Y278247D01*
X22968Y278904D01*
X22458Y279573D01*
X21965Y280256D01*
X21489Y280949D01*
X21030Y281655D01*
X20588Y282371D01*
X20165Y283099D01*
X19759Y283836D01*
X19371Y284583D01*
X19002Y285339D01*
X18652Y286104D01*
X18320Y286878D01*
X18008Y287659D01*
X17714Y288448D01*
X17441Y289244D01*
X17187Y290046D01*
X16952Y290854D01*
X16738Y291668D01*
X16543Y292487D01*
X16369Y293310D01*
X16215Y294138D01*
X16081Y294969D01*
X15968Y295803D01*
X15875Y296639D01*
X15803Y297477D01*
X15751Y298317D01*
X15720Y299158D01*
X15710Y300000D01*
D11*
X33000Y300000D02*
X33005Y300417D01*
X33020Y300834D01*
X33046Y301251D01*
X33082Y301666D01*
X33128Y302081D01*
X33184Y302494D01*
X33250Y302906D01*
X33327Y303317D01*
X33413Y303725D01*
X33509Y304131D01*
X33616Y304534D01*
X33732Y304935D01*
X33858Y305333D01*
X33994Y305727D01*
X34139Y306118D01*
X34294Y306506D01*
X34458Y306889D01*
X34632Y307268D01*
X34815Y307643D01*
X35007Y308014D01*
X35209Y308379D01*
X35419Y308740D01*
X35637Y309095D01*
X35865Y309445D01*
X36101Y309789D01*
X36345Y310127D01*
X36598Y310459D01*
X36859Y310785D01*
X37127Y311104D01*
X37404Y311417D01*
X37688Y311722D01*
X37979Y312021D01*
X38278Y312312D01*
X38583Y312596D01*
X38896Y312873D01*
X39215Y313141D01*
X39541Y313402D01*
X39873Y313655D01*
X40211Y313899D01*
X40555Y314135D01*
X40905Y314363D01*
X41260Y314581D01*
X41621Y314791D01*
X41986Y314993D01*
X42357Y315185D01*
X42732Y315368D01*
X43111Y315542D01*
X43494Y315706D01*
X43882Y315861D01*
X44273Y316006D01*
X44667Y316142D01*
X45065Y316268D01*
X45466Y316384D01*
X45869Y316491D01*
X46275Y316587D01*
X46683Y316673D01*
X47094Y316750D01*
X47506Y316816D01*
X47919Y316872D01*
X48334Y316918D01*
X48749Y316954D01*
X49166Y316980D01*
X49583Y316995D01*
X50000Y317000D01*
X50417Y316995D01*
X50834Y316980D01*
X51251Y316954D01*
X51666Y316918D01*
X52081Y316872D01*
X52494Y316816D01*
X52906Y316750D01*
X53317Y316673D01*
X53725Y316587D01*
X54131Y316491D01*
X54534Y316384D01*
X54935Y316268D01*
X55333Y316142D01*
X55727Y316006D01*
X56118Y315861D01*
X56506Y315706D01*
X56889Y315542D01*
X57268Y315368D01*
X57643Y315185D01*
X58014Y314993D01*
X58379Y314791D01*
X58740Y314581D01*
X59095Y314363D01*
X59445Y314135D01*
X59789Y313899D01*
X60127Y313655D01*
X60459Y313402D01*
X60785Y313141D01*
X61104Y312873D01*
X61417Y312596D01*
X61722Y312312D01*
X62021Y312021D01*
X62312Y311722D01*
X62596Y311417D01*
X62873Y311104D01*
X63141Y310785D01*
X63402Y310459D01*
X63655Y310127D01*
X63899Y309789D01*
X64135Y309445D01*
X64363Y309095D01*
X64581Y308740D01*
X64791Y308379D01*
X64993Y308014D01*
X65185Y307643D01*
X65368Y307268D01*
X65542Y306889D01*
X65706Y306506D01*
X65861Y306118D01*
X66006Y305727D01*
X66142Y305333D01*
X66268Y304935D01*
X66384Y304534D01*
X66491Y304131D01*
X66587Y303725D01*
X66673Y303317D01*
X66750Y302906D01*
X66816Y302494D01*
X66872Y302081D01*
X66918Y301666D01*
X66954Y301251D01*
X66980Y300834D01*
X66995Y300417D01*
X67000Y300000D01*
X66995Y299583D01*
X66980Y299166D01*
X66954Y298749D01*
X66918Y298334D01*
X66872Y297919D01*
X66816Y297506D01*
X66750Y297094D01*
X66673Y296683D01*
X66587Y296275D01*
X66491Y295869D01*
X66384Y295466D01*
X66268Y295065D01*
X66142Y294667D01*
X66006Y294273D01*
X65861Y293882D01*
X65706Y293494D01*
X65542Y293111D01*
X65368Y292732D01*
X65185Y292357D01*
X64993Y291986D01*
X64791Y291621D01*
X64581Y291260D01*
X64363Y290905D01*
X64135Y290555D01*
X63899Y290211D01*
X63655Y289873D01*
X63402Y289541D01*
X63141Y289215D01*
X62873Y288896D01*
X62596Y288583D01*
X62312Y288278D01*
X62021Y287979D01*
X61722Y287688D01*
X61417Y287404D01*
X61104Y287127D01*
X60785Y286859D01*
X60459Y286598D01*
X60127Y286345D01*
X59789Y286101D01*
X59445Y285865D01*
X59095Y285637D01*
X58740Y285419D01*
X58379Y285209D01*
X58014Y285007D01*
X57643Y284815D01*
X57268Y284632D01*
X56889Y284458D01*
X56506Y284294D01*
X56118Y284139D01*
X55727Y283994D01*
X55333Y283858D01*
X54935Y283732D01*
X54534Y283616D01*
X54131Y283509D01*
X53725Y283413D01*
X53317Y283327D01*
X52906Y283250D01*
X52494Y283184D01*
X52081Y283128D01*
X51666Y283082D01*
X51251Y283046D01*
X50834Y283020D01*
X50417Y283005D01*
X50000Y283000D01*
X49583Y283005D01*
X49166Y283020D01*
X48749Y283046D01*
X48334Y283082D01*
X47919Y283128D01*
X47506Y283184D01*
X47094Y283250D01*
X46683Y283327D01*
X46275Y283413D01*
X45869Y283509D01*
X45466Y283616D01*
X45065Y283732D01*
X44667Y283858D01*
X44273Y283994D01*
X43882Y284139D01*
X43494Y284294D01*
X43111Y284458D01*
X42732Y284632D01*
X42357Y284815D01*
X41986Y285007D01*
X41621Y285209D01*
X41260Y285419D01*
X40905Y285637D01*
X40555Y285865D01*
X40211Y286101D01*
X39873Y286345D01*
X39541Y286598D01*
X39215Y286859D01*
X38896Y287127D01*
X38583Y287404D01*
X38278Y287688D01*
X37979Y287979D01*
X37688Y288278D01*
X37404Y288583D01*
X37127Y288896D01*
X36859Y289215D01*
X36598Y289541D01*
X36345Y289873D01*
X36101Y290211D01*
X35865Y290555D01*
X35637Y290905D01*
X35419Y291260D01*
X35209Y291621D01*
X35007Y291986D01*
X34815Y292357D01*
X34632Y292732D01*
X34458Y293111D01*
X34294Y293494D01*
X34139Y293882D01*
X33994Y294273D01*
X33858Y294667D01*
X33732Y295065D01*
X33616Y295466D01*
X33509Y295869D01*
X33413Y296275D01*
X33327Y296683D01*
X33250Y297094D01*
X33184Y297506D01*
X33128Y297919D01*
X33082Y298334D01*
X33046Y298749D01*
X33020Y299166D01*
X33005Y299583D01*
X33000Y300000D01*
D12*
X17232Y298756D02*
X39686Y298759D01*
X39685Y298758D02*
X39719Y298509D01*
X39758Y298261D01*
X39803Y298013D01*
X39854Y297767D01*
X39911Y297522D01*
X39974Y297279D01*
X40042Y297037D01*
X40117Y296797D01*
X40198Y296559D01*
X40284Y296322D01*
X40376Y296088D01*
X40473Y295857D01*
X40576Y295627D01*
X40685Y295400D01*
X40799Y295176D01*
X40918Y294955D01*
X41043Y294737D01*
X41173Y294522D01*
X41308Y294309D01*
X41448Y294101D01*
X41594Y293896D01*
X41744Y293694D01*
X41899Y293496D01*
X42059Y293302D01*
X42223Y293112D01*
X42392Y292925D01*
X42566Y292743D01*
X42743Y292566D01*
X42925Y292392D01*
X43112Y292223D01*
X43302Y292059D01*
X43496Y291899D01*
X43694Y291744D01*
X43896Y291594D01*
X44101Y291448D01*
X44309Y291308D01*
X44522Y291173D01*
X44737Y291043D01*
X44955Y290918D01*
X45176Y290799D01*
X45400Y290685D01*
X45627Y290576D01*
X45857Y290473D01*
X46088Y290376D01*
X46322Y290284D01*
X46559Y290198D01*
X46797Y290117D01*
X47037Y290042D01*
X47279Y289974D01*
X47522Y289911D01*
X47767Y289854D01*
X48013Y289803D01*
X48261Y289758D01*
X48509Y289719D01*
X48758Y289685D01*
X48756Y267232D01*
X47953Y267272D01*
X47152Y267332D01*
X46352Y267412D01*
X45555Y267511D01*
X44760Y267629D01*
X43968Y267767D01*
X43180Y267925D01*
X42396Y268102D01*
X41617Y268298D01*
X40843Y268513D01*
X40074Y268746D01*
X39311Y268999D01*
X38555Y269270D01*
X37805Y269560D01*
X37063Y269868D01*
X36328Y270194D01*
X35602Y270538D01*
X34884Y270900D01*
X34176Y271279D01*
X33477Y271675D01*
X32788Y272088D01*
X32109Y272519D01*
X31441Y272965D01*
X30784Y273428D01*
X30139Y273907D01*
X29505Y274401D01*
X28884Y274911D01*
X28276Y275436D01*
X27680Y275976D01*
X27098Y276530D01*
X26530Y277098D01*
X25976Y277680D01*
X25436Y278276D01*
X24911Y278884D01*
X24401Y279505D01*
X23907Y280139D01*
X23428Y280784D01*
X22965Y281441D01*
X22519Y282109D01*
X22088Y282788D01*
X21675Y283477D01*
X21279Y284176D01*
X20900Y284884D01*
X20538Y285602D01*
X20194Y286328D01*
X19868Y287063D01*
X19560Y287805D01*
X19270Y288555D01*
X18999Y289311D01*
X18746Y290074D01*
X18513Y290843D01*
X18298Y291617D01*
X18102Y292396D01*
X17925Y293180D01*
X17767Y293968D01*
X17629Y294760D01*
X17511Y295555D01*
X17412Y296352D01*
X17332Y297152D01*
X17272Y297953D01*
X17232Y298756D01*
X19597Y298756D01*
X19637Y298014D01*
X19694Y297274D01*
X19770Y296535D01*
X19864Y295798D01*
X19975Y295064D01*
X20104Y294332D01*
X20252Y293604D01*
X20417Y292880D01*
X20599Y292160D01*
X20799Y291445D01*
X21017Y290735D01*
X21252Y290030D01*
X21504Y289332D01*
X21772Y288639D01*
X22058Y287954D01*
X22360Y287275D01*
X22679Y286604D01*
X23014Y285942D01*
X23366Y285287D01*
X23733Y284641D01*
X24115Y284005D01*
X24513Y283378D01*
X24927Y282761D01*
X25355Y282154D01*
X25798Y281558D01*
X26255Y280972D01*
X26727Y280399D01*
X27212Y279836D01*
X27711Y279286D01*
X28223Y278748D01*
X28748Y278223D01*
X29286Y277711D01*
X29836Y277212D01*
X30399Y276727D01*
X30972Y276255D01*
X31558Y275798D01*
X32154Y275355D01*
X32761Y274927D01*
X33378Y274513D01*
X34005Y274115D01*
X34641Y273733D01*
X35287Y273366D01*
X35942Y273014D01*
X36604Y272679D01*
X37275Y272360D01*
X37954Y272058D01*
X38639Y271772D01*
X39332Y271504D01*
X40030Y271252D01*
X40735Y271017D01*
X41445Y270799D01*
X42160Y270599D01*
X42880Y270417D01*
X43604Y270252D01*
X44332Y270104D01*
X45064Y269975D01*
X45798Y269864D01*
X46535Y269770D01*
X47274Y269694D01*
X48014Y269637D01*
X48756Y269597D01*
X48756Y271964D01*
X48075Y272002D01*
X47396Y272057D01*
X46717Y272129D01*
X46041Y272217D01*
X45367Y272321D01*
X44696Y272442D01*
X44028Y272579D01*
X43364Y272732D01*
X42704Y272901D01*
X42047Y273086D01*
X41396Y273288D01*
X40749Y273504D01*
X40108Y273737D01*
X39473Y273985D01*
X38844Y274248D01*
X38222Y274527D01*
X37607Y274821D01*
X36999Y275129D01*
X36398Y275452D01*
X35806Y275790D01*
X35222Y276142D01*
X34647Y276508D01*
X34080Y276888D01*
X33524Y277282D01*
X32977Y277689D01*
X32440Y278109D01*
X31913Y278542D01*
X31397Y278988D01*
X30892Y279446D01*
X30398Y279916D01*
X29916Y280398D01*
X29446Y280892D01*
X28988Y281397D01*
X28542Y281913D01*
X28109Y282440D01*
X27689Y282977D01*
X27282Y283524D01*
X26888Y284080D01*
X26508Y284647D01*
X26142Y285222D01*
X25790Y285806D01*
X25452Y286398D01*
X25129Y286999D01*
X24821Y287607D01*
X24527Y288222D01*
X24248Y288844D01*
X23985Y289473D01*
X23737Y290108D01*
X23504Y290749D01*
X23288Y291396D01*
X23086Y292047D01*
X22901Y292704D01*
X22732Y293364D01*
X22579Y294028D01*
X22442Y294696D01*
X22321Y295367D01*
X22217Y296041D01*
X22129Y296717D01*
X22057Y297396D01*
X22002Y298075D01*
X21964Y298756D01*
X24330Y298756D01*
X24368Y298136D01*
X24420Y297517D01*
X24488Y296900D01*
X24570Y296285D01*
X24667Y295671D01*
X24779Y295060D01*
X24906Y294453D01*
X25047Y293848D01*
X25203Y293247D01*
X25374Y292650D01*
X25558Y292057D01*
X25757Y291469D01*
X25971Y290885D01*
X26198Y290307D01*
X26439Y289735D01*
X26694Y289169D01*
X26962Y288609D01*
X27244Y288056D01*
X27539Y287509D01*
X27848Y286970D01*
X28169Y286439D01*
X28503Y285916D01*
X28850Y285400D01*
X29209Y284894D01*
X29580Y284396D01*
X29963Y283907D01*
X30357Y283427D01*
X30763Y282958D01*
X31181Y282498D01*
X31609Y282048D01*
X32048Y281609D01*
X32498Y281181D01*
X32958Y280763D01*
X33427Y280357D01*
X33907Y279963D01*
X34396Y279580D01*
X34894Y279209D01*
X35400Y278850D01*
X35916Y278503D01*
X36439Y278169D01*
X36970Y277848D01*
X37509Y277539D01*
X38056Y277244D01*
X38609Y276962D01*
X39169Y276694D01*
X39735Y276439D01*
X40307Y276198D01*
X40885Y275971D01*
X41469Y275757D01*
X42057Y275558D01*
X42650Y275374D01*
X43247Y275203D01*
X43848Y275047D01*
X44453Y274906D01*
X45060Y274779D01*
X45671Y274667D01*
X46285Y274570D01*
X46900Y274488D01*
X47517Y274420D01*
X48136Y274368D01*
X48756Y274330D01*
X48756Y276697D01*
X48188Y276734D01*
X47621Y276786D01*
X47055Y276851D01*
X46491Y276929D01*
X45929Y277022D01*
X45370Y277128D01*
X44813Y277248D01*
X44259Y277381D01*
X43709Y277528D01*
X43163Y277688D01*
X42620Y277862D01*
X42082Y278048D01*
X41549Y278248D01*
X41021Y278461D01*
X40498Y278686D01*
X39981Y278924D01*
X39470Y279175D01*
X38965Y279438D01*
X38466Y279714D01*
X37975Y280001D01*
X37490Y280300D01*
X37013Y280612D01*
X36544Y280934D01*
X36083Y281268D01*
X35630Y281613D01*
X35186Y281969D01*
X34750Y282336D01*
X34324Y282714D01*
X33906Y283101D01*
X33499Y283499D01*
X33101Y283906D01*
X32714Y284324D01*
X32336Y284750D01*
X31969Y285186D01*
X31613Y285630D01*
X31268Y286083D01*
X30934Y286544D01*
X30612Y287013D01*
X30300Y287490D01*
X30001Y287975D01*
X29714Y288466D01*
X29438Y288965D01*
X29175Y289470D01*
X28924Y289981D01*
X28686Y290498D01*
X28461Y291021D01*
X28248Y291549D01*
X28048Y292082D01*
X27862Y292620D01*
X27688Y293163D01*
X27528Y293709D01*
X27381Y294259D01*
X27248Y294813D01*
X27128Y295370D01*
X27022Y295929D01*
X26929Y296491D01*
X26851Y297055D01*
X26786Y297621D01*
X26734Y298188D01*
X26697Y298756D01*
X29065Y298756D01*
X29101Y298250D01*
X29150Y297745D01*
X29210Y297241D01*
X29283Y296739D01*
X29368Y296238D01*
X29465Y295740D01*
X29574Y295244D01*
X29695Y294751D01*
X29828Y294262D01*
X29973Y293775D01*
X30130Y293292D01*
X30298Y292813D01*
X30477Y292339D01*
X30669Y291869D01*
X30871Y291403D01*
X31085Y290943D01*
X31309Y290488D01*
X31545Y290038D01*
X31792Y289594D01*
X32049Y289157D01*
X32316Y288726D01*
X32594Y288301D01*
X32883Y287883D01*
X33181Y287472D01*
X33489Y287069D01*
X33807Y286673D01*
X34134Y286285D01*
X34470Y285905D01*
X34816Y285534D01*
X35171Y285171D01*
X35534Y284816D01*
X35905Y284470D01*
X36285Y284134D01*
X36673Y283807D01*
X37069Y283489D01*
X37472Y283181D01*
X37883Y282883D01*
X38301Y282594D01*
X38726Y282316D01*
X39157Y282049D01*
X39594Y281792D01*
X40038Y281545D01*
X40488Y281309D01*
X40943Y281085D01*
X41403Y280871D01*
X41869Y280669D01*
X42339Y280477D01*
X42813Y280298D01*
X43292Y280130D01*
X43775Y279973D01*
X44262Y279828D01*
X44751Y279695D01*
X45244Y279574D01*
X45740Y279465D01*
X46238Y279368D01*
X46739Y279283D01*
X47241Y279210D01*
X47745Y279150D01*
X48250Y279101D01*
X48756Y279065D01*
X48756Y281434D01*
X48305Y281469D01*
X47854Y281516D01*
X47404Y281574D01*
X46956Y281643D01*
X46510Y281722D01*
X46066Y281813D01*
X45624Y281914D01*
X45185Y282026D01*
X44749Y282148D01*
X44316Y282282D01*
X43886Y282425D01*
X43460Y282579D01*
X43037Y282744D01*
X42619Y282918D01*
X42205Y283103D01*
X41796Y283298D01*
X41392Y283503D01*
X40992Y283717D01*
X40599Y283942D01*
X40210Y284175D01*
X39828Y284418D01*
X39451Y284671D01*
X39081Y284932D01*
X38717Y285203D01*
X38360Y285482D01*
X38010Y285770D01*
X37667Y286066D01*
X37332Y286370D01*
X37003Y286683D01*
X36683Y287003D01*
X36370Y287332D01*
X36066Y287667D01*
X35770Y288010D01*
X35482Y288360D01*
X35203Y288717D01*
X34932Y289081D01*
X34671Y289451D01*
X34418Y289828D01*
X34175Y290210D01*
X33942Y290599D01*
X33717Y290992D01*
X33503Y291392D01*
X33298Y291796D01*
X33103Y292205D01*
X32918Y292619D01*
X32744Y293037D01*
X32579Y293460D01*
X32425Y293886D01*
X32282Y294316D01*
X32148Y294749D01*
X32026Y295185D01*
X31914Y295624D01*
X31813Y296066D01*
X31722Y296510D01*
X31643Y296956D01*
X31574Y297404D01*
X31516Y297854D01*
X31469Y298305D01*
X31434Y298756D01*
X33804Y298757D01*
X33839Y298361D01*
X33884Y297967D01*
X33938Y297574D01*
X34002Y297182D01*
X34076Y296792D01*
X34159Y296403D01*
X34252Y296017D01*
X34354Y295634D01*
X34465Y295253D01*
X34586Y294874D01*
X34716Y294499D01*
X34855Y294127D01*
X35003Y293759D01*
X35160Y293394D01*
X35326Y293034D01*
X35500Y292677D01*
X35684Y292325D01*
X35875Y291977D01*
X36076Y291635D01*
X36284Y291297D01*
X36501Y290964D01*
X36726Y290637D01*
X36959Y290315D01*
X37199Y290000D01*
X37447Y289690D01*
X37703Y289386D01*
X37966Y289089D01*
X38236Y288798D01*
X38514Y288514D01*
X38798Y288236D01*
X39089Y287966D01*
X39386Y287703D01*
X39690Y287447D01*
X40000Y287199D01*
X40315Y286959D01*
X40637Y286726D01*
X40964Y286501D01*
X41297Y286284D01*
X41635Y286076D01*
X41977Y285875D01*
X42325Y285684D01*
X42677Y285500D01*
X43034Y285326D01*
X43394Y285160D01*
X43759Y285003D01*
X44127Y284855D01*
X44499Y284716D01*
X44874Y284586D01*
X45253Y284465D01*
X45634Y284354D01*
X46017Y284252D01*
X46403Y284159D01*
X46792Y284076D01*
X47182Y284002D01*
X47574Y283938D01*
X47967Y283884D01*
X48361Y283839D01*
X48757Y283804D01*
X48757Y286176D01*
X48420Y286210D01*
X48084Y286253D01*
X47749Y286304D01*
X47415Y286363D01*
X47083Y286430D01*
X46753Y286505D01*
X46424Y286588D01*
X46098Y286680D01*
X45774Y286779D01*
X45453Y286886D01*
X45134Y287001D01*
X44818Y287124D01*
X44505Y287254D01*
X44196Y287392D01*
X43890Y287537D01*
X43587Y287690D01*
X43289Y287850D01*
X42994Y288018D01*
X42704Y288192D01*
X42418Y288374D01*
X42136Y288562D01*
X41859Y288758D01*
X41587Y288960D01*
X41321Y289169D01*
X41059Y289384D01*
X40802Y289605D01*
X40551Y289833D01*
X40306Y290066D01*
X40066Y290306D01*
X39833Y290551D01*
X39605Y290802D01*
X39384Y291059D01*
X39169Y291321D01*
X38960Y291587D01*
X38758Y291859D01*
X38562Y292136D01*
X38374Y292418D01*
X38192Y292704D01*
X38018Y292994D01*
X37850Y293289D01*
X37690Y293587D01*
X37537Y293890D01*
X37392Y294196D01*
X37254Y294505D01*
X37124Y294818D01*
X37001Y295134D01*
X36886Y295453D01*
X36779Y295774D01*
X36680Y296098D01*
X36588Y296424D01*
X36505Y296753D01*
X36430Y297083D01*
X36363Y297415D01*
X36304Y297749D01*
X36253Y298084D01*
X36210Y298420D01*
X36176Y298757D01*
X38551Y298758D01*
X38585Y298481D01*
X38625Y298206D01*
X38671Y297931D01*
X38725Y297658D01*
X38785Y297386D01*
X38851Y297115D01*
X38924Y296846D01*
X39004Y296579D01*
X39090Y296314D01*
X39182Y296052D01*
X39281Y295791D01*
X39386Y295533D01*
X39497Y295278D01*
X39614Y295025D01*
X39738Y294775D01*
X39867Y294528D01*
X40002Y294285D01*
X40143Y294045D01*
X40290Y293808D01*
X40443Y293575D01*
X40601Y293346D01*
X40765Y293120D01*
X40934Y292899D01*
X41108Y292682D01*
X41288Y292469D01*
X41473Y292260D01*
X41662Y292056D01*
X41857Y291857D01*
X42056Y291662D01*
X42260Y291473D01*
X42469Y291288D01*
X42682Y291108D01*
X42899Y290934D01*
X43120Y290765D01*
X43346Y290601D01*
X43575Y290443D01*
X43808Y290290D01*
X44045Y290143D01*
X44285Y290002D01*
X44528Y289867D01*
X44775Y289738D01*
X45025Y289614D01*
X45278Y289497D01*
X45533Y289386D01*
X45791Y289281D01*
X46052Y289182D01*
X46314Y289090D01*
X46579Y289004D01*
X46846Y288924D01*
X47115Y288851D01*
X47386Y288785D01*
X47658Y288725D01*
X47931Y288671D01*
X48206Y288625D01*
X48481Y288585D01*
X48758Y288551D01*
X82768Y301244D02*
X60314Y301241D01*
X60315Y301242D02*
X60281Y301491D01*
X60242Y301739D01*
X60197Y301987D01*
X60146Y302233D01*
X60089Y302478D01*
X60026Y302721D01*
X59958Y302963D01*
X59883Y303203D01*
X59802Y303441D01*
X59716Y303678D01*
X59624Y303912D01*
X59527Y304143D01*
X59424Y304373D01*
X59315Y304600D01*
X59201Y304824D01*
X59082Y305045D01*
X58957Y305263D01*
X58827Y305478D01*
X58692Y305691D01*
X58552Y305899D01*
X58406Y306104D01*
X58256Y306306D01*
X58101Y306504D01*
X57941Y306698D01*
X57777Y306888D01*
X57608Y307075D01*
X57434Y307257D01*
X57257Y307434D01*
X57075Y307608D01*
X56888Y307777D01*
X56698Y307941D01*
X56504Y308101D01*
X56306Y308256D01*
X56104Y308406D01*
X55899Y308552D01*
X55691Y308692D01*
X55478Y308827D01*
X55263Y308957D01*
X55045Y309082D01*
X54824Y309201D01*
X54600Y309315D01*
X54373Y309424D01*
X54143Y309527D01*
X53912Y309624D01*
X53678Y309716D01*
X53441Y309802D01*
X53203Y309883D01*
X52963Y309958D01*
X52721Y310026D01*
X52478Y310089D01*
X52233Y310146D01*
X51987Y310197D01*
X51739Y310242D01*
X51491Y310281D01*
X51242Y310315D01*
X51244Y332768D01*
X52047Y332728D01*
X52848Y332668D01*
X53648Y332588D01*
X54445Y332489D01*
X55240Y332371D01*
X56032Y332233D01*
X56820Y332075D01*
X57604Y331898D01*
X58383Y331702D01*
X59157Y331487D01*
X59926Y331254D01*
X60689Y331001D01*
X61445Y330730D01*
X62195Y330440D01*
X62937Y330132D01*
X63672Y329806D01*
X64398Y329462D01*
X65116Y329100D01*
X65824Y328721D01*
X66523Y328325D01*
X67212Y327912D01*
X67891Y327481D01*
X68559Y327035D01*
X69216Y326572D01*
X69861Y326093D01*
X70495Y325599D01*
X71116Y325089D01*
X71724Y324564D01*
X72320Y324024D01*
X72902Y323470D01*
X73470Y322902D01*
X74024Y322320D01*
X74564Y321724D01*
X75089Y321116D01*
X75599Y320495D01*
X76093Y319861D01*
X76572Y319216D01*
X77035Y318559D01*
X77481Y317891D01*
X77912Y317212D01*
X78325Y316523D01*
X78721Y315824D01*
X79100Y315116D01*
X79462Y314398D01*
X79806Y313672D01*
X80132Y312937D01*
X80440Y312195D01*
X80730Y311445D01*
X81001Y310689D01*
X81254Y309926D01*
X81487Y309157D01*
X81702Y308383D01*
X81898Y307604D01*
X82075Y306820D01*
X82233Y306032D01*
X82371Y305240D01*
X82489Y304445D01*
X82588Y303648D01*
X82668Y302848D01*
X82728Y302047D01*
X82768Y301244D01*
X80403Y301244D01*
X80363Y301986D01*
X80306Y302726D01*
X80230Y303465D01*
X80136Y304202D01*
X80025Y304936D01*
X79896Y305668D01*
X79748Y306396D01*
X79583Y307120D01*
X79401Y307840D01*
X79201Y308555D01*
X78983Y309265D01*
X78748Y309970D01*
X78496Y310668D01*
X78228Y311361D01*
X77942Y312046D01*
X77640Y312725D01*
X77321Y313396D01*
X76986Y314058D01*
X76634Y314713D01*
X76267Y315359D01*
X75885Y315995D01*
X75487Y316622D01*
X75073Y317239D01*
X74645Y317846D01*
X74202Y318442D01*
X73745Y319028D01*
X73273Y319601D01*
X72788Y320164D01*
X72289Y320714D01*
X71777Y321252D01*
X71252Y321777D01*
X70714Y322289D01*
X70164Y322788D01*
X69601Y323273D01*
X69028Y323745D01*
X68442Y324202D01*
X67846Y324645D01*
X67239Y325073D01*
X66622Y325487D01*
X65995Y325885D01*
X65359Y326267D01*
X64713Y326634D01*
X64058Y326986D01*
X63396Y327321D01*
X62725Y327640D01*
X62046Y327942D01*
X61361Y328228D01*
X60668Y328496D01*
X59970Y328748D01*
X59265Y328983D01*
X58555Y329201D01*
X57840Y329401D01*
X57120Y329583D01*
X56396Y329748D01*
X55668Y329896D01*
X54936Y330025D01*
X54202Y330136D01*
X53465Y330230D01*
X52726Y330306D01*
X51986Y330363D01*
X51244Y330403D01*
X51244Y328036D01*
X51925Y327998D01*
X52604Y327943D01*
X53283Y327871D01*
X53959Y327783D01*
X54633Y327679D01*
X55304Y327558D01*
X55972Y327421D01*
X56636Y327268D01*
X57296Y327099D01*
X57953Y326914D01*
X58604Y326712D01*
X59251Y326496D01*
X59892Y326263D01*
X60527Y326015D01*
X61156Y325752D01*
X61778Y325473D01*
X62393Y325179D01*
X63001Y324871D01*
X63602Y324548D01*
X64194Y324210D01*
X64778Y323858D01*
X65353Y323492D01*
X65920Y323112D01*
X66476Y322718D01*
X67023Y322311D01*
X67560Y321891D01*
X68087Y321458D01*
X68603Y321012D01*
X69108Y320554D01*
X69602Y320084D01*
X70084Y319602D01*
X70554Y319108D01*
X71012Y318603D01*
X71458Y318087D01*
X71891Y317560D01*
X72311Y317023D01*
X72718Y316476D01*
X73112Y315920D01*
X73492Y315353D01*
X73858Y314778D01*
X74210Y314194D01*
X74548Y313602D01*
X74871Y313001D01*
X75179Y312393D01*
X75473Y311778D01*
X75752Y311156D01*
X76015Y310527D01*
X76263Y309892D01*
X76496Y309251D01*
X76712Y308604D01*
X76914Y307953D01*
X77099Y307296D01*
X77268Y306636D01*
X77421Y305972D01*
X77558Y305304D01*
X77679Y304633D01*
X77783Y303959D01*
X77871Y303283D01*
X77943Y302604D01*
X77998Y301925D01*
X78036Y301244D01*
X75670Y301244D01*
X75632Y301864D01*
X75580Y302483D01*
X75512Y303100D01*
X75430Y303715D01*
X75333Y304329D01*
X75221Y304940D01*
X75094Y305547D01*
X74953Y306152D01*
X74797Y306753D01*
X74626Y307350D01*
X74442Y307943D01*
X74243Y308531D01*
X74029Y309115D01*
X73802Y309693D01*
X73561Y310265D01*
X73306Y310831D01*
X73038Y311391D01*
X72756Y311944D01*
X72461Y312491D01*
X72152Y313030D01*
X71831Y313561D01*
X71497Y314084D01*
X71150Y314600D01*
X70791Y315106D01*
X70420Y315604D01*
X70037Y316093D01*
X69643Y316573D01*
X69237Y317042D01*
X68819Y317502D01*
X68391Y317952D01*
X67952Y318391D01*
X67502Y318819D01*
X67042Y319237D01*
X66573Y319643D01*
X66093Y320037D01*
X65604Y320420D01*
X65106Y320791D01*
X64600Y321150D01*
X64084Y321497D01*
X63561Y321831D01*
X63030Y322152D01*
X62491Y322461D01*
X61944Y322756D01*
X61391Y323038D01*
X60831Y323306D01*
X60265Y323561D01*
X59693Y323802D01*
X59115Y324029D01*
X58531Y324243D01*
X57943Y324442D01*
X57350Y324626D01*
X56753Y324797D01*
X56152Y324953D01*
X55547Y325094D01*
X54940Y325221D01*
X54329Y325333D01*
X53715Y325430D01*
X53100Y325512D01*
X52483Y325580D01*
X51864Y325632D01*
X51244Y325670D01*
X51244Y323303D01*
X51812Y323266D01*
X52379Y323214D01*
X52945Y323149D01*
X53509Y323071D01*
X54071Y322978D01*
X54630Y322872D01*
X55187Y322752D01*
X55741Y322619D01*
X56291Y322472D01*
X56837Y322312D01*
X57380Y322138D01*
X57918Y321952D01*
X58451Y321752D01*
X58979Y321539D01*
X59502Y321314D01*
X60019Y321076D01*
X60530Y320825D01*
X61035Y320562D01*
X61534Y320286D01*
X62025Y319999D01*
X62510Y319700D01*
X62987Y319388D01*
X63456Y319066D01*
X63917Y318732D01*
X64370Y318387D01*
X64814Y318031D01*
X65250Y317664D01*
X65676Y317286D01*
X66094Y316899D01*
X66501Y316501D01*
X66899Y316094D01*
X67286Y315676D01*
X67664Y315250D01*
X68031Y314814D01*
X68387Y314370D01*
X68732Y313917D01*
X69066Y313456D01*
X69388Y312987D01*
X69700Y312510D01*
X69999Y312025D01*
X70286Y311534D01*
X70562Y311035D01*
X70825Y310530D01*
X71076Y310019D01*
X71314Y309502D01*
X71539Y308979D01*
X71752Y308451D01*
X71952Y307918D01*
X72138Y307380D01*
X72312Y306837D01*
X72472Y306291D01*
X72619Y305741D01*
X72752Y305187D01*
X72872Y304630D01*
X72978Y304071D01*
X73071Y303509D01*
X73149Y302945D01*
X73214Y302379D01*
X73266Y301812D01*
X73303Y301244D01*
X70935Y301244D01*
X70899Y301750D01*
X70850Y302255D01*
X70790Y302759D01*
X70717Y303261D01*
X70632Y303762D01*
X70535Y304260D01*
X70426Y304756D01*
X70305Y305249D01*
X70172Y305738D01*
X70027Y306225D01*
X69870Y306708D01*
X69702Y307187D01*
X69523Y307661D01*
X69331Y308131D01*
X69129Y308597D01*
X68915Y309057D01*
X68691Y309512D01*
X68455Y309962D01*
X68208Y310406D01*
X67951Y310843D01*
X67684Y311274D01*
X67406Y311699D01*
X67117Y312117D01*
X66819Y312528D01*
X66511Y312931D01*
X66193Y313327D01*
X65866Y313715D01*
X65530Y314095D01*
X65184Y314466D01*
X64829Y314829D01*
X64466Y315184D01*
X64095Y315530D01*
X63715Y315866D01*
X63327Y316193D01*
X62931Y316511D01*
X62528Y316819D01*
X62117Y317117D01*
X61699Y317406D01*
X61274Y317684D01*
X60843Y317951D01*
X60406Y318208D01*
X59962Y318455D01*
X59512Y318691D01*
X59057Y318915D01*
X58597Y319129D01*
X58131Y319331D01*
X57661Y319523D01*
X57187Y319702D01*
X56708Y319870D01*
X56225Y320027D01*
X55738Y320172D01*
X55249Y320305D01*
X54756Y320426D01*
X54260Y320535D01*
X53762Y320632D01*
X53261Y320717D01*
X52759Y320790D01*
X52255Y320850D01*
X51750Y320899D01*
X51244Y320935D01*
X51244Y318566D01*
X51695Y318531D01*
X52146Y318484D01*
X52596Y318426D01*
X53044Y318357D01*
X53490Y318278D01*
X53934Y318187D01*
X54376Y318086D01*
X54815Y317974D01*
X55251Y317852D01*
X55684Y317718D01*
X56114Y317575D01*
X56540Y317421D01*
X56963Y317256D01*
X57381Y317082D01*
X57795Y316897D01*
X58204Y316702D01*
X58608Y316497D01*
X59008Y316283D01*
X59401Y316058D01*
X59790Y315825D01*
X60172Y315582D01*
X60549Y315329D01*
X60919Y315068D01*
X61283Y314797D01*
X61640Y314518D01*
X61990Y314230D01*
X62333Y313934D01*
X62668Y313630D01*
X62997Y313317D01*
X63317Y312997D01*
X63630Y312668D01*
X63934Y312333D01*
X64230Y311990D01*
X64518Y311640D01*
X64797Y311283D01*
X65068Y310919D01*
X65329Y310549D01*
X65582Y310172D01*
X65825Y309790D01*
X66058Y309401D01*
X66283Y309008D01*
X66497Y308608D01*
X66702Y308204D01*
X66897Y307795D01*
X67082Y307381D01*
X67256Y306963D01*
X67421Y306540D01*
X67575Y306114D01*
X67718Y305684D01*
X67852Y305251D01*
X67974Y304815D01*
X68086Y304376D01*
X68187Y303934D01*
X68278Y303490D01*
X68357Y303044D01*
X68426Y302596D01*
X68484Y302146D01*
X68531Y301695D01*
X68566Y301244D01*
X66196Y301243D01*
X66161Y301639D01*
X66116Y302033D01*
X66062Y302426D01*
X65998Y302818D01*
X65924Y303208D01*
X65841Y303597D01*
X65748Y303983D01*
X65646Y304366D01*
X65535Y304747D01*
X65414Y305126D01*
X65284Y305501D01*
X65145Y305873D01*
X64997Y306241D01*
X64840Y306606D01*
X64674Y306966D01*
X64500Y307323D01*
X64316Y307675D01*
X64125Y308023D01*
X63924Y308365D01*
X63716Y308703D01*
X63499Y309036D01*
X63274Y309363D01*
X63041Y309685D01*
X62801Y310000D01*
X62553Y310310D01*
X62297Y310614D01*
X62034Y310911D01*
X61764Y311202D01*
X61486Y311486D01*
X61202Y311764D01*
X60911Y312034D01*
X60614Y312297D01*
X60310Y312553D01*
X60000Y312801D01*
X59685Y313041D01*
X59363Y313274D01*
X59036Y313499D01*
X58703Y313716D01*
X58365Y313924D01*
X58023Y314125D01*
X57675Y314316D01*
X57323Y314500D01*
X56966Y314674D01*
X56606Y314840D01*
X56241Y314997D01*
X55873Y315145D01*
X55501Y315284D01*
X55126Y315414D01*
X54747Y315535D01*
X54366Y315646D01*
X53983Y315748D01*
X53597Y315841D01*
X53208Y315924D01*
X52818Y315998D01*
X52426Y316062D01*
X52033Y316116D01*
X51639Y316161D01*
X51243Y316196D01*
X51243Y313824D01*
X51580Y313790D01*
X51916Y313747D01*
X52251Y313696D01*
X52585Y313637D01*
X52917Y313570D01*
X53247Y313495D01*
X53576Y313412D01*
X53902Y313320D01*
X54226Y313221D01*
X54547Y313114D01*
X54866Y312999D01*
X55182Y312876D01*
X55495Y312746D01*
X55804Y312608D01*
X56110Y312463D01*
X56413Y312310D01*
X56711Y312150D01*
X57006Y311982D01*
X57296Y311808D01*
X57582Y311626D01*
X57864Y311438D01*
X58141Y311242D01*
X58413Y311040D01*
X58679Y310831D01*
X58941Y310616D01*
X59198Y310395D01*
X59449Y310167D01*
X59694Y309934D01*
X59934Y309694D01*
X60167Y309449D01*
X60395Y309198D01*
X60616Y308941D01*
X60831Y308679D01*
X61040Y308413D01*
X61242Y308141D01*
X61438Y307864D01*
X61626Y307582D01*
X61808Y307296D01*
X61982Y307006D01*
X62150Y306711D01*
X62310Y306413D01*
X62463Y306110D01*
X62608Y305804D01*
X62746Y305495D01*
X62876Y305182D01*
X62999Y304866D01*
X63114Y304547D01*
X63221Y304226D01*
X63320Y303902D01*
X63412Y303576D01*
X63495Y303247D01*
X63570Y302917D01*
X63637Y302585D01*
X63696Y302251D01*
X63747Y301916D01*
X63790Y301580D01*
X63824Y301243D01*
X61449Y301242D01*
X61415Y301519D01*
X61375Y301794D01*
X61329Y302069D01*
X61275Y302342D01*
X61215Y302614D01*
X61149Y302885D01*
X61076Y303154D01*
X60996Y303421D01*
X60910Y303686D01*
X60818Y303948D01*
X60719Y304209D01*
X60614Y304467D01*
X60503Y304722D01*
X60386Y304975D01*
X60262Y305225D01*
X60133Y305472D01*
X59998Y305715D01*
X59857Y305955D01*
X59710Y306192D01*
X59557Y306425D01*
X59399Y306654D01*
X59235Y306880D01*
X59066Y307101D01*
X58892Y307318D01*
X58712Y307531D01*
X58527Y307740D01*
X58338Y307944D01*
X58143Y308143D01*
X57944Y308338D01*
X57740Y308527D01*
X57531Y308712D01*
X57318Y308892D01*
X57101Y309066D01*
X56880Y309235D01*
X56654Y309399D01*
X56425Y309557D01*
X56192Y309710D01*
X55955Y309857D01*
X55715Y309998D01*
X55472Y310133D01*
X55225Y310262D01*
X54975Y310386D01*
X54722Y310503D01*
X54467Y310614D01*
X54209Y310719D01*
X53948Y310818D01*
X53686Y310910D01*
X53421Y310996D01*
X53154Y311076D01*
X52885Y311149D01*
X52614Y311215D01*
X52342Y311275D01*
X52069Y311329D01*
X51794Y311375D01*
X51519Y311415D01*
X51242Y311449D01*
D13*
X15710Y300000D02*
X15720Y300842D01*
X15751Y301683D01*
X15803Y302523D01*
X15875Y303361D01*
X15968Y304197D01*
X16081Y305031D01*
X16215Y305862D01*
X16369Y306690D01*
X16543Y307513D01*
X16738Y308332D01*
X16952Y309146D01*
X17187Y309954D01*
X17441Y310756D01*
X17714Y311552D01*
X18008Y312341D01*
X18320Y313122D01*
X18652Y313896D01*
X19002Y314661D01*
X19371Y315417D01*
X19759Y316164D01*
X20165Y316901D01*
X20588Y317629D01*
X21030Y318345D01*
X21489Y319051D01*
X21965Y319744D01*
X22458Y320427D01*
X22968Y321096D01*
X23493Y321753D01*
X24035Y322397D01*
X24593Y323028D01*
X25166Y323644D01*
X25753Y324247D01*
X26356Y324834D01*
X26972Y325407D01*
X27603Y325965D01*
X28247Y326507D01*
X28904Y327032D01*
X29573Y327542D01*
X30256Y328035D01*
X30949Y328511D01*
X31655Y328970D01*
X32371Y329412D01*
X33099Y329835D01*
X33836Y330241D01*
X34583Y330629D01*
X35339Y330998D01*
X36104Y331348D01*
X36878Y331680D01*
X37659Y331992D01*
X38448Y332286D01*
X39244Y332559D01*
X40046Y332813D01*
X40854Y333048D01*
X41668Y333262D01*
X42487Y333457D01*
X43310Y333631D01*
X44138Y333785D01*
X44969Y333919D01*
X45803Y334032D01*
X46639Y334125D01*
X47477Y334197D01*
X48317Y334249D01*
X49158Y334280D01*
X50000Y334290D01*
X50842Y334280D01*
X51683Y334249D01*
X52523Y334197D01*
X53361Y334125D01*
X54197Y334032D01*
X55031Y333919D01*
X55862Y333785D01*
X56690Y333631D01*
X57513Y333457D01*
X58332Y333262D01*
X59146Y333048D01*
X59954Y332813D01*
X60756Y332559D01*
X61552Y332286D01*
X62341Y331992D01*
X63122Y331680D01*
X63896Y331348D01*
X64661Y330998D01*
X65417Y330629D01*
X66164Y330241D01*
X66901Y329835D01*
X67629Y329412D01*
X68345Y328970D01*
X69051Y328511D01*
X69744Y328035D01*
X70427Y327542D01*
X71096Y327032D01*
X71753Y326507D01*
X72397Y325965D01*
X73028Y325407D01*
X73644Y324834D01*
X74247Y324247D01*
X74834Y323644D01*
X75407Y323028D01*
X75965Y322397D01*
X76507Y321753D01*
X77032Y321096D01*
X77542Y320427D01*
X78035Y319744D01*
X78511Y319051D01*
X78970Y318345D01*
X79412Y317629D01*
X79835Y316901D01*
X80241Y316164D01*
X80629Y315417D01*
X80998Y314661D01*
X81348Y313896D01*
X81680Y313122D01*
X81992Y312341D01*
X82286Y311552D01*
X82559Y310756D01*
X82813Y309954D01*
X83048Y309146D01*
X83262Y308332D01*
X83457Y307513D01*
X83631Y306690D01*
X83785Y305862D01*
X83919Y305031D01*
X84032Y304197D01*
X84125Y303361D01*
X84197Y302523D01*
X84249Y301683D01*
X84280Y300842D01*
X84290Y300000D01*
X84280Y299158D01*
X84249Y298317D01*
X84197Y297477D01*
X84125Y296639D01*
X84032Y295803D01*
X83919Y294969D01*
X83785Y294138D01*
X83631Y293310D01*
X83457Y292487D01*
X83262Y291668D01*
X83048Y290854D01*
X82813Y290046D01*
X82559Y289244D01*
X82286Y288448D01*
X81992Y287659D01*
X81680Y286878D01*
X81348Y286104D01*
X80998Y285339D01*
X80629Y284583D01*
X80241Y283836D01*
X79835Y283099D01*
X79412Y282371D01*
X78970Y281655D01*
X78511Y280949D01*
X78035Y280256D01*
X77542Y279573D01*
X77032Y278904D01*
X76507Y278247D01*
X75965Y277603D01*
X75407Y276972D01*
X74834Y276356D01*
X74247Y275753D01*
X73644Y275166D01*
X73028Y274593D01*
X72397Y274035D01*
X71753Y273493D01*
X71096Y272968D01*
X70427Y272458D01*
X69744Y271965D01*
X69051Y271489D01*
X68345Y271030D01*
X67629Y270588D01*
X66901Y270165D01*
X66164Y269759D01*
X65417Y269371D01*
X64661Y269002D01*
X63896Y268652D01*
X63122Y268320D01*
X62341Y268008D01*
X61552Y267714D01*
X60756Y267441D01*
X59954Y267187D01*
X59146Y266952D01*
X58332Y266738D01*
X57513Y266543D01*
X56690Y266369D01*
X55862Y266215D01*
X55031Y266081D01*
X54197Y265968D01*
X53361Y265875D01*
X52523Y265803D01*
X51683Y265751D01*
X50842Y265720D01*
X50000Y265710D01*
X49158Y265720D01*
X48317Y265751D01*
X47477Y265803D01*
X46639Y265875D01*
X45803Y265968D01*
X44969Y266081D01*
X44138Y266215D01*
X43310Y266369D01*
X42487Y266543D01*
X41668Y266738D01*
X40854Y266952D01*
X40046Y267187D01*
X39244Y267441D01*
X38448Y267714D01*
X37659Y268008D01*
X36878Y268320D01*
X36104Y268652D01*
X35339Y269002D01*
X34583Y269371D01*
X33836Y269759D01*
X33099Y270165D01*
X32371Y270588D01*
X31655Y271030D01*
X30949Y271489D01*
X30256Y271965D01*
X29573Y272458D01*
X28904Y272968D01*
X28247Y273493D01*
X27603Y274035D01*
X26972Y274593D01*
X26356Y275166D01*
X25753Y275753D01*
X25166Y276356D01*
X24593Y276972D01*
X24035Y277603D01*
X23493Y278247D01*
X22968Y278904D01*
X22458Y279573D01*
X21965Y280256D01*
X21489Y280949D01*
X21030Y281655D01*
X20588Y282371D01*
X20165Y283099D01*
X19759Y283836D01*
X19371Y284583D01*
X19002Y285339D01*
X18652Y286104D01*
X18320Y286878D01*
X18008Y287659D01*
X17714Y288448D01*
X17441Y289244D01*
X17187Y290046D01*
X16952Y290854D01*
X16738Y291668D01*
X16543Y292487D01*
X16369Y293310D01*
X16215Y294138D01*
X16081Y294969D01*
X15968Y295803D01*
X15875Y296639D01*
X15803Y297477D01*
X15751Y298317D01*
X15720Y299158D01*
X15710Y300000D01*
D14*
X42380Y300000D02*
X42382Y300187D01*
X42389Y300374D01*
X42401Y300561D01*
X42417Y300747D01*
X42437Y300933D01*
X42462Y301118D01*
X42492Y301303D01*
X42526Y301487D01*
X42565Y301670D01*
X42608Y301852D01*
X42656Y302032D01*
X42708Y302212D01*
X42765Y302390D01*
X42825Y302567D01*
X42891Y302742D01*
X42960Y302916D01*
X43034Y303088D01*
X43112Y303258D01*
X43194Y303426D01*
X43280Y303592D01*
X43370Y303756D01*
X43464Y303917D01*
X43562Y304077D01*
X43664Y304233D01*
X43770Y304388D01*
X43880Y304539D01*
X43993Y304688D01*
X44110Y304834D01*
X44230Y304977D01*
X44354Y305117D01*
X44481Y305254D01*
X44612Y305388D01*
X44746Y305519D01*
X44883Y305646D01*
X45023Y305770D01*
X45166Y305890D01*
X45312Y306007D01*
X45461Y306120D01*
X45612Y306230D01*
X45767Y306336D01*
X45923Y306438D01*
X46083Y306536D01*
X46244Y306630D01*
X46408Y306720D01*
X46574Y306806D01*
X46742Y306888D01*
X46912Y306966D01*
X47084Y307040D01*
X47258Y307109D01*
X47433Y307175D01*
X47610Y307235D01*
X47788Y307292D01*
X47968Y307344D01*
X48148Y307392D01*
X48330Y307435D01*
X48513Y307474D01*
X48697Y307508D01*
X48882Y307538D01*
X49067Y307563D01*
X49253Y307583D01*
X49439Y307599D01*
X49626Y307611D01*
X49813Y307618D01*
X50000Y307620D01*
X50187Y307618D01*
X50374Y307611D01*
X50561Y307599D01*
X50747Y307583D01*
X50933Y307563D01*
X51118Y307538D01*
X51303Y307508D01*
X51487Y307474D01*
X51670Y307435D01*
X51852Y307392D01*
X52032Y307344D01*
X52212Y307292D01*
X52390Y307235D01*
X52567Y307175D01*
X52742Y307109D01*
X52916Y307040D01*
X53088Y306966D01*
X53258Y306888D01*
X53426Y306806D01*
X53592Y306720D01*
X53756Y306630D01*
X53917Y306536D01*
X54077Y306438D01*
X54233Y306336D01*
X54388Y306230D01*
X54539Y306120D01*
X54688Y306007D01*
X54834Y305890D01*
X54977Y305770D01*
X55117Y305646D01*
X55254Y305519D01*
X55388Y305388D01*
X55519Y305254D01*
X55646Y305117D01*
X55770Y304977D01*
X55890Y304834D01*
X56007Y304688D01*
X56120Y304539D01*
X56230Y304388D01*
X56336Y304233D01*
X56438Y304077D01*
X56536Y303917D01*
X56630Y303756D01*
X56720Y303592D01*
X56806Y303426D01*
X56888Y303258D01*
X56966Y303088D01*
X57040Y302916D01*
X57109Y302742D01*
X57175Y302567D01*
X57235Y302390D01*
X57292Y302212D01*
X57344Y302032D01*
X57392Y301852D01*
X57435Y301670D01*
X57474Y301487D01*
X57508Y301303D01*
X57538Y301118D01*
X57563Y300933D01*
X57583Y300747D01*
X57599Y300561D01*
X57611Y300374D01*
X57618Y300187D01*
X57620Y300000D01*
X57618Y299813D01*
X57611Y299626D01*
X57599Y299439D01*
X57583Y299253D01*
X57563Y299067D01*
X57538Y298882D01*
X57508Y298697D01*
X57474Y298513D01*
X57435Y298330D01*
X57392Y298148D01*
X57344Y297968D01*
X57292Y297788D01*
X57235Y297610D01*
X57175Y297433D01*
X57109Y297258D01*
X57040Y297084D01*
X56966Y296912D01*
X56888Y296742D01*
X56806Y296574D01*
X56720Y296408D01*
X56630Y296244D01*
X56536Y296083D01*
X56438Y295923D01*
X56336Y295767D01*
X56230Y295612D01*
X56120Y295461D01*
X56007Y295312D01*
X55890Y295166D01*
X55770Y295023D01*
X55646Y294883D01*
X55519Y294746D01*
X55388Y294612D01*
X55254Y294481D01*
X55117Y294354D01*
X54977Y294230D01*
X54834Y294110D01*
X54688Y293993D01*
X54539Y293880D01*
X54388Y293770D01*
X54233Y293664D01*
X54077Y293562D01*
X53917Y293464D01*
X53756Y293370D01*
X53592Y293280D01*
X53426Y293194D01*
X53258Y293112D01*
X53088Y293034D01*
X52916Y292960D01*
X52742Y292891D01*
X52567Y292825D01*
X52390Y292765D01*
X52212Y292708D01*
X52032Y292656D01*
X51852Y292608D01*
X51670Y292565D01*
X51487Y292526D01*
X51303Y292492D01*
X51118Y292462D01*
X50933Y292437D01*
X50747Y292417D01*
X50561Y292401D01*
X50374Y292389D01*
X50187Y292382D01*
X50000Y292380D01*
X49813Y292382D01*
X49626Y292389D01*
X49439Y292401D01*
X49253Y292417D01*
X49067Y292437D01*
X48882Y292462D01*
X48697Y292492D01*
X48513Y292526D01*
X48330Y292565D01*
X48148Y292608D01*
X47968Y292656D01*
X47788Y292708D01*
X47610Y292765D01*
X47433Y292825D01*
X47258Y292891D01*
X47084Y292960D01*
X46912Y293034D01*
X46742Y293112D01*
X46574Y293194D01*
X46408Y293280D01*
X46244Y293370D01*
X46083Y293464D01*
X45923Y293562D01*
X45767Y293664D01*
X45612Y293770D01*
X45461Y293880D01*
X45312Y293993D01*
X45166Y294110D01*
X45023Y294230D01*
X44883Y294354D01*
X44746Y294481D01*
X44612Y294612D01*
X44481Y294746D01*
X44354Y294883D01*
X44230Y295023D01*
X44110Y295166D01*
X43993Y295312D01*
X43880Y295461D01*
X43770Y295612D01*
X43664Y295767D01*
X43562Y295923D01*
X43464Y296083D01*
X43370Y296244D01*
X43280Y296408D01*
X43194Y296574D01*
X43112Y296742D01*
X43034Y296912D01*
X42960Y297084D01*
X42891Y297258D01*
X42825Y297433D01*
X42765Y297610D01*
X42708Y297788D01*
X42656Y297968D01*
X42608Y298148D01*
X42565Y298330D01*
X42526Y298513D01*
X42492Y298697D01*
X42462Y298882D01*
X42437Y299067D01*
X42417Y299253D01*
X42401Y299439D01*
X42389Y299626D01*
X42382Y299813D01*
X42380Y300000D01*
D13*
X33000Y300000D02*
X33005Y300417D01*
X33020Y300834D01*
X33046Y301251D01*
X33082Y301666D01*
X33128Y302081D01*
X33184Y302494D01*
X33250Y302906D01*
X33327Y303317D01*
X33413Y303725D01*
X33509Y304131D01*
X33616Y304534D01*
X33732Y304935D01*
X33858Y305333D01*
X33994Y305727D01*
X34139Y306118D01*
X34294Y306506D01*
X34458Y306889D01*
X34632Y307268D01*
X34815Y307643D01*
X35007Y308014D01*
X35209Y308379D01*
X35419Y308740D01*
X35637Y309095D01*
X35865Y309445D01*
X36101Y309789D01*
X36345Y310127D01*
X36598Y310459D01*
X36859Y310785D01*
X37127Y311104D01*
X37404Y311417D01*
X37688Y311722D01*
X37979Y312021D01*
X38278Y312312D01*
X38583Y312596D01*
X38896Y312873D01*
X39215Y313141D01*
X39541Y313402D01*
X39873Y313655D01*
X40211Y313899D01*
X40555Y314135D01*
X40905Y314363D01*
X41260Y314581D01*
X41621Y314791D01*
X41986Y314993D01*
X42357Y315185D01*
X42732Y315368D01*
X43111Y315542D01*
X43494Y315706D01*
X43882Y315861D01*
X44273Y316006D01*
X44667Y316142D01*
X45065Y316268D01*
X45466Y316384D01*
X45869Y316491D01*
X46275Y316587D01*
X46683Y316673D01*
X47094Y316750D01*
X47506Y316816D01*
X47919Y316872D01*
X48334Y316918D01*
X48749Y316954D01*
X49166Y316980D01*
X49583Y316995D01*
X50000Y317000D01*
X50417Y316995D01*
X50834Y316980D01*
X51251Y316954D01*
X51666Y316918D01*
X52081Y316872D01*
X52494Y316816D01*
X52906Y316750D01*
X53317Y316673D01*
X53725Y316587D01*
X54131Y316491D01*
X54534Y316384D01*
X54935Y316268D01*
X55333Y316142D01*
X55727Y316006D01*
X56118Y315861D01*
X56506Y315706D01*
X56889Y315542D01*
X57268Y315368D01*
X57643Y315185D01*
X58014Y314993D01*
X58379Y314791D01*
X58740Y314581D01*
X59095Y314363D01*
X59445Y314135D01*
X59789Y313899D01*
X60127Y313655D01*
X60459Y313402D01*
X60785Y313141D01*
X61104Y312873D01*
X61417Y312596D01*
X61722Y312312D01*
X62021Y312021D01*
X62312Y311722D01*
X62596Y311417D01*
X62873Y311104D01*
X63141Y310785D01*
X63402Y310459D01*
X63655Y310127D01*
X63899Y309789D01*
X64135Y309445D01*
X64363Y309095D01*
X64581Y308740D01*
X64791Y308379D01*
X64993Y308014D01*
X65185Y307643D01*
X65368Y307268D01*
X65542Y306889D01*
X65706Y306506D01*
X65861Y306118D01*
X66006Y305727D01*
X66142Y305333D01*
X66268Y304935D01*
X66384Y304534D01*
X66491Y304131D01*
X66587Y303725D01*
X66673Y303317D01*
X66750Y302906D01*
X66816Y302494D01*
X66872Y302081D01*
X66918Y301666D01*
X66954Y301251D01*
X66980Y300834D01*
X66995Y300417D01*
X67000Y300000D01*
X66995Y299583D01*
X66980Y299166D01*
X66954Y298749D01*
X66918Y298334D01*
X66872Y297919D01*
X66816Y297506D01*
X66750Y297094D01*
X66673Y296683D01*
X66587Y296275D01*
X66491Y295869D01*
X66384Y295466D01*
X66268Y295065D01*
X66142Y294667D01*
X66006Y294273D01*
X65861Y293882D01*
X65706Y293494D01*
X65542Y293111D01*
X65368Y292732D01*
X65185Y292357D01*
X64993Y291986D01*
X64791Y291621D01*
X64581Y291260D01*
X64363Y290905D01*
X64135Y290555D01*
X63899Y290211D01*
X63655Y289873D01*
X63402Y289541D01*
X63141Y289215D01*
X62873Y288896D01*
X62596Y288583D01*
X62312Y288278D01*
X62021Y287979D01*
X61722Y287688D01*
X61417Y287404D01*
X61104Y287127D01*
X60785Y286859D01*
X60459Y286598D01*
X60127Y286345D01*
X59789Y286101D01*
X59445Y285865D01*
X59095Y285637D01*
X58740Y285419D01*
X58379Y285209D01*
X58014Y285007D01*
X57643Y284815D01*
X57268Y284632D01*
X56889Y284458D01*
X56506Y284294D01*
X56118Y284139D01*
X55727Y283994D01*
X55333Y283858D01*
X54935Y283732D01*
X54534Y283616D01*
X54131Y283509D01*
X53725Y283413D01*
X53317Y283327D01*
X52906Y283250D01*
X52494Y283184D01*
X52081Y283128D01*
X51666Y283082D01*
X51251Y283046D01*
X50834Y283020D01*
X50417Y283005D01*
X50000Y283000D01*
X49583Y283005D01*
X49166Y283020D01*
X48749Y283046D01*
X48334Y283082D01*
X47919Y283128D01*
X47506Y283184D01*
X47094Y283250D01*
X46683Y283327D01*
X46275Y283413D01*
X45869Y283509D01*
X45466Y283616D01*
X45065Y283732D01*
X44667Y283858D01*
X44273Y283994D01*
X43882Y284139D01*
X43494Y284294D01*
X43111Y284458D01*
X42732Y284632D01*
X42357Y284815D01*
X41986Y285007D01*
X41621Y285209D01*
X41260Y285419D01*
X40905Y285637D01*
X40555Y285865D01*
X40211Y286101D01*
X39873Y286345D01*
X39541Y286598D01*
X39215Y286859D01*
X38896Y287127D01*
X38583Y287404D01*
X38278Y287688D01*
X37979Y287979D01*
X37688Y288278D01*
X37404Y288583D01*
X37127Y288896D01*
X36859Y289215D01*
X36598Y289541D01*
X36345Y289873D01*
X36101Y290211D01*
X35865Y290555D01*
X35637Y290905D01*
X35419Y291260D01*
X35209Y291621D01*
X35007Y291986D01*
X34815Y292357D01*
X34632Y292732D01*
X34458Y293111D01*
X34294Y293494D01*
X34139Y293882D01*
X33994Y294273D01*
X33858Y294667D01*
X33732Y295065D01*
X33616Y295466D01*
X33509Y295869D01*
X33413Y296275D01*
X33327Y296683D01*
X33250Y297094D01*
X33184Y297506D01*
X33128Y297919D01*
X33082Y298334D01*
X33046Y298749D01*
X33020Y299166D01*
X33005Y299583D01*
X33000Y300000D01*
D12*
X48756Y82768D02*
X48759Y60314D01*
X48758Y60315D02*
X48509Y60281D01*
X48261Y60242D01*
X48013Y60197D01*
X47767Y60146D01*
X47522Y60089D01*
X47279Y60026D01*
X47037Y59958D01*
X46797Y59883D01*
X46559Y59802D01*
X46322Y59716D01*
X46088Y59624D01*
X45857Y59527D01*
X45627Y59424D01*
X45400Y59315D01*
X45176Y59201D01*
X44955Y59082D01*
X44737Y58957D01*
X44522Y58827D01*
X44309Y58692D01*
X44101Y58552D01*
X43896Y58406D01*
X43694Y58256D01*
X43496Y58101D01*
X43302Y57941D01*
X43112Y57777D01*
X42925Y57608D01*
X42743Y57434D01*
X42566Y57257D01*
X42392Y57075D01*
X42223Y56888D01*
X42059Y56698D01*
X41899Y56504D01*
X41744Y56306D01*
X41594Y56104D01*
X41448Y55899D01*
X41308Y55691D01*
X41173Y55478D01*
X41043Y55263D01*
X40918Y55045D01*
X40799Y54824D01*
X40685Y54600D01*
X40576Y54373D01*
X40473Y54143D01*
X40376Y53912D01*
X40284Y53678D01*
X40198Y53441D01*
X40117Y53203D01*
X40042Y52963D01*
X39974Y52721D01*
X39911Y52478D01*
X39854Y52233D01*
X39803Y51987D01*
X39758Y51739D01*
X39719Y51491D01*
X39685Y51242D01*
X17232Y51244D01*
X17272Y52047D01*
X17332Y52848D01*
X17412Y53648D01*
X17511Y54445D01*
X17629Y55240D01*
X17767Y56032D01*
X17925Y56820D01*
X18102Y57604D01*
X18298Y58383D01*
X18513Y59157D01*
X18746Y59926D01*
X18999Y60689D01*
X19270Y61445D01*
X19560Y62195D01*
X19868Y62937D01*
X20194Y63672D01*
X20538Y64398D01*
X20900Y65116D01*
X21279Y65824D01*
X21675Y66523D01*
X22088Y67212D01*
X22519Y67891D01*
X22965Y68559D01*
X23428Y69216D01*
X23907Y69861D01*
X24401Y70495D01*
X24911Y71116D01*
X25436Y71724D01*
X25976Y72320D01*
X26530Y72902D01*
X27098Y73470D01*
X27680Y74024D01*
X28276Y74564D01*
X28884Y75089D01*
X29505Y75599D01*
X30139Y76093D01*
X30784Y76572D01*
X31441Y77035D01*
X32109Y77481D01*
X32788Y77912D01*
X33477Y78325D01*
X34176Y78721D01*
X34884Y79100D01*
X35602Y79462D01*
X36328Y79806D01*
X37063Y80132D01*
X37805Y80440D01*
X38555Y80730D01*
X39311Y81001D01*
X40074Y81254D01*
X40843Y81487D01*
X41617Y81702D01*
X42396Y81898D01*
X43180Y82075D01*
X43968Y82233D01*
X44760Y82371D01*
X45555Y82489D01*
X46352Y82588D01*
X47152Y82668D01*
X47953Y82728D01*
X48756Y82768D01*
X48756Y80403D01*
X48014Y80363D01*
X47274Y80306D01*
X46535Y80230D01*
X45798Y80136D01*
X45064Y80025D01*
X44332Y79896D01*
X43604Y79748D01*
X42880Y79583D01*
X42160Y79401D01*
X41445Y79201D01*
X40735Y78983D01*
X40030Y78748D01*
X39332Y78496D01*
X38639Y78228D01*
X37954Y77942D01*
X37275Y77640D01*
X36604Y77321D01*
X35942Y76986D01*
X35287Y76634D01*
X34641Y76267D01*
X34005Y75885D01*
X33378Y75487D01*
X32761Y75073D01*
X32154Y74645D01*
X31558Y74202D01*
X30972Y73745D01*
X30399Y73273D01*
X29836Y72788D01*
X29286Y72289D01*
X28748Y71777D01*
X28223Y71252D01*
X27711Y70714D01*
X27212Y70164D01*
X26727Y69601D01*
X26255Y69028D01*
X25798Y68442D01*
X25355Y67846D01*
X24927Y67239D01*
X24513Y66622D01*
X24115Y65995D01*
X23733Y65359D01*
X23366Y64713D01*
X23014Y64058D01*
X22679Y63396D01*
X22360Y62725D01*
X22058Y62046D01*
X21772Y61361D01*
X21504Y60668D01*
X21252Y59970D01*
X21017Y59265D01*
X20799Y58555D01*
X20599Y57840D01*
X20417Y57120D01*
X20252Y56396D01*
X20104Y55668D01*
X19975Y54936D01*
X19864Y54202D01*
X19770Y53465D01*
X19694Y52726D01*
X19637Y51986D01*
X19597Y51244D01*
X21964Y51244D01*
X22002Y51925D01*
X22057Y52604D01*
X22129Y53283D01*
X22217Y53959D01*
X22321Y54633D01*
X22442Y55304D01*
X22579Y55972D01*
X22732Y56636D01*
X22901Y57296D01*
X23086Y57953D01*
X23288Y58604D01*
X23504Y59251D01*
X23737Y59892D01*
X23985Y60527D01*
X24248Y61156D01*
X24527Y61778D01*
X24821Y62393D01*
X25129Y63001D01*
X25452Y63602D01*
X25790Y64194D01*
X26142Y64778D01*
X26508Y65353D01*
X26888Y65920D01*
X27282Y66476D01*
X27689Y67023D01*
X28109Y67560D01*
X28542Y68087D01*
X28988Y68603D01*
X29446Y69108D01*
X29916Y69602D01*
X30398Y70084D01*
X30892Y70554D01*
X31397Y71012D01*
X31913Y71458D01*
X32440Y71891D01*
X32977Y72311D01*
X33524Y72718D01*
X34080Y73112D01*
X34647Y73492D01*
X35222Y73858D01*
X35806Y74210D01*
X36398Y74548D01*
X36999Y74871D01*
X37607Y75179D01*
X38222Y75473D01*
X38844Y75752D01*
X39473Y76015D01*
X40108Y76263D01*
X40749Y76496D01*
X41396Y76712D01*
X42047Y76914D01*
X42704Y77099D01*
X43364Y77268D01*
X44028Y77421D01*
X44696Y77558D01*
X45367Y77679D01*
X46041Y77783D01*
X46717Y77871D01*
X47396Y77943D01*
X48075Y77998D01*
X48756Y78036D01*
X48756Y75670D01*
X48136Y75632D01*
X47517Y75580D01*
X46900Y75512D01*
X46285Y75430D01*
X45671Y75333D01*
X45060Y75221D01*
X44453Y75094D01*
X43848Y74953D01*
X43247Y74797D01*
X42650Y74626D01*
X42057Y74442D01*
X41469Y74243D01*
X40885Y74029D01*
X40307Y73802D01*
X39735Y73561D01*
X39169Y73306D01*
X38609Y73038D01*
X38056Y72756D01*
X37509Y72461D01*
X36970Y72152D01*
X36439Y71831D01*
X35916Y71497D01*
X35400Y71150D01*
X34894Y70791D01*
X34396Y70420D01*
X33907Y70037D01*
X33427Y69643D01*
X32958Y69237D01*
X32498Y68819D01*
X32048Y68391D01*
X31609Y67952D01*
X31181Y67502D01*
X30763Y67042D01*
X30357Y66573D01*
X29963Y66093D01*
X29580Y65604D01*
X29209Y65106D01*
X28850Y64600D01*
X28503Y64084D01*
X28169Y63561D01*
X27848Y63030D01*
X27539Y62491D01*
X27244Y61944D01*
X26962Y61391D01*
X26694Y60831D01*
X26439Y60265D01*
X26198Y59693D01*
X25971Y59115D01*
X25757Y58531D01*
X25558Y57943D01*
X25374Y57350D01*
X25203Y56753D01*
X25047Y56152D01*
X24906Y55547D01*
X24779Y54940D01*
X24667Y54329D01*
X24570Y53715D01*
X24488Y53100D01*
X24420Y52483D01*
X24368Y51864D01*
X24330Y51244D01*
X26697Y51244D01*
X26734Y51812D01*
X26786Y52379D01*
X26851Y52945D01*
X26929Y53509D01*
X27022Y54071D01*
X27128Y54630D01*
X27248Y55187D01*
X27381Y55741D01*
X27528Y56291D01*
X27688Y56837D01*
X27862Y57380D01*
X28048Y57918D01*
X28248Y58451D01*
X28461Y58979D01*
X28686Y59502D01*
X28924Y60019D01*
X29175Y60530D01*
X29438Y61035D01*
X29714Y61534D01*
X30001Y62025D01*
X30300Y62510D01*
X30612Y62987D01*
X30934Y63456D01*
X31268Y63917D01*
X31613Y64370D01*
X31969Y64814D01*
X32336Y65250D01*
X32714Y65676D01*
X33101Y66094D01*
X33499Y66501D01*
X33906Y66899D01*
X34324Y67286D01*
X34750Y67664D01*
X35186Y68031D01*
X35630Y68387D01*
X36083Y68732D01*
X36544Y69066D01*
X37013Y69388D01*
X37490Y69700D01*
X37975Y69999D01*
X38466Y70286D01*
X38965Y70562D01*
X39470Y70825D01*
X39981Y71076D01*
X40498Y71314D01*
X41021Y71539D01*
X41549Y71752D01*
X42082Y71952D01*
X42620Y72138D01*
X43163Y72312D01*
X43709Y72472D01*
X44259Y72619D01*
X44813Y72752D01*
X45370Y72872D01*
X45929Y72978D01*
X46491Y73071D01*
X47055Y73149D01*
X47621Y73214D01*
X48188Y73266D01*
X48756Y73303D01*
X48756Y70935D01*
X48250Y70899D01*
X47745Y70850D01*
X47241Y70790D01*
X46739Y70717D01*
X46238Y70632D01*
X45740Y70535D01*
X45244Y70426D01*
X44751Y70305D01*
X44262Y70172D01*
X43775Y70027D01*
X43292Y69870D01*
X42813Y69702D01*
X42339Y69523D01*
X41869Y69331D01*
X41403Y69129D01*
X40943Y68915D01*
X40488Y68691D01*
X40038Y68455D01*
X39594Y68208D01*
X39157Y67951D01*
X38726Y67684D01*
X38301Y67406D01*
X37883Y67117D01*
X37472Y66819D01*
X37069Y66511D01*
X36673Y66193D01*
X36285Y65866D01*
X35905Y65530D01*
X35534Y65184D01*
X35171Y64829D01*
X34816Y64466D01*
X34470Y64095D01*
X34134Y63715D01*
X33807Y63327D01*
X33489Y62931D01*
X33181Y62528D01*
X32883Y62117D01*
X32594Y61699D01*
X32316Y61274D01*
X32049Y60843D01*
X31792Y60406D01*
X31545Y59962D01*
X31309Y59512D01*
X31085Y59057D01*
X30871Y58597D01*
X30669Y58131D01*
X30477Y57661D01*
X30298Y57187D01*
X30130Y56708D01*
X29973Y56225D01*
X29828Y55738D01*
X29695Y55249D01*
X29574Y54756D01*
X29465Y54260D01*
X29368Y53762D01*
X29283Y53261D01*
X29210Y52759D01*
X29150Y52255D01*
X29101Y51750D01*
X29065Y51244D01*
X31434Y51244D01*
X31469Y51695D01*
X31516Y52146D01*
X31574Y52596D01*
X31643Y53044D01*
X31722Y53490D01*
X31813Y53934D01*
X31914Y54376D01*
X32026Y54815D01*
X32148Y55251D01*
X32282Y55684D01*
X32425Y56114D01*
X32579Y56540D01*
X32744Y56963D01*
X32918Y57381D01*
X33103Y57795D01*
X33298Y58204D01*
X33503Y58608D01*
X33717Y59008D01*
X33942Y59401D01*
X34175Y59790D01*
X34418Y60172D01*
X34671Y60549D01*
X34932Y60919D01*
X35203Y61283D01*
X35482Y61640D01*
X35770Y61990D01*
X36066Y62333D01*
X36370Y62668D01*
X36683Y62997D01*
X37003Y63317D01*
X37332Y63630D01*
X37667Y63934D01*
X38010Y64230D01*
X38360Y64518D01*
X38717Y64797D01*
X39081Y65068D01*
X39451Y65329D01*
X39828Y65582D01*
X40210Y65825D01*
X40599Y66058D01*
X40992Y66283D01*
X41392Y66497D01*
X41796Y66702D01*
X42205Y66897D01*
X42619Y67082D01*
X43037Y67256D01*
X43460Y67421D01*
X43886Y67575D01*
X44316Y67718D01*
X44749Y67852D01*
X45185Y67974D01*
X45624Y68086D01*
X46066Y68187D01*
X46510Y68278D01*
X46956Y68357D01*
X47404Y68426D01*
X47854Y68484D01*
X48305Y68531D01*
X48756Y68566D01*
X48757Y66196D01*
X48361Y66161D01*
X47967Y66116D01*
X47574Y66062D01*
X47182Y65998D01*
X46792Y65924D01*
X46403Y65841D01*
X46017Y65748D01*
X45634Y65646D01*
X45253Y65535D01*
X44874Y65414D01*
X44499Y65284D01*
X44127Y65145D01*
X43759Y64997D01*
X43394Y64840D01*
X43034Y64674D01*
X42677Y64500D01*
X42325Y64316D01*
X41977Y64125D01*
X41635Y63924D01*
X41297Y63716D01*
X40964Y63499D01*
X40637Y63274D01*
X40315Y63041D01*
X40000Y62801D01*
X39690Y62553D01*
X39386Y62297D01*
X39089Y62034D01*
X38798Y61764D01*
X38514Y61486D01*
X38236Y61202D01*
X37966Y60911D01*
X37703Y60614D01*
X37447Y60310D01*
X37199Y60000D01*
X36959Y59685D01*
X36726Y59363D01*
X36501Y59036D01*
X36284Y58703D01*
X36076Y58365D01*
X35875Y58023D01*
X35684Y57675D01*
X35500Y57323D01*
X35326Y56966D01*
X35160Y56606D01*
X35003Y56241D01*
X34855Y55873D01*
X34716Y55501D01*
X34586Y55126D01*
X34465Y54747D01*
X34354Y54366D01*
X34252Y53983D01*
X34159Y53597D01*
X34076Y53208D01*
X34002Y52818D01*
X33938Y52426D01*
X33884Y52033D01*
X33839Y51639D01*
X33804Y51243D01*
X36176Y51243D01*
X36210Y51580D01*
X36253Y51916D01*
X36304Y52251D01*
X36363Y52585D01*
X36430Y52917D01*
X36505Y53247D01*
X36588Y53576D01*
X36680Y53902D01*
X36779Y54226D01*
X36886Y54547D01*
X37001Y54866D01*
X37124Y55182D01*
X37254Y55495D01*
X37392Y55804D01*
X37537Y56110D01*
X37690Y56413D01*
X37850Y56711D01*
X38018Y57006D01*
X38192Y57296D01*
X38374Y57582D01*
X38562Y57864D01*
X38758Y58141D01*
X38960Y58413D01*
X39169Y58679D01*
X39384Y58941D01*
X39605Y59198D01*
X39833Y59449D01*
X40066Y59694D01*
X40306Y59934D01*
X40551Y60167D01*
X40802Y60395D01*
X41059Y60616D01*
X41321Y60831D01*
X41587Y61040D01*
X41859Y61242D01*
X42136Y61438D01*
X42418Y61626D01*
X42704Y61808D01*
X42994Y61982D01*
X43289Y62150D01*
X43587Y62310D01*
X43890Y62463D01*
X44196Y62608D01*
X44505Y62746D01*
X44818Y62876D01*
X45134Y62999D01*
X45453Y63114D01*
X45774Y63221D01*
X46098Y63320D01*
X46424Y63412D01*
X46753Y63495D01*
X47083Y63570D01*
X47415Y63637D01*
X47749Y63696D01*
X48084Y63747D01*
X48420Y63790D01*
X48757Y63824D01*
X48758Y61449D01*
X48481Y61415D01*
X48206Y61375D01*
X47931Y61329D01*
X47658Y61275D01*
X47386Y61215D01*
X47115Y61149D01*
X46846Y61076D01*
X46579Y60996D01*
X46314Y60910D01*
X46052Y60818D01*
X45791Y60719D01*
X45533Y60614D01*
X45278Y60503D01*
X45025Y60386D01*
X44775Y60262D01*
X44528Y60133D01*
X44285Y59998D01*
X44045Y59857D01*
X43808Y59710D01*
X43575Y59557D01*
X43346Y59399D01*
X43120Y59235D01*
X42899Y59066D01*
X42682Y58892D01*
X42469Y58712D01*
X42260Y58527D01*
X42056Y58338D01*
X41857Y58143D01*
X41662Y57944D01*
X41473Y57740D01*
X41288Y57531D01*
X41108Y57318D01*
X40934Y57101D01*
X40765Y56880D01*
X40601Y56654D01*
X40443Y56425D01*
X40290Y56192D01*
X40143Y55955D01*
X40002Y55715D01*
X39867Y55472D01*
X39738Y55225D01*
X39614Y54975D01*
X39497Y54722D01*
X39386Y54467D01*
X39281Y54209D01*
X39182Y53948D01*
X39090Y53686D01*
X39004Y53421D01*
X38924Y53154D01*
X38851Y52885D01*
X38785Y52614D01*
X38725Y52342D01*
X38671Y52069D01*
X38625Y51794D01*
X38585Y51519D01*
X38551Y51242D01*
X51244Y17232D02*
X51241Y39686D01*
X51242Y39685D02*
X51491Y39719D01*
X51739Y39758D01*
X51987Y39803D01*
X52233Y39854D01*
X52478Y39911D01*
X52721Y39974D01*
X52963Y40042D01*
X53203Y40117D01*
X53441Y40198D01*
X53678Y40284D01*
X53912Y40376D01*
X54143Y40473D01*
X54373Y40576D01*
X54600Y40685D01*
X54824Y40799D01*
X55045Y40918D01*
X55263Y41043D01*
X55478Y41173D01*
X55691Y41308D01*
X55899Y41448D01*
X56104Y41594D01*
X56306Y41744D01*
X56504Y41899D01*
X56698Y42059D01*
X56888Y42223D01*
X57075Y42392D01*
X57257Y42566D01*
X57434Y42743D01*
X57608Y42925D01*
X57777Y43112D01*
X57941Y43302D01*
X58101Y43496D01*
X58256Y43694D01*
X58406Y43896D01*
X58552Y44101D01*
X58692Y44309D01*
X58827Y44522D01*
X58957Y44737D01*
X59082Y44955D01*
X59201Y45176D01*
X59315Y45400D01*
X59424Y45627D01*
X59527Y45857D01*
X59624Y46088D01*
X59716Y46322D01*
X59802Y46559D01*
X59883Y46797D01*
X59958Y47037D01*
X60026Y47279D01*
X60089Y47522D01*
X60146Y47767D01*
X60197Y48013D01*
X60242Y48261D01*
X60281Y48509D01*
X60315Y48758D01*
X82768Y48756D01*
X82728Y47953D01*
X82668Y47152D01*
X82588Y46352D01*
X82489Y45555D01*
X82371Y44760D01*
X82233Y43968D01*
X82075Y43180D01*
X81898Y42396D01*
X81702Y41617D01*
X81487Y40843D01*
X81254Y40074D01*
X81001Y39311D01*
X80730Y38555D01*
X80440Y37805D01*
X80132Y37063D01*
X79806Y36328D01*
X79462Y35602D01*
X79100Y34884D01*
X78721Y34176D01*
X78325Y33477D01*
X77912Y32788D01*
X77481Y32109D01*
X77035Y31441D01*
X76572Y30784D01*
X76093Y30139D01*
X75599Y29505D01*
X75089Y28884D01*
X74564Y28276D01*
X74024Y27680D01*
X73470Y27098D01*
X72902Y26530D01*
X72320Y25976D01*
X71724Y25436D01*
X71116Y24911D01*
X70495Y24401D01*
X69861Y23907D01*
X69216Y23428D01*
X68559Y22965D01*
X67891Y22519D01*
X67212Y22088D01*
X66523Y21675D01*
X65824Y21279D01*
X65116Y20900D01*
X64398Y20538D01*
X63672Y20194D01*
X62937Y19868D01*
X62195Y19560D01*
X61445Y19270D01*
X60689Y18999D01*
X59926Y18746D01*
X59157Y18513D01*
X58383Y18298D01*
X57604Y18102D01*
X56820Y17925D01*
X56032Y17767D01*
X55240Y17629D01*
X54445Y17511D01*
X53648Y17412D01*
X52848Y17332D01*
X52047Y17272D01*
X51244Y17232D01*
X51244Y19597D01*
X51986Y19637D01*
X52726Y19694D01*
X53465Y19770D01*
X54202Y19864D01*
X54936Y19975D01*
X55668Y20104D01*
X56396Y20252D01*
X57120Y20417D01*
X57840Y20599D01*
X58555Y20799D01*
X59265Y21017D01*
X59970Y21252D01*
X60668Y21504D01*
X61361Y21772D01*
X62046Y22058D01*
X62725Y22360D01*
X63396Y22679D01*
X64058Y23014D01*
X64713Y23366D01*
X65359Y23733D01*
X65995Y24115D01*
X66622Y24513D01*
X67239Y24927D01*
X67846Y25355D01*
X68442Y25798D01*
X69028Y26255D01*
X69601Y26727D01*
X70164Y27212D01*
X70714Y27711D01*
X71252Y28223D01*
X71777Y28748D01*
X72289Y29286D01*
X72788Y29836D01*
X73273Y30399D01*
X73745Y30972D01*
X74202Y31558D01*
X74645Y32154D01*
X75073Y32761D01*
X75487Y33378D01*
X75885Y34005D01*
X76267Y34641D01*
X76634Y35287D01*
X76986Y35942D01*
X77321Y36604D01*
X77640Y37275D01*
X77942Y37954D01*
X78228Y38639D01*
X78496Y39332D01*
X78748Y40030D01*
X78983Y40735D01*
X79201Y41445D01*
X79401Y42160D01*
X79583Y42880D01*
X79748Y43604D01*
X79896Y44332D01*
X80025Y45064D01*
X80136Y45798D01*
X80230Y46535D01*
X80306Y47274D01*
X80363Y48014D01*
X80403Y48756D01*
X78036Y48756D01*
X77998Y48075D01*
X77943Y47396D01*
X77871Y46717D01*
X77783Y46041D01*
X77679Y45367D01*
X77558Y44696D01*
X77421Y44028D01*
X77268Y43364D01*
X77099Y42704D01*
X76914Y42047D01*
X76712Y41396D01*
X76496Y40749D01*
X76263Y40108D01*
X76015Y39473D01*
X75752Y38844D01*
X75473Y38222D01*
X75179Y37607D01*
X74871Y36999D01*
X74548Y36398D01*
X74210Y35806D01*
X73858Y35222D01*
X73492Y34647D01*
X73112Y34080D01*
X72718Y33524D01*
X72311Y32977D01*
X71891Y32440D01*
X71458Y31913D01*
X71012Y31397D01*
X70554Y30892D01*
X70084Y30398D01*
X69602Y29916D01*
X69108Y29446D01*
X68603Y28988D01*
X68087Y28542D01*
X67560Y28109D01*
X67023Y27689D01*
X66476Y27282D01*
X65920Y26888D01*
X65353Y26508D01*
X64778Y26142D01*
X64194Y25790D01*
X63602Y25452D01*
X63001Y25129D01*
X62393Y24821D01*
X61778Y24527D01*
X61156Y24248D01*
X60527Y23985D01*
X59892Y23737D01*
X59251Y23504D01*
X58604Y23288D01*
X57953Y23086D01*
X57296Y22901D01*
X56636Y22732D01*
X55972Y22579D01*
X55304Y22442D01*
X54633Y22321D01*
X53959Y22217D01*
X53283Y22129D01*
X52604Y22057D01*
X51925Y22002D01*
X51244Y21964D01*
X51244Y24330D01*
X51864Y24368D01*
X52483Y24420D01*
X53100Y24488D01*
X53715Y24570D01*
X54329Y24667D01*
X54940Y24779D01*
X55547Y24906D01*
X56152Y25047D01*
X56753Y25203D01*
X57350Y25374D01*
X57943Y25558D01*
X58531Y25757D01*
X59115Y25971D01*
X59693Y26198D01*
X60265Y26439D01*
X60831Y26694D01*
X61391Y26962D01*
X61944Y27244D01*
X62491Y27539D01*
X63030Y27848D01*
X63561Y28169D01*
X64084Y28503D01*
X64600Y28850D01*
X65106Y29209D01*
X65604Y29580D01*
X66093Y29963D01*
X66573Y30357D01*
X67042Y30763D01*
X67502Y31181D01*
X67952Y31609D01*
X68391Y32048D01*
X68819Y32498D01*
X69237Y32958D01*
X69643Y33427D01*
X70037Y33907D01*
X70420Y34396D01*
X70791Y34894D01*
X71150Y35400D01*
X71497Y35916D01*
X71831Y36439D01*
X72152Y36970D01*
X72461Y37509D01*
X72756Y38056D01*
X73038Y38609D01*
X73306Y39169D01*
X73561Y39735D01*
X73802Y40307D01*
X74029Y40885D01*
X74243Y41469D01*
X74442Y42057D01*
X74626Y42650D01*
X74797Y43247D01*
X74953Y43848D01*
X75094Y44453D01*
X75221Y45060D01*
X75333Y45671D01*
X75430Y46285D01*
X75512Y46900D01*
X75580Y47517D01*
X75632Y48136D01*
X75670Y48756D01*
X73303Y48756D01*
X73266Y48188D01*
X73214Y47621D01*
X73149Y47055D01*
X73071Y46491D01*
X72978Y45929D01*
X72872Y45370D01*
X72752Y44813D01*
X72619Y44259D01*
X72472Y43709D01*
X72312Y43163D01*
X72138Y42620D01*
X71952Y42082D01*
X71752Y41549D01*
X71539Y41021D01*
X71314Y40498D01*
X71076Y39981D01*
X70825Y39470D01*
X70562Y38965D01*
X70286Y38466D01*
X69999Y37975D01*
X69700Y37490D01*
X69388Y37013D01*
X69066Y36544D01*
X68732Y36083D01*
X68387Y35630D01*
X68031Y35186D01*
X67664Y34750D01*
X67286Y34324D01*
X66899Y33906D01*
X66501Y33499D01*
X66094Y33101D01*
X65676Y32714D01*
X65250Y32336D01*
X64814Y31969D01*
X64370Y31613D01*
X63917Y31268D01*
X63456Y30934D01*
X62987Y30612D01*
X62510Y30300D01*
X62025Y30001D01*
X61534Y29714D01*
X61035Y29438D01*
X60530Y29175D01*
X60019Y28924D01*
X59502Y28686D01*
X58979Y28461D01*
X58451Y28248D01*
X57918Y28048D01*
X57380Y27862D01*
X56837Y27688D01*
X56291Y27528D01*
X55741Y27381D01*
X55187Y27248D01*
X54630Y27128D01*
X54071Y27022D01*
X53509Y26929D01*
X52945Y26851D01*
X52379Y26786D01*
X51812Y26734D01*
X51244Y26697D01*
X51244Y29065D01*
X51750Y29101D01*
X52255Y29150D01*
X52759Y29210D01*
X53261Y29283D01*
X53762Y29368D01*
X54260Y29465D01*
X54756Y29574D01*
X55249Y29695D01*
X55738Y29828D01*
X56225Y29973D01*
X56708Y30130D01*
X57187Y30298D01*
X57661Y30477D01*
X58131Y30669D01*
X58597Y30871D01*
X59057Y31085D01*
X59512Y31309D01*
X59962Y31545D01*
X60406Y31792D01*
X60843Y32049D01*
X61274Y32316D01*
X61699Y32594D01*
X62117Y32883D01*
X62528Y33181D01*
X62931Y33489D01*
X63327Y33807D01*
X63715Y34134D01*
X64095Y34470D01*
X64466Y34816D01*
X64829Y35171D01*
X65184Y35534D01*
X65530Y35905D01*
X65866Y36285D01*
X66193Y36673D01*
X66511Y37069D01*
X66819Y37472D01*
X67117Y37883D01*
X67406Y38301D01*
X67684Y38726D01*
X67951Y39157D01*
X68208Y39594D01*
X68455Y40038D01*
X68691Y40488D01*
X68915Y40943D01*
X69129Y41403D01*
X69331Y41869D01*
X69523Y42339D01*
X69702Y42813D01*
X69870Y43292D01*
X70027Y43775D01*
X70172Y44262D01*
X70305Y44751D01*
X70426Y45244D01*
X70535Y45740D01*
X70632Y46238D01*
X70717Y46739D01*
X70790Y47241D01*
X70850Y47745D01*
X70899Y48250D01*
X70935Y48756D01*
X68566Y48756D01*
X68531Y48305D01*
X68484Y47854D01*
X68426Y47404D01*
X68357Y46956D01*
X68278Y46510D01*
X68187Y46066D01*
X68086Y45624D01*
X67974Y45185D01*
X67852Y44749D01*
X67718Y44316D01*
X67575Y43886D01*
X67421Y43460D01*
X67256Y43037D01*
X67082Y42619D01*
X66897Y42205D01*
X66702Y41796D01*
X66497Y41392D01*
X66283Y40992D01*
X66058Y40599D01*
X65825Y40210D01*
X65582Y39828D01*
X65329Y39451D01*
X65068Y39081D01*
X64797Y38717D01*
X64518Y38360D01*
X64230Y38010D01*
X63934Y37667D01*
X63630Y37332D01*
X63317Y37003D01*
X62997Y36683D01*
X62668Y36370D01*
X62333Y36066D01*
X61990Y35770D01*
X61640Y35482D01*
X61283Y35203D01*
X60919Y34932D01*
X60549Y34671D01*
X60172Y34418D01*
X59790Y34175D01*
X59401Y33942D01*
X59008Y33717D01*
X58608Y33503D01*
X58204Y33298D01*
X57795Y33103D01*
X57381Y32918D01*
X56963Y32744D01*
X56540Y32579D01*
X56114Y32425D01*
X55684Y32282D01*
X55251Y32148D01*
X54815Y32026D01*
X54376Y31914D01*
X53934Y31813D01*
X53490Y31722D01*
X53044Y31643D01*
X52596Y31574D01*
X52146Y31516D01*
X51695Y31469D01*
X51244Y31434D01*
X51243Y33804D01*
X51639Y33839D01*
X52033Y33884D01*
X52426Y33938D01*
X52818Y34002D01*
X53208Y34076D01*
X53597Y34159D01*
X53983Y34252D01*
X54366Y34354D01*
X54747Y34465D01*
X55126Y34586D01*
X55501Y34716D01*
X55873Y34855D01*
X56241Y35003D01*
X56606Y35160D01*
X56966Y35326D01*
X57323Y35500D01*
X57675Y35684D01*
X58023Y35875D01*
X58365Y36076D01*
X58703Y36284D01*
X59036Y36501D01*
X59363Y36726D01*
X59685Y36959D01*
X60000Y37199D01*
X60310Y37447D01*
X60614Y37703D01*
X60911Y37966D01*
X61202Y38236D01*
X61486Y38514D01*
X61764Y38798D01*
X62034Y39089D01*
X62297Y39386D01*
X62553Y39690D01*
X62801Y40000D01*
X63041Y40315D01*
X63274Y40637D01*
X63499Y40964D01*
X63716Y41297D01*
X63924Y41635D01*
X64125Y41977D01*
X64316Y42325D01*
X64500Y42677D01*
X64674Y43034D01*
X64840Y43394D01*
X64997Y43759D01*
X65145Y44127D01*
X65284Y44499D01*
X65414Y44874D01*
X65535Y45253D01*
X65646Y45634D01*
X65748Y46017D01*
X65841Y46403D01*
X65924Y46792D01*
X65998Y47182D01*
X66062Y47574D01*
X66116Y47967D01*
X66161Y48361D01*
X66196Y48757D01*
X63824Y48757D01*
X63790Y48420D01*
X63747Y48084D01*
X63696Y47749D01*
X63637Y47415D01*
X63570Y47083D01*
X63495Y46753D01*
X63412Y46424D01*
X63320Y46098D01*
X63221Y45774D01*
X63114Y45453D01*
X62999Y45134D01*
X62876Y44818D01*
X62746Y44505D01*
X62608Y44196D01*
X62463Y43890D01*
X62310Y43587D01*
X62150Y43289D01*
X61982Y42994D01*
X61808Y42704D01*
X61626Y42418D01*
X61438Y42136D01*
X61242Y41859D01*
X61040Y41587D01*
X60831Y41321D01*
X60616Y41059D01*
X60395Y40802D01*
X60167Y40551D01*
X59934Y40306D01*
X59694Y40066D01*
X59449Y39833D01*
X59198Y39605D01*
X58941Y39384D01*
X58679Y39169D01*
X58413Y38960D01*
X58141Y38758D01*
X57864Y38562D01*
X57582Y38374D01*
X57296Y38192D01*
X57006Y38018D01*
X56711Y37850D01*
X56413Y37690D01*
X56110Y37537D01*
X55804Y37392D01*
X55495Y37254D01*
X55182Y37124D01*
X54866Y37001D01*
X54547Y36886D01*
X54226Y36779D01*
X53902Y36680D01*
X53576Y36588D01*
X53247Y36505D01*
X52917Y36430D01*
X52585Y36363D01*
X52251Y36304D01*
X51916Y36253D01*
X51580Y36210D01*
X51243Y36176D01*
X51242Y38551D01*
X51519Y38585D01*
X51794Y38625D01*
X52069Y38671D01*
X52342Y38725D01*
X52614Y38785D01*
X52885Y38851D01*
X53154Y38924D01*
X53421Y39004D01*
X53686Y39090D01*
X53948Y39182D01*
X54209Y39281D01*
X54467Y39386D01*
X54722Y39497D01*
X54975Y39614D01*
X55225Y39738D01*
X55472Y39867D01*
X55715Y40002D01*
X55955Y40143D01*
X56192Y40290D01*
X56425Y40443D01*
X56654Y40601D01*
X56880Y40765D01*
X57101Y40934D01*
X57318Y41108D01*
X57531Y41288D01*
X57740Y41473D01*
X57944Y41662D01*
X58143Y41857D01*
X58338Y42056D01*
X58527Y42260D01*
X58712Y42469D01*
X58892Y42682D01*
X59066Y42899D01*
X59235Y43120D01*
X59399Y43346D01*
X59557Y43575D01*
X59710Y43808D01*
X59857Y44045D01*
X59998Y44285D01*
X60133Y44528D01*
X60262Y44775D01*
X60386Y45025D01*
X60503Y45278D01*
X60614Y45533D01*
X60719Y45791D01*
X60818Y46052D01*
X60910Y46314D01*
X60996Y46579D01*
X61076Y46846D01*
X61149Y47115D01*
X61215Y47386D01*
X61275Y47658D01*
X61329Y47931D01*
X61375Y48206D01*
X61415Y48481D01*
X61449Y48758D01*
D13*
X15710Y50000D02*
X15720Y50842D01*
X15751Y51683D01*
X15803Y52523D01*
X15875Y53361D01*
X15968Y54197D01*
X16081Y55031D01*
X16215Y55862D01*
X16369Y56690D01*
X16543Y57513D01*
X16738Y58332D01*
X16952Y59146D01*
X17187Y59954D01*
X17441Y60756D01*
X17714Y61552D01*
X18008Y62341D01*
X18320Y63122D01*
X18652Y63896D01*
X19002Y64661D01*
X19371Y65417D01*
X19759Y66164D01*
X20165Y66901D01*
X20588Y67629D01*
X21030Y68345D01*
X21489Y69051D01*
X21965Y69744D01*
X22458Y70427D01*
X22968Y71096D01*
X23493Y71753D01*
X24035Y72397D01*
X24593Y73028D01*
X25166Y73644D01*
X25753Y74247D01*
X26356Y74834D01*
X26972Y75407D01*
X27603Y75965D01*
X28247Y76507D01*
X28904Y77032D01*
X29573Y77542D01*
X30256Y78035D01*
X30949Y78511D01*
X31655Y78970D01*
X32371Y79412D01*
X33099Y79835D01*
X33836Y80241D01*
X34583Y80629D01*
X35339Y80998D01*
X36104Y81348D01*
X36878Y81680D01*
X37659Y81992D01*
X38448Y82286D01*
X39244Y82559D01*
X40046Y82813D01*
X40854Y83048D01*
X41668Y83262D01*
X42487Y83457D01*
X43310Y83631D01*
X44138Y83785D01*
X44969Y83919D01*
X45803Y84032D01*
X46639Y84125D01*
X47477Y84197D01*
X48317Y84249D01*
X49158Y84280D01*
X50000Y84290D01*
X50842Y84280D01*
X51683Y84249D01*
X52523Y84197D01*
X53361Y84125D01*
X54197Y84032D01*
X55031Y83919D01*
X55862Y83785D01*
X56690Y83631D01*
X57513Y83457D01*
X58332Y83262D01*
X59146Y83048D01*
X59954Y82813D01*
X60756Y82559D01*
X61552Y82286D01*
X62341Y81992D01*
X63122Y81680D01*
X63896Y81348D01*
X64661Y80998D01*
X65417Y80629D01*
X66164Y80241D01*
X66901Y79835D01*
X67629Y79412D01*
X68345Y78970D01*
X69051Y78511D01*
X69744Y78035D01*
X70427Y77542D01*
X71096Y77032D01*
X71753Y76507D01*
X72397Y75965D01*
X73028Y75407D01*
X73644Y74834D01*
X74247Y74247D01*
X74834Y73644D01*
X75407Y73028D01*
X75965Y72397D01*
X76507Y71753D01*
X77032Y71096D01*
X77542Y70427D01*
X78035Y69744D01*
X78511Y69051D01*
X78970Y68345D01*
X79412Y67629D01*
X79835Y66901D01*
X80241Y66164D01*
X80629Y65417D01*
X80998Y64661D01*
X81348Y63896D01*
X81680Y63122D01*
X81992Y62341D01*
X82286Y61552D01*
X82559Y60756D01*
X82813Y59954D01*
X83048Y59146D01*
X83262Y58332D01*
X83457Y57513D01*
X83631Y56690D01*
X83785Y55862D01*
X83919Y55031D01*
X84032Y54197D01*
X84125Y53361D01*
X84197Y52523D01*
X84249Y51683D01*
X84280Y50842D01*
X84290Y50000D01*
X84280Y49158D01*
X84249Y48317D01*
X84197Y47477D01*
X84125Y46639D01*
X84032Y45803D01*
X83919Y44969D01*
X83785Y44138D01*
X83631Y43310D01*
X83457Y42487D01*
X83262Y41668D01*
X83048Y40854D01*
X82813Y40046D01*
X82559Y39244D01*
X82286Y38448D01*
X81992Y37659D01*
X81680Y36878D01*
X81348Y36104D01*
X80998Y35339D01*
X80629Y34583D01*
X80241Y33836D01*
X79835Y33099D01*
X79412Y32371D01*
X78970Y31655D01*
X78511Y30949D01*
X78035Y30256D01*
X77542Y29573D01*
X77032Y28904D01*
X76507Y28247D01*
X75965Y27603D01*
X75407Y26972D01*
X74834Y26356D01*
X74247Y25753D01*
X73644Y25166D01*
X73028Y24593D01*
X72397Y24035D01*
X71753Y23493D01*
X71096Y22968D01*
X70427Y22458D01*
X69744Y21965D01*
X69051Y21489D01*
X68345Y21030D01*
X67629Y20588D01*
X66901Y20165D01*
X66164Y19759D01*
X65417Y19371D01*
X64661Y19002D01*
X63896Y18652D01*
X63122Y18320D01*
X62341Y18008D01*
X61552Y17714D01*
X60756Y17441D01*
X59954Y17187D01*
X59146Y16952D01*
X58332Y16738D01*
X57513Y16543D01*
X56690Y16369D01*
X55862Y16215D01*
X55031Y16081D01*
X54197Y15968D01*
X53361Y15875D01*
X52523Y15803D01*
X51683Y15751D01*
X50842Y15720D01*
X50000Y15710D01*
X49158Y15720D01*
X48317Y15751D01*
X47477Y15803D01*
X46639Y15875D01*
X45803Y15968D01*
X44969Y16081D01*
X44138Y16215D01*
X43310Y16369D01*
X42487Y16543D01*
X41668Y16738D01*
X40854Y16952D01*
X40046Y17187D01*
X39244Y17441D01*
X38448Y17714D01*
X37659Y18008D01*
X36878Y18320D01*
X36104Y18652D01*
X35339Y19002D01*
X34583Y19371D01*
X33836Y19759D01*
X33099Y20165D01*
X32371Y20588D01*
X31655Y21030D01*
X30949Y21489D01*
X30256Y21965D01*
X29573Y22458D01*
X28904Y22968D01*
X28247Y23493D01*
X27603Y24035D01*
X26972Y24593D01*
X26356Y25166D01*
X25753Y25753D01*
X25166Y26356D01*
X24593Y26972D01*
X24035Y27603D01*
X23493Y28247D01*
X22968Y28904D01*
X22458Y29573D01*
X21965Y30256D01*
X21489Y30949D01*
X21030Y31655D01*
X20588Y32371D01*
X20165Y33099D01*
X19759Y33836D01*
X19371Y34583D01*
X19002Y35339D01*
X18652Y36104D01*
X18320Y36878D01*
X18008Y37659D01*
X17714Y38448D01*
X17441Y39244D01*
X17187Y40046D01*
X16952Y40854D01*
X16738Y41668D01*
X16543Y42487D01*
X16369Y43310D01*
X16215Y44138D01*
X16081Y44969D01*
X15968Y45803D01*
X15875Y46639D01*
X15803Y47477D01*
X15751Y48317D01*
X15720Y49158D01*
X15710Y50000D01*
D14*
X42380Y50000D02*
X42382Y50187D01*
X42389Y50374D01*
X42401Y50561D01*
X42417Y50747D01*
X42437Y50933D01*
X42462Y51118D01*
X42492Y51303D01*
X42526Y51487D01*
X42565Y51670D01*
X42608Y51852D01*
X42656Y52032D01*
X42708Y52212D01*
X42765Y52390D01*
X42825Y52567D01*
X42891Y52742D01*
X42960Y52916D01*
X43034Y53088D01*
X43112Y53258D01*
X43194Y53426D01*
X43280Y53592D01*
X43370Y53756D01*
X43464Y53917D01*
X43562Y54077D01*
X43664Y54233D01*
X43770Y54388D01*
X43880Y54539D01*
X43993Y54688D01*
X44110Y54834D01*
X44230Y54977D01*
X44354Y55117D01*
X44481Y55254D01*
X44612Y55388D01*
X44746Y55519D01*
X44883Y55646D01*
X45023Y55770D01*
X45166Y55890D01*
X45312Y56007D01*
X45461Y56120D01*
X45612Y56230D01*
X45767Y56336D01*
X45923Y56438D01*
X46083Y56536D01*
X46244Y56630D01*
X46408Y56720D01*
X46574Y56806D01*
X46742Y56888D01*
X46912Y56966D01*
X47084Y57040D01*
X47258Y57109D01*
X47433Y57175D01*
X47610Y57235D01*
X47788Y57292D01*
X47968Y57344D01*
X48148Y57392D01*
X48330Y57435D01*
X48513Y57474D01*
X48697Y57508D01*
X48882Y57538D01*
X49067Y57563D01*
X49253Y57583D01*
X49439Y57599D01*
X49626Y57611D01*
X49813Y57618D01*
X50000Y57620D01*
X50187Y57618D01*
X50374Y57611D01*
X50561Y57599D01*
X50747Y57583D01*
X50933Y57563D01*
X51118Y57538D01*
X51303Y57508D01*
X51487Y57474D01*
X51670Y57435D01*
X51852Y57392D01*
X52032Y57344D01*
X52212Y57292D01*
X52390Y57235D01*
X52567Y57175D01*
X52742Y57109D01*
X52916Y57040D01*
X53088Y56966D01*
X53258Y56888D01*
X53426Y56806D01*
X53592Y56720D01*
X53756Y56630D01*
X53917Y56536D01*
X54077Y56438D01*
X54233Y56336D01*
X54388Y56230D01*
X54539Y56120D01*
X54688Y56007D01*
X54834Y55890D01*
X54977Y55770D01*
X55117Y55646D01*
X55254Y55519D01*
X55388Y55388D01*
X55519Y55254D01*
X55646Y55117D01*
X55770Y54977D01*
X55890Y54834D01*
X56007Y54688D01*
X56120Y54539D01*
X56230Y54388D01*
X56336Y54233D01*
X56438Y54077D01*
X56536Y53917D01*
X56630Y53756D01*
X56720Y53592D01*
X56806Y53426D01*
X56888Y53258D01*
X56966Y53088D01*
X57040Y52916D01*
X57109Y52742D01*
X57175Y52567D01*
X57235Y52390D01*
X57292Y52212D01*
X57344Y52032D01*
X57392Y51852D01*
X57435Y51670D01*
X57474Y51487D01*
X57508Y51303D01*
X57538Y51118D01*
X57563Y50933D01*
X57583Y50747D01*
X57599Y50561D01*
X57611Y50374D01*
X57618Y50187D01*
X57620Y50000D01*
X57618Y49813D01*
X57611Y49626D01*
X57599Y49439D01*
X57583Y49253D01*
X57563Y49067D01*
X57538Y48882D01*
X57508Y48697D01*
X57474Y48513D01*
X57435Y48330D01*
X57392Y48148D01*
X57344Y47968D01*
X57292Y47788D01*
X57235Y47610D01*
X57175Y47433D01*
X57109Y47258D01*
X57040Y47084D01*
X56966Y46912D01*
X56888Y46742D01*
X56806Y46574D01*
X56720Y46408D01*
X56630Y46244D01*
X56536Y46083D01*
X56438Y45923D01*
X56336Y45767D01*
X56230Y45612D01*
X56120Y45461D01*
X56007Y45312D01*
X55890Y45166D01*
X55770Y45023D01*
X55646Y44883D01*
X55519Y44746D01*
X55388Y44612D01*
X55254Y44481D01*
X55117Y44354D01*
X54977Y44230D01*
X54834Y44110D01*
X54688Y43993D01*
X54539Y43880D01*
X54388Y43770D01*
X54233Y43664D01*
X54077Y43562D01*
X53917Y43464D01*
X53756Y43370D01*
X53592Y43280D01*
X53426Y43194D01*
X53258Y43112D01*
X53088Y43034D01*
X52916Y42960D01*
X52742Y42891D01*
X52567Y42825D01*
X52390Y42765D01*
X52212Y42708D01*
X52032Y42656D01*
X51852Y42608D01*
X51670Y42565D01*
X51487Y42526D01*
X51303Y42492D01*
X51118Y42462D01*
X50933Y42437D01*
X50747Y42417D01*
X50561Y42401D01*
X50374Y42389D01*
X50187Y42382D01*
X50000Y42380D01*
X49813Y42382D01*
X49626Y42389D01*
X49439Y42401D01*
X49253Y42417D01*
X49067Y42437D01*
X48882Y42462D01*
X48697Y42492D01*
X48513Y42526D01*
X48330Y42565D01*
X48148Y42608D01*
X47968Y42656D01*
X47788Y42708D01*
X47610Y42765D01*
X47433Y42825D01*
X47258Y42891D01*
X47084Y42960D01*
X46912Y43034D01*
X46742Y43112D01*
X46574Y43194D01*
X46408Y43280D01*
X46244Y43370D01*
X46083Y43464D01*
X45923Y43562D01*
X45767Y43664D01*
X45612Y43770D01*
X45461Y43880D01*
X45312Y43993D01*
X45166Y44110D01*
X45023Y44230D01*
X44883Y44354D01*
X44746Y44481D01*
X44612Y44612D01*
X44481Y44746D01*
X44354Y44883D01*
X44230Y45023D01*
X44110Y45166D01*
X43993Y45312D01*
X43880Y45461D01*
X43770Y45612D01*
X43664Y45767D01*
X43562Y45923D01*
X43464Y46083D01*
X43370Y46244D01*
X43280Y46408D01*
X43194Y46574D01*
X43112Y46742D01*
X43034Y46912D01*
X42960Y47084D01*
X42891Y47258D01*
X42825Y47433D01*
X42765Y47610D01*
X42708Y47788D01*
X42656Y47968D01*
X42608Y48148D01*
X42565Y48330D01*
X42526Y48513D01*
X42492Y48697D01*
X42462Y48882D01*
X42437Y49067D01*
X42417Y49253D01*
X42401Y49439D01*
X42389Y49626D01*
X42382Y49813D01*
X42380Y50000D01*
D13*
X33000Y50000D02*
X33005Y50417D01*
X33020Y50834D01*
X33046Y51251D01*
X33082Y51666D01*
X33128Y52081D01*
X33184Y52494D01*
X33250Y52906D01*
X33327Y53317D01*
X33413Y53725D01*
X33509Y54131D01*
X33616Y54534D01*
X33732Y54935D01*
X33858Y55333D01*
X33994Y55727D01*
X34139Y56118D01*
X34294Y56506D01*
X34458Y56889D01*
X34632Y57268D01*
X34815Y57643D01*
X35007Y58014D01*
X35209Y58379D01*
X35419Y58740D01*
X35637Y59095D01*
X35865Y59445D01*
X36101Y59789D01*
X36345Y60127D01*
X36598Y60459D01*
X36859Y60785D01*
X37127Y61104D01*
X37404Y61417D01*
X37688Y61722D01*
X37979Y62021D01*
X38278Y62312D01*
X38583Y62596D01*
X38896Y62873D01*
X39215Y63141D01*
X39541Y63402D01*
X39873Y63655D01*
X40211Y63899D01*
X40555Y64135D01*
X40905Y64363D01*
X41260Y64581D01*
X41621Y64791D01*
X41986Y64993D01*
X42357Y65185D01*
X42732Y65368D01*
X43111Y65542D01*
X43494Y65706D01*
X43882Y65861D01*
X44273Y66006D01*
X44667Y66142D01*
X45065Y66268D01*
X45466Y66384D01*
X45869Y66491D01*
X46275Y66587D01*
X46683Y66673D01*
X47094Y66750D01*
X47506Y66816D01*
X47919Y66872D01*
X48334Y66918D01*
X48749Y66954D01*
X49166Y66980D01*
X49583Y66995D01*
X50000Y67000D01*
X50417Y66995D01*
X50834Y66980D01*
X51251Y66954D01*
X51666Y66918D01*
X52081Y66872D01*
X52494Y66816D01*
X52906Y66750D01*
X53317Y66673D01*
X53725Y66587D01*
X54131Y66491D01*
X54534Y66384D01*
X54935Y66268D01*
X55333Y66142D01*
X55727Y66006D01*
X56118Y65861D01*
X56506Y65706D01*
X56889Y65542D01*
X57268Y65368D01*
X57643Y65185D01*
X58014Y64993D01*
X58379Y64791D01*
X58740Y64581D01*
X59095Y64363D01*
X59445Y64135D01*
X59789Y63899D01*
X60127Y63655D01*
X60459Y63402D01*
X60785Y63141D01*
X61104Y62873D01*
X61417Y62596D01*
X61722Y62312D01*
X62021Y62021D01*
X62312Y61722D01*
X62596Y61417D01*
X62873Y61104D01*
X63141Y60785D01*
X63402Y60459D01*
X63655Y60127D01*
X63899Y59789D01*
X64135Y59445D01*
X64363Y59095D01*
X64581Y58740D01*
X64791Y58379D01*
X64993Y58014D01*
X65185Y57643D01*
X65368Y57268D01*
X65542Y56889D01*
X65706Y56506D01*
X65861Y56118D01*
X66006Y55727D01*
X66142Y55333D01*
X66268Y54935D01*
X66384Y54534D01*
X66491Y54131D01*
X66587Y53725D01*
X66673Y53317D01*
X66750Y52906D01*
X66816Y52494D01*
X66872Y52081D01*
X66918Y51666D01*
X66954Y51251D01*
X66980Y50834D01*
X66995Y50417D01*
X67000Y50000D01*
X66995Y49583D01*
X66980Y49166D01*
X66954Y48749D01*
X66918Y48334D01*
X66872Y47919D01*
X66816Y47506D01*
X66750Y47094D01*
X66673Y46683D01*
X66587Y46275D01*
X66491Y45869D01*
X66384Y45466D01*
X66268Y45065D01*
X66142Y44667D01*
X66006Y44273D01*
X65861Y43882D01*
X65706Y43494D01*
X65542Y43111D01*
X65368Y42732D01*
X65185Y42357D01*
X64993Y41986D01*
X64791Y41621D01*
X64581Y41260D01*
X64363Y40905D01*
X64135Y40555D01*
X63899Y40211D01*
X63655Y39873D01*
X63402Y39541D01*
X63141Y39215D01*
X62873Y38896D01*
X62596Y38583D01*
X62312Y38278D01*
X62021Y37979D01*
X61722Y37688D01*
X61417Y37404D01*
X61104Y37127D01*
X60785Y36859D01*
X60459Y36598D01*
X60127Y36345D01*
X59789Y36101D01*
X59445Y35865D01*
X59095Y35637D01*
X58740Y35419D01*
X58379Y35209D01*
X58014Y35007D01*
X57643Y34815D01*
X57268Y34632D01*
X56889Y34458D01*
X56506Y34294D01*
X56118Y34139D01*
X55727Y33994D01*
X55333Y33858D01*
X54935Y33732D01*
X54534Y33616D01*
X54131Y33509D01*
X53725Y33413D01*
X53317Y33327D01*
X52906Y33250D01*
X52494Y33184D01*
X52081Y33128D01*
X51666Y33082D01*
X51251Y33046D01*
X50834Y33020D01*
X50417Y33005D01*
X50000Y33000D01*
X49583Y33005D01*
X49166Y33020D01*
X48749Y33046D01*
X48334Y33082D01*
X47919Y33128D01*
X47506Y33184D01*
X47094Y33250D01*
X46683Y33327D01*
X46275Y33413D01*
X45869Y33509D01*
X45466Y33616D01*
X45065Y33732D01*
X44667Y33858D01*
X44273Y33994D01*
X43882Y34139D01*
X43494Y34294D01*
X43111Y34458D01*
X42732Y34632D01*
X42357Y34815D01*
X41986Y35007D01*
X41621Y35209D01*
X41260Y35419D01*
X40905Y35637D01*
X40555Y35865D01*
X40211Y36101D01*
X39873Y36345D01*
X39541Y36598D01*
X39215Y36859D01*
X38896Y37127D01*
X38583Y37404D01*
X38278Y37688D01*
X37979Y37979D01*
X37688Y38278D01*
X37404Y38583D01*
X37127Y38896D01*
X36859Y39215D01*
X36598Y39541D01*
X36345Y39873D01*
X36101Y40211D01*
X35865Y40555D01*
X35637Y40905D01*
X35419Y41260D01*
X35209Y41621D01*
X35007Y41986D01*
X34815Y42357D01*
X34632Y42732D01*
X34458Y43111D01*
X34294Y43494D01*
X34139Y43882D01*
X33994Y44273D01*
X33858Y44667D01*
X33732Y45065D01*
X33616Y45466D01*
X33509Y45869D01*
X33413Y46275D01*
X33327Y46683D01*
X33250Y47094D01*
X33184Y47506D01*
X33128Y47919D01*
X33082Y48334D01*
X33046Y48749D01*
X33020Y49166D01*
X33005Y49583D01*
X33000Y50000D01*
D10*
X345710Y50000D02*
X345720Y50842D01*
X345751Y51683D01*
X345803Y52523D01*
X345875Y53361D01*
X345968Y54197D01*
X346081Y55031D01*
X346215Y55862D01*
X346369Y56690D01*
X346543Y57513D01*
X346738Y58332D01*
X346952Y59146D01*
X347187Y59954D01*
X347441Y60756D01*
X347714Y61552D01*
X348008Y62341D01*
X348320Y63122D01*
X348652Y63896D01*
X349002Y64661D01*
X349371Y65417D01*
X349759Y66164D01*
X350165Y66901D01*
X350588Y67629D01*
X351030Y68345D01*
X351489Y69051D01*
X351965Y69744D01*
X352458Y70427D01*
X352968Y71096D01*
X353493Y71753D01*
X354035Y72397D01*
X354593Y73028D01*
X355166Y73644D01*
X355753Y74247D01*
X356356Y74834D01*
X356972Y75407D01*
X357603Y75965D01*
X358247Y76507D01*
X358904Y77032D01*
X359573Y77542D01*
X360256Y78035D01*
X360949Y78511D01*
X361655Y78970D01*
X362371Y79412D01*
X363099Y79835D01*
X363836Y80241D01*
X364583Y80629D01*
X365339Y80998D01*
X366104Y81348D01*
X366878Y81680D01*
X367659Y81992D01*
X368448Y82286D01*
X369244Y82559D01*
X370046Y82813D01*
X370854Y83048D01*
X371668Y83262D01*
X372487Y83457D01*
X373310Y83631D01*
X374138Y83785D01*
X374969Y83919D01*
X375803Y84032D01*
X376639Y84125D01*
X377477Y84197D01*
X378317Y84249D01*
X379158Y84280D01*
X380000Y84290D01*
X380842Y84280D01*
X381683Y84249D01*
X382523Y84197D01*
X383361Y84125D01*
X384197Y84032D01*
X385031Y83919D01*
X385862Y83785D01*
X386690Y83631D01*
X387513Y83457D01*
X388332Y83262D01*
X389146Y83048D01*
X389954Y82813D01*
X390756Y82559D01*
X391552Y82286D01*
X392341Y81992D01*
X393122Y81680D01*
X393896Y81348D01*
X394661Y80998D01*
X395417Y80629D01*
X396164Y80241D01*
X396901Y79835D01*
X397629Y79412D01*
X398345Y78970D01*
X399051Y78511D01*
X399744Y78035D01*
X400427Y77542D01*
X401096Y77032D01*
X401753Y76507D01*
X402397Y75965D01*
X403028Y75407D01*
X403644Y74834D01*
X404247Y74247D01*
X404834Y73644D01*
X405407Y73028D01*
X405965Y72397D01*
X406507Y71753D01*
X407032Y71096D01*
X407542Y70427D01*
X408035Y69744D01*
X408511Y69051D01*
X408970Y68345D01*
X409412Y67629D01*
X409835Y66901D01*
X410241Y66164D01*
X410629Y65417D01*
X410998Y64661D01*
X411348Y63896D01*
X411680Y63122D01*
X411992Y62341D01*
X412286Y61552D01*
X412559Y60756D01*
X412813Y59954D01*
X413048Y59146D01*
X413262Y58332D01*
X413457Y57513D01*
X413631Y56690D01*
X413785Y55862D01*
X413919Y55031D01*
X414032Y54197D01*
X414125Y53361D01*
X414197Y52523D01*
X414249Y51683D01*
X414280Y50842D01*
X414290Y50000D01*
X414280Y49158D01*
X414249Y48317D01*
X414197Y47477D01*
X414125Y46639D01*
X414032Y45803D01*
X413919Y44969D01*
X413785Y44138D01*
X413631Y43310D01*
X413457Y42487D01*
X413262Y41668D01*
X413048Y40854D01*
X412813Y40046D01*
X412559Y39244D01*
X412286Y38448D01*
X411992Y37659D01*
X411680Y36878D01*
X411348Y36104D01*
X410998Y35339D01*
X410629Y34583D01*
X410241Y33836D01*
X409835Y33099D01*
X409412Y32371D01*
X408970Y31655D01*
X408511Y30949D01*
X408035Y30256D01*
X407542Y29573D01*
X407032Y28904D01*
X406507Y28247D01*
X405965Y27603D01*
X405407Y26972D01*
X404834Y26356D01*
X404247Y25753D01*
X403644Y25166D01*
X403028Y24593D01*
X402397Y24035D01*
X401753Y23493D01*
X401096Y22968D01*
X400427Y22458D01*
X399744Y21965D01*
X399051Y21489D01*
X398345Y21030D01*
X397629Y20588D01*
X396901Y20165D01*
X396164Y19759D01*
X395417Y19371D01*
X394661Y19002D01*
X393896Y18652D01*
X393122Y18320D01*
X392341Y18008D01*
X391552Y17714D01*
X390756Y17441D01*
X389954Y17187D01*
X389146Y16952D01*
X388332Y16738D01*
X387513Y16543D01*
X386690Y16369D01*
X385862Y16215D01*
X385031Y16081D01*
X384197Y15968D01*
X383361Y15875D01*
X382523Y15803D01*
X381683Y15751D01*
X380842Y15720D01*
X380000Y15710D01*
X379158Y15720D01*
X378317Y15751D01*
X377477Y15803D01*
X376639Y15875D01*
X375803Y15968D01*
X374969Y16081D01*
X374138Y16215D01*
X373310Y16369D01*
X372487Y16543D01*
X371668Y16738D01*
X370854Y16952D01*
X370046Y17187D01*
X369244Y17441D01*
X368448Y17714D01*
X367659Y18008D01*
X366878Y18320D01*
X366104Y18652D01*
X365339Y19002D01*
X364583Y19371D01*
X363836Y19759D01*
X363099Y20165D01*
X362371Y20588D01*
X361655Y21030D01*
X360949Y21489D01*
X360256Y21965D01*
X359573Y22458D01*
X358904Y22968D01*
X358247Y23493D01*
X357603Y24035D01*
X356972Y24593D01*
X356356Y25166D01*
X355753Y25753D01*
X355166Y26356D01*
X354593Y26972D01*
X354035Y27603D01*
X353493Y28247D01*
X352968Y28904D01*
X352458Y29573D01*
X351965Y30256D01*
X351489Y30949D01*
X351030Y31655D01*
X350588Y32371D01*
X350165Y33099D01*
X349759Y33836D01*
X349371Y34583D01*
X349002Y35339D01*
X348652Y36104D01*
X348320Y36878D01*
X348008Y37659D01*
X347714Y38448D01*
X347441Y39244D01*
X347187Y40046D01*
X346952Y40854D01*
X346738Y41668D01*
X346543Y42487D01*
X346369Y43310D01*
X346215Y44138D01*
X346081Y44969D01*
X345968Y45803D01*
X345875Y46639D01*
X345803Y47477D01*
X345751Y48317D01*
X345720Y49158D01*
X345710Y50000D01*
D11*
X363000Y50000D02*
X363005Y50417D01*
X363020Y50834D01*
X363046Y51251D01*
X363082Y51666D01*
X363128Y52081D01*
X363184Y52494D01*
X363250Y52906D01*
X363327Y53317D01*
X363413Y53725D01*
X363509Y54131D01*
X363616Y54534D01*
X363732Y54935D01*
X363858Y55333D01*
X363994Y55727D01*
X364139Y56118D01*
X364294Y56506D01*
X364458Y56889D01*
X364632Y57268D01*
X364815Y57643D01*
X365007Y58014D01*
X365209Y58379D01*
X365419Y58740D01*
X365637Y59095D01*
X365865Y59445D01*
X366101Y59789D01*
X366345Y60127D01*
X366598Y60459D01*
X366859Y60785D01*
X367127Y61104D01*
X367404Y61417D01*
X367688Y61722D01*
X367979Y62021D01*
X368278Y62312D01*
X368583Y62596D01*
X368896Y62873D01*
X369215Y63141D01*
X369541Y63402D01*
X369873Y63655D01*
X370211Y63899D01*
X370555Y64135D01*
X370905Y64363D01*
X371260Y64581D01*
X371621Y64791D01*
X371986Y64993D01*
X372357Y65185D01*
X372732Y65368D01*
X373111Y65542D01*
X373494Y65706D01*
X373882Y65861D01*
X374273Y66006D01*
X374667Y66142D01*
X375065Y66268D01*
X375466Y66384D01*
X375869Y66491D01*
X376275Y66587D01*
X376683Y66673D01*
X377094Y66750D01*
X377506Y66816D01*
X377919Y66872D01*
X378334Y66918D01*
X378749Y66954D01*
X379166Y66980D01*
X379583Y66995D01*
X380000Y67000D01*
X380417Y66995D01*
X380834Y66980D01*
X381251Y66954D01*
X381666Y66918D01*
X382081Y66872D01*
X382494Y66816D01*
X382906Y66750D01*
X383317Y66673D01*
X383725Y66587D01*
X384131Y66491D01*
X384534Y66384D01*
X384935Y66268D01*
X385333Y66142D01*
X385727Y66006D01*
X386118Y65861D01*
X386506Y65706D01*
X386889Y65542D01*
X387268Y65368D01*
X387643Y65185D01*
X388014Y64993D01*
X388379Y64791D01*
X388740Y64581D01*
X389095Y64363D01*
X389445Y64135D01*
X389789Y63899D01*
X390127Y63655D01*
X390459Y63402D01*
X390785Y63141D01*
X391104Y62873D01*
X391417Y62596D01*
X391722Y62312D01*
X392021Y62021D01*
X392312Y61722D01*
X392596Y61417D01*
X392873Y61104D01*
X393141Y60785D01*
X393402Y60459D01*
X393655Y60127D01*
X393899Y59789D01*
X394135Y59445D01*
X394363Y59095D01*
X394581Y58740D01*
X394791Y58379D01*
X394993Y58014D01*
X395185Y57643D01*
X395368Y57268D01*
X395542Y56889D01*
X395706Y56506D01*
X395861Y56118D01*
X396006Y55727D01*
X396142Y55333D01*
X396268Y54935D01*
X396384Y54534D01*
X396491Y54131D01*
X396587Y53725D01*
X396673Y53317D01*
X396750Y52906D01*
X396816Y52494D01*
X396872Y52081D01*
X396918Y51666D01*
X396954Y51251D01*
X396980Y50834D01*
X396995Y50417D01*
X397000Y50000D01*
X396995Y49583D01*
X396980Y49166D01*
X396954Y48749D01*
X396918Y48334D01*
X396872Y47919D01*
X396816Y47506D01*
X396750Y47094D01*
X396673Y46683D01*
X396587Y46275D01*
X396491Y45869D01*
X396384Y45466D01*
X396268Y45065D01*
X396142Y44667D01*
X396006Y44273D01*
X395861Y43882D01*
X395706Y43494D01*
X395542Y43111D01*
X395368Y42732D01*
X395185Y42357D01*
X394993Y41986D01*
X394791Y41621D01*
X394581Y41260D01*
X394363Y40905D01*
X394135Y40555D01*
X393899Y40211D01*
X393655Y39873D01*
X393402Y39541D01*
X393141Y39215D01*
X392873Y38896D01*
X392596Y38583D01*
X392312Y38278D01*
X392021Y37979D01*
X391722Y37688D01*
X391417Y37404D01*
X391104Y37127D01*
X390785Y36859D01*
X390459Y36598D01*
X390127Y36345D01*
X389789Y36101D01*
X389445Y35865D01*
X389095Y35637D01*
X388740Y35419D01*
X388379Y35209D01*
X388014Y35007D01*
X387643Y34815D01*
X387268Y34632D01*
X386889Y34458D01*
X386506Y34294D01*
X386118Y34139D01*
X385727Y33994D01*
X385333Y33858D01*
X384935Y33732D01*
X384534Y33616D01*
X384131Y33509D01*
X383725Y33413D01*
X383317Y33327D01*
X382906Y33250D01*
X382494Y33184D01*
X382081Y33128D01*
X381666Y33082D01*
X381251Y33046D01*
X380834Y33020D01*
X380417Y33005D01*
X380000Y33000D01*
X379583Y33005D01*
X379166Y33020D01*
X378749Y33046D01*
X378334Y33082D01*
X377919Y33128D01*
X377506Y33184D01*
X377094Y33250D01*
X376683Y33327D01*
X376275Y33413D01*
X375869Y33509D01*
X375466Y33616D01*
X375065Y33732D01*
X374667Y33858D01*
X374273Y33994D01*
X373882Y34139D01*
X373494Y34294D01*
X373111Y34458D01*
X372732Y34632D01*
X372357Y34815D01*
X371986Y35007D01*
X371621Y35209D01*
X371260Y35419D01*
X370905Y35637D01*
X370555Y35865D01*
X370211Y36101D01*
X369873Y36345D01*
X369541Y36598D01*
X369215Y36859D01*
X368896Y37127D01*
X368583Y37404D01*
X368278Y37688D01*
X367979Y37979D01*
X367688Y38278D01*
X367404Y38583D01*
X367127Y38896D01*
X366859Y39215D01*
X366598Y39541D01*
X366345Y39873D01*
X366101Y40211D01*
X365865Y40555D01*
X365637Y40905D01*
X365419Y41260D01*
X365209Y41621D01*
X365007Y41986D01*
X364815Y42357D01*
X364632Y42732D01*
X364458Y43111D01*
X364294Y43494D01*
X364139Y43882D01*
X363994Y44273D01*
X363858Y44667D01*
X363732Y45065D01*
X363616Y45466D01*
X363509Y45869D01*
X363413Y46275D01*
X363327Y46683D01*
X363250Y47094D01*
X363184Y47506D01*
X363128Y47919D01*
X363082Y48334D01*
X363046Y48749D01*
X363020Y49166D01*
X363005Y49583D01*
X363000Y50000D01*
D12*
X412768Y51244D02*
X390314Y51241D01*
X390315Y51242D02*
X390281Y51491D01*
X390242Y51739D01*
X390197Y51987D01*
X390146Y52233D01*
X390089Y52478D01*
X390026Y52721D01*
X389958Y52963D01*
X389883Y53203D01*
X389802Y53441D01*
X389716Y53678D01*
X389624Y53912D01*
X389527Y54143D01*
X389424Y54373D01*
X389315Y54600D01*
X389201Y54824D01*
X389082Y55045D01*
X388957Y55263D01*
X388827Y55478D01*
X388692Y55691D01*
X388552Y55899D01*
X388406Y56104D01*
X388256Y56306D01*
X388101Y56504D01*
X387941Y56698D01*
X387777Y56888D01*
X387608Y57075D01*
X387434Y57257D01*
X387257Y57434D01*
X387075Y57608D01*
X386888Y57777D01*
X386698Y57941D01*
X386504Y58101D01*
X386306Y58256D01*
X386104Y58406D01*
X385899Y58552D01*
X385691Y58692D01*
X385478Y58827D01*
X385263Y58957D01*
X385045Y59082D01*
X384824Y59201D01*
X384600Y59315D01*
X384373Y59424D01*
X384143Y59527D01*
X383912Y59624D01*
X383678Y59716D01*
X383441Y59802D01*
X383203Y59883D01*
X382963Y59958D01*
X382721Y60026D01*
X382478Y60089D01*
X382233Y60146D01*
X381987Y60197D01*
X381739Y60242D01*
X381491Y60281D01*
X381242Y60315D01*
X381244Y82768D01*
X382047Y82728D01*
X382848Y82668D01*
X383648Y82588D01*
X384445Y82489D01*
X385240Y82371D01*
X386032Y82233D01*
X386820Y82075D01*
X387604Y81898D01*
X388383Y81702D01*
X389157Y81487D01*
X389926Y81254D01*
X390689Y81001D01*
X391445Y80730D01*
X392195Y80440D01*
X392937Y80132D01*
X393672Y79806D01*
X394398Y79462D01*
X395116Y79100D01*
X395824Y78721D01*
X396523Y78325D01*
X397212Y77912D01*
X397891Y77481D01*
X398559Y77035D01*
X399216Y76572D01*
X399861Y76093D01*
X400495Y75599D01*
X401116Y75089D01*
X401724Y74564D01*
X402320Y74024D01*
X402902Y73470D01*
X403470Y72902D01*
X404024Y72320D01*
X404564Y71724D01*
X405089Y71116D01*
X405599Y70495D01*
X406093Y69861D01*
X406572Y69216D01*
X407035Y68559D01*
X407481Y67891D01*
X407912Y67212D01*
X408325Y66523D01*
X408721Y65824D01*
X409100Y65116D01*
X409462Y64398D01*
X409806Y63672D01*
X410132Y62937D01*
X410440Y62195D01*
X410730Y61445D01*
X411001Y60689D01*
X411254Y59926D01*
X411487Y59157D01*
X411702Y58383D01*
X411898Y57604D01*
X412075Y56820D01*
X412233Y56032D01*
X412371Y55240D01*
X412489Y54445D01*
X412588Y53648D01*
X412668Y52848D01*
X412728Y52047D01*
X412768Y51244D01*
X410403Y51244D01*
X410363Y51986D01*
X410306Y52726D01*
X410230Y53465D01*
X410136Y54202D01*
X410025Y54936D01*
X409896Y55668D01*
X409748Y56396D01*
X409583Y57120D01*
X409401Y57840D01*
X409201Y58555D01*
X408983Y59265D01*
X408748Y59970D01*
X408496Y60668D01*
X408228Y61361D01*
X407942Y62046D01*
X407640Y62725D01*
X407321Y63396D01*
X406986Y64058D01*
X406634Y64713D01*
X406267Y65359D01*
X405885Y65995D01*
X405487Y66622D01*
X405073Y67239D01*
X404645Y67846D01*
X404202Y68442D01*
X403745Y69028D01*
X403273Y69601D01*
X402788Y70164D01*
X402289Y70714D01*
X401777Y71252D01*
X401252Y71777D01*
X400714Y72289D01*
X400164Y72788D01*
X399601Y73273D01*
X399028Y73745D01*
X398442Y74202D01*
X397846Y74645D01*
X397239Y75073D01*
X396622Y75487D01*
X395995Y75885D01*
X395359Y76267D01*
X394713Y76634D01*
X394058Y76986D01*
X393396Y77321D01*
X392725Y77640D01*
X392046Y77942D01*
X391361Y78228D01*
X390668Y78496D01*
X389970Y78748D01*
X389265Y78983D01*
X388555Y79201D01*
X387840Y79401D01*
X387120Y79583D01*
X386396Y79748D01*
X385668Y79896D01*
X384936Y80025D01*
X384202Y80136D01*
X383465Y80230D01*
X382726Y80306D01*
X381986Y80363D01*
X381244Y80403D01*
X381244Y78036D01*
X381925Y77998D01*
X382604Y77943D01*
X383283Y77871D01*
X383959Y77783D01*
X384633Y77679D01*
X385304Y77558D01*
X385972Y77421D01*
X386636Y77268D01*
X387296Y77099D01*
X387953Y76914D01*
X388604Y76712D01*
X389251Y76496D01*
X389892Y76263D01*
X390527Y76015D01*
X391156Y75752D01*
X391778Y75473D01*
X392393Y75179D01*
X393001Y74871D01*
X393602Y74548D01*
X394194Y74210D01*
X394778Y73858D01*
X395353Y73492D01*
X395920Y73112D01*
X396476Y72718D01*
X397023Y72311D01*
X397560Y71891D01*
X398087Y71458D01*
X398603Y71012D01*
X399108Y70554D01*
X399602Y70084D01*
X400084Y69602D01*
X400554Y69108D01*
X401012Y68603D01*
X401458Y68087D01*
X401891Y67560D01*
X402311Y67023D01*
X402718Y66476D01*
X403112Y65920D01*
X403492Y65353D01*
X403858Y64778D01*
X404210Y64194D01*
X404548Y63602D01*
X404871Y63001D01*
X405179Y62393D01*
X405473Y61778D01*
X405752Y61156D01*
X406015Y60527D01*
X406263Y59892D01*
X406496Y59251D01*
X406712Y58604D01*
X406914Y57953D01*
X407099Y57296D01*
X407268Y56636D01*
X407421Y55972D01*
X407558Y55304D01*
X407679Y54633D01*
X407783Y53959D01*
X407871Y53283D01*
X407943Y52604D01*
X407998Y51925D01*
X408036Y51244D01*
X405670Y51244D01*
X405632Y51864D01*
X405580Y52483D01*
X405512Y53100D01*
X405430Y53715D01*
X405333Y54329D01*
X405221Y54940D01*
X405094Y55547D01*
X404953Y56152D01*
X404797Y56753D01*
X404626Y57350D01*
X404442Y57943D01*
X404243Y58531D01*
X404029Y59115D01*
X403802Y59693D01*
X403561Y60265D01*
X403306Y60831D01*
X403038Y61391D01*
X402756Y61944D01*
X402461Y62491D01*
X402152Y63030D01*
X401831Y63561D01*
X401497Y64084D01*
X401150Y64600D01*
X400791Y65106D01*
X400420Y65604D01*
X400037Y66093D01*
X399643Y66573D01*
X399237Y67042D01*
X398819Y67502D01*
X398391Y67952D01*
X397952Y68391D01*
X397502Y68819D01*
X397042Y69237D01*
X396573Y69643D01*
X396093Y70037D01*
X395604Y70420D01*
X395106Y70791D01*
X394600Y71150D01*
X394084Y71497D01*
X393561Y71831D01*
X393030Y72152D01*
X392491Y72461D01*
X391944Y72756D01*
X391391Y73038D01*
X390831Y73306D01*
X390265Y73561D01*
X389693Y73802D01*
X389115Y74029D01*
X388531Y74243D01*
X387943Y74442D01*
X387350Y74626D01*
X386753Y74797D01*
X386152Y74953D01*
X385547Y75094D01*
X384940Y75221D01*
X384329Y75333D01*
X383715Y75430D01*
X383100Y75512D01*
X382483Y75580D01*
X381864Y75632D01*
X381244Y75670D01*
X381244Y73303D01*
X381812Y73266D01*
X382379Y73214D01*
X382945Y73149D01*
X383509Y73071D01*
X384071Y72978D01*
X384630Y72872D01*
X385187Y72752D01*
X385741Y72619D01*
X386291Y72472D01*
X386837Y72312D01*
X387380Y72138D01*
X387918Y71952D01*
X388451Y71752D01*
X388979Y71539D01*
X389502Y71314D01*
X390019Y71076D01*
X390530Y70825D01*
X391035Y70562D01*
X391534Y70286D01*
X392025Y69999D01*
X392510Y69700D01*
X392987Y69388D01*
X393456Y69066D01*
X393917Y68732D01*
X394370Y68387D01*
X394814Y68031D01*
X395250Y67664D01*
X395676Y67286D01*
X396094Y66899D01*
X396501Y66501D01*
X396899Y66094D01*
X397286Y65676D01*
X397664Y65250D01*
X398031Y64814D01*
X398387Y64370D01*
X398732Y63917D01*
X399066Y63456D01*
X399388Y62987D01*
X399700Y62510D01*
X399999Y62025D01*
X400286Y61534D01*
X400562Y61035D01*
X400825Y60530D01*
X401076Y60019D01*
X401314Y59502D01*
X401539Y58979D01*
X401752Y58451D01*
X401952Y57918D01*
X402138Y57380D01*
X402312Y56837D01*
X402472Y56291D01*
X402619Y55741D01*
X402752Y55187D01*
X402872Y54630D01*
X402978Y54071D01*
X403071Y53509D01*
X403149Y52945D01*
X403214Y52379D01*
X403266Y51812D01*
X403303Y51244D01*
X400935Y51244D01*
X400899Y51750D01*
X400850Y52255D01*
X400790Y52759D01*
X400717Y53261D01*
X400632Y53762D01*
X400535Y54260D01*
X400426Y54756D01*
X400305Y55249D01*
X400172Y55738D01*
X400027Y56225D01*
X399870Y56708D01*
X399702Y57187D01*
X399523Y57661D01*
X399331Y58131D01*
X399129Y58597D01*
X398915Y59057D01*
X398691Y59512D01*
X398455Y59962D01*
X398208Y60406D01*
X397951Y60843D01*
X397684Y61274D01*
X397406Y61699D01*
X397117Y62117D01*
X396819Y62528D01*
X396511Y62931D01*
X396193Y63327D01*
X395866Y63715D01*
X395530Y64095D01*
X395184Y64466D01*
X394829Y64829D01*
X394466Y65184D01*
X394095Y65530D01*
X393715Y65866D01*
X393327Y66193D01*
X392931Y66511D01*
X392528Y66819D01*
X392117Y67117D01*
X391699Y67406D01*
X391274Y67684D01*
X390843Y67951D01*
X390406Y68208D01*
X389962Y68455D01*
X389512Y68691D01*
X389057Y68915D01*
X388597Y69129D01*
X388131Y69331D01*
X387661Y69523D01*
X387187Y69702D01*
X386708Y69870D01*
X386225Y70027D01*
X385738Y70172D01*
X385249Y70305D01*
X384756Y70426D01*
X384260Y70535D01*
X383762Y70632D01*
X383261Y70717D01*
X382759Y70790D01*
X382255Y70850D01*
X381750Y70899D01*
X381244Y70935D01*
X381244Y68566D01*
X381695Y68531D01*
X382146Y68484D01*
X382596Y68426D01*
X383044Y68357D01*
X383490Y68278D01*
X383934Y68187D01*
X384376Y68086D01*
X384815Y67974D01*
X385251Y67852D01*
X385684Y67718D01*
X386114Y67575D01*
X386540Y67421D01*
X386963Y67256D01*
X387381Y67082D01*
X387795Y66897D01*
X388204Y66702D01*
X388608Y66497D01*
X389008Y66283D01*
X389401Y66058D01*
X389790Y65825D01*
X390172Y65582D01*
X390549Y65329D01*
X390919Y65068D01*
X391283Y64797D01*
X391640Y64518D01*
X391990Y64230D01*
X392333Y63934D01*
X392668Y63630D01*
X392997Y63317D01*
X393317Y62997D01*
X393630Y62668D01*
X393934Y62333D01*
X394230Y61990D01*
X394518Y61640D01*
X394797Y61283D01*
X395068Y60919D01*
X395329Y60549D01*
X395582Y60172D01*
X395825Y59790D01*
X396058Y59401D01*
X396283Y59008D01*
X396497Y58608D01*
X396702Y58204D01*
X396897Y57795D01*
X397082Y57381D01*
X397256Y56963D01*
X397421Y56540D01*
X397575Y56114D01*
X397718Y55684D01*
X397852Y55251D01*
X397974Y54815D01*
X398086Y54376D01*
X398187Y53934D01*
X398278Y53490D01*
X398357Y53044D01*
X398426Y52596D01*
X398484Y52146D01*
X398531Y51695D01*
X398566Y51244D01*
X396196Y51243D01*
X396161Y51639D01*
X396116Y52033D01*
X396062Y52426D01*
X395998Y52818D01*
X395924Y53208D01*
X395841Y53597D01*
X395748Y53983D01*
X395646Y54366D01*
X395535Y54747D01*
X395414Y55126D01*
X395284Y55501D01*
X395145Y55873D01*
X394997Y56241D01*
X394840Y56606D01*
X394674Y56966D01*
X394500Y57323D01*
X394316Y57675D01*
X394125Y58023D01*
X393924Y58365D01*
X393716Y58703D01*
X393499Y59036D01*
X393274Y59363D01*
X393041Y59685D01*
X392801Y60000D01*
X392553Y60310D01*
X392297Y60614D01*
X392034Y60911D01*
X391764Y61202D01*
X391486Y61486D01*
X391202Y61764D01*
X390911Y62034D01*
X390614Y62297D01*
X390310Y62553D01*
X390000Y62801D01*
X389685Y63041D01*
X389363Y63274D01*
X389036Y63499D01*
X388703Y63716D01*
X388365Y63924D01*
X388023Y64125D01*
X387675Y64316D01*
X387323Y64500D01*
X386966Y64674D01*
X386606Y64840D01*
X386241Y64997D01*
X385873Y65145D01*
X385501Y65284D01*
X385126Y65414D01*
X384747Y65535D01*
X384366Y65646D01*
X383983Y65748D01*
X383597Y65841D01*
X383208Y65924D01*
X382818Y65998D01*
X382426Y66062D01*
X382033Y66116D01*
X381639Y66161D01*
X381243Y66196D01*
X381243Y63824D01*
X381580Y63790D01*
X381916Y63747D01*
X382251Y63696D01*
X382585Y63637D01*
X382917Y63570D01*
X383247Y63495D01*
X383576Y63412D01*
X383902Y63320D01*
X384226Y63221D01*
X384547Y63114D01*
X384866Y62999D01*
X385182Y62876D01*
X385495Y62746D01*
X385804Y62608D01*
X386110Y62463D01*
X386413Y62310D01*
X386711Y62150D01*
X387006Y61982D01*
X387296Y61808D01*
X387582Y61626D01*
X387864Y61438D01*
X388141Y61242D01*
X388413Y61040D01*
X388679Y60831D01*
X388941Y60616D01*
X389198Y60395D01*
X389449Y60167D01*
X389694Y59934D01*
X389934Y59694D01*
X390167Y59449D01*
X390395Y59198D01*
X390616Y58941D01*
X390831Y58679D01*
X391040Y58413D01*
X391242Y58141D01*
X391438Y57864D01*
X391626Y57582D01*
X391808Y57296D01*
X391982Y57006D01*
X392150Y56711D01*
X392310Y56413D01*
X392463Y56110D01*
X392608Y55804D01*
X392746Y55495D01*
X392876Y55182D01*
X392999Y54866D01*
X393114Y54547D01*
X393221Y54226D01*
X393320Y53902D01*
X393412Y53576D01*
X393495Y53247D01*
X393570Y52917D01*
X393637Y52585D01*
X393696Y52251D01*
X393747Y51916D01*
X393790Y51580D01*
X393824Y51243D01*
X391449Y51242D01*
X391415Y51519D01*
X391375Y51794D01*
X391329Y52069D01*
X391275Y52342D01*
X391215Y52614D01*
X391149Y52885D01*
X391076Y53154D01*
X390996Y53421D01*
X390910Y53686D01*
X390818Y53948D01*
X390719Y54209D01*
X390614Y54467D01*
X390503Y54722D01*
X390386Y54975D01*
X390262Y55225D01*
X390133Y55472D01*
X389998Y55715D01*
X389857Y55955D01*
X389710Y56192D01*
X389557Y56425D01*
X389399Y56654D01*
X389235Y56880D01*
X389066Y57101D01*
X388892Y57318D01*
X388712Y57531D01*
X388527Y57740D01*
X388338Y57944D01*
X388143Y58143D01*
X387944Y58338D01*
X387740Y58527D01*
X387531Y58712D01*
X387318Y58892D01*
X387101Y59066D01*
X386880Y59235D01*
X386654Y59399D01*
X386425Y59557D01*
X386192Y59710D01*
X385955Y59857D01*
X385715Y59998D01*
X385472Y60133D01*
X385225Y60262D01*
X384975Y60386D01*
X384722Y60503D01*
X384467Y60614D01*
X384209Y60719D01*
X383948Y60818D01*
X383686Y60910D01*
X383421Y60996D01*
X383154Y61076D01*
X382885Y61149D01*
X382614Y61215D01*
X382342Y61275D01*
X382069Y61329D01*
X381794Y61375D01*
X381519Y61415D01*
X381242Y61449D01*
X347232Y48756D02*
X369686Y48759D01*
X369685Y48758D02*
X369719Y48509D01*
X369758Y48261D01*
X369803Y48013D01*
X369854Y47767D01*
X369911Y47522D01*
X369974Y47279D01*
X370042Y47037D01*
X370117Y46797D01*
X370198Y46559D01*
X370284Y46322D01*
X370376Y46088D01*
X370473Y45857D01*
X370576Y45627D01*
X370685Y45400D01*
X370799Y45176D01*
X370918Y44955D01*
X371043Y44737D01*
X371173Y44522D01*
X371308Y44309D01*
X371448Y44101D01*
X371594Y43896D01*
X371744Y43694D01*
X371899Y43496D01*
X372059Y43302D01*
X372223Y43112D01*
X372392Y42925D01*
X372566Y42743D01*
X372743Y42566D01*
X372925Y42392D01*
X373112Y42223D01*
X373302Y42059D01*
X373496Y41899D01*
X373694Y41744D01*
X373896Y41594D01*
X374101Y41448D01*
X374309Y41308D01*
X374522Y41173D01*
X374737Y41043D01*
X374955Y40918D01*
X375176Y40799D01*
X375400Y40685D01*
X375627Y40576D01*
X375857Y40473D01*
X376088Y40376D01*
X376322Y40284D01*
X376559Y40198D01*
X376797Y40117D01*
X377037Y40042D01*
X377279Y39974D01*
X377522Y39911D01*
X377767Y39854D01*
X378013Y39803D01*
X378261Y39758D01*
X378509Y39719D01*
X378758Y39685D01*
X378756Y17232D01*
X377953Y17272D01*
X377152Y17332D01*
X376352Y17412D01*
X375555Y17511D01*
X374760Y17629D01*
X373968Y17767D01*
X373180Y17925D01*
X372396Y18102D01*
X371617Y18298D01*
X370843Y18513D01*
X370074Y18746D01*
X369311Y18999D01*
X368555Y19270D01*
X367805Y19560D01*
X367063Y19868D01*
X366328Y20194D01*
X365602Y20538D01*
X364884Y20900D01*
X364176Y21279D01*
X363477Y21675D01*
X362788Y22088D01*
X362109Y22519D01*
X361441Y22965D01*
X360784Y23428D01*
X360139Y23907D01*
X359505Y24401D01*
X358884Y24911D01*
X358276Y25436D01*
X357680Y25976D01*
X357098Y26530D01*
X356530Y27098D01*
X355976Y27680D01*
X355436Y28276D01*
X354911Y28884D01*
X354401Y29505D01*
X353907Y30139D01*
X353428Y30784D01*
X352965Y31441D01*
X352519Y32109D01*
X352088Y32788D01*
X351675Y33477D01*
X351279Y34176D01*
X350900Y34884D01*
X350538Y35602D01*
X350194Y36328D01*
X349868Y37063D01*
X349560Y37805D01*
X349270Y38555D01*
X348999Y39311D01*
X348746Y40074D01*
X348513Y40843D01*
X348298Y41617D01*
X348102Y42396D01*
X347925Y43180D01*
X347767Y43968D01*
X347629Y44760D01*
X347511Y45555D01*
X347412Y46352D01*
X347332Y47152D01*
X347272Y47953D01*
X347232Y48756D01*
X349597Y48756D01*
X349637Y48014D01*
X349694Y47274D01*
X349770Y46535D01*
X349864Y45798D01*
X349975Y45064D01*
X350104Y44332D01*
X350252Y43604D01*
X350417Y42880D01*
X350599Y42160D01*
X350799Y41445D01*
X351017Y40735D01*
X351252Y40030D01*
X351504Y39332D01*
X351772Y38639D01*
X352058Y37954D01*
X352360Y37275D01*
X352679Y36604D01*
X353014Y35942D01*
X353366Y35287D01*
X353733Y34641D01*
X354115Y34005D01*
X354513Y33378D01*
X354927Y32761D01*
X355355Y32154D01*
X355798Y31558D01*
X356255Y30972D01*
X356727Y30399D01*
X357212Y29836D01*
X357711Y29286D01*
X358223Y28748D01*
X358748Y28223D01*
X359286Y27711D01*
X359836Y27212D01*
X360399Y26727D01*
X360972Y26255D01*
X361558Y25798D01*
X362154Y25355D01*
X362761Y24927D01*
X363378Y24513D01*
X364005Y24115D01*
X364641Y23733D01*
X365287Y23366D01*
X365942Y23014D01*
X366604Y22679D01*
X367275Y22360D01*
X367954Y22058D01*
X368639Y21772D01*
X369332Y21504D01*
X370030Y21252D01*
X370735Y21017D01*
X371445Y20799D01*
X372160Y20599D01*
X372880Y20417D01*
X373604Y20252D01*
X374332Y20104D01*
X375064Y19975D01*
X375798Y19864D01*
X376535Y19770D01*
X377274Y19694D01*
X378014Y19637D01*
X378756Y19597D01*
X378756Y21964D01*
X378075Y22002D01*
X377396Y22057D01*
X376717Y22129D01*
X376041Y22217D01*
X375367Y22321D01*
X374696Y22442D01*
X374028Y22579D01*
X373364Y22732D01*
X372704Y22901D01*
X372047Y23086D01*
X371396Y23288D01*
X370749Y23504D01*
X370108Y23737D01*
X369473Y23985D01*
X368844Y24248D01*
X368222Y24527D01*
X367607Y24821D01*
X366999Y25129D01*
X366398Y25452D01*
X365806Y25790D01*
X365222Y26142D01*
X364647Y26508D01*
X364080Y26888D01*
X363524Y27282D01*
X362977Y27689D01*
X362440Y28109D01*
X361913Y28542D01*
X361397Y28988D01*
X360892Y29446D01*
X360398Y29916D01*
X359916Y30398D01*
X359446Y30892D01*
X358988Y31397D01*
X358542Y31913D01*
X358109Y32440D01*
X357689Y32977D01*
X357282Y33524D01*
X356888Y34080D01*
X356508Y34647D01*
X356142Y35222D01*
X355790Y35806D01*
X355452Y36398D01*
X355129Y36999D01*
X354821Y37607D01*
X354527Y38222D01*
X354248Y38844D01*
X353985Y39473D01*
X353737Y40108D01*
X353504Y40749D01*
X353288Y41396D01*
X353086Y42047D01*
X352901Y42704D01*
X352732Y43364D01*
X352579Y44028D01*
X352442Y44696D01*
X352321Y45367D01*
X352217Y46041D01*
X352129Y46717D01*
X352057Y47396D01*
X352002Y48075D01*
X351964Y48756D01*
X354330Y48756D01*
X354368Y48136D01*
X354420Y47517D01*
X354488Y46900D01*
X354570Y46285D01*
X354667Y45671D01*
X354779Y45060D01*
X354906Y44453D01*
X355047Y43848D01*
X355203Y43247D01*
X355374Y42650D01*
X355558Y42057D01*
X355757Y41469D01*
X355971Y40885D01*
X356198Y40307D01*
X356439Y39735D01*
X356694Y39169D01*
X356962Y38609D01*
X357244Y38056D01*
X357539Y37509D01*
X357848Y36970D01*
X358169Y36439D01*
X358503Y35916D01*
X358850Y35400D01*
X359209Y34894D01*
X359580Y34396D01*
X359963Y33907D01*
X360357Y33427D01*
X360763Y32958D01*
X361181Y32498D01*
X361609Y32048D01*
X362048Y31609D01*
X362498Y31181D01*
X362958Y30763D01*
X363427Y30357D01*
X363907Y29963D01*
X364396Y29580D01*
X364894Y29209D01*
X365400Y28850D01*
X365916Y28503D01*
X366439Y28169D01*
X366970Y27848D01*
X367509Y27539D01*
X368056Y27244D01*
X368609Y26962D01*
X369169Y26694D01*
X369735Y26439D01*
X370307Y26198D01*
X370885Y25971D01*
X371469Y25757D01*
X372057Y25558D01*
X372650Y25374D01*
X373247Y25203D01*
X373848Y25047D01*
X374453Y24906D01*
X375060Y24779D01*
X375671Y24667D01*
X376285Y24570D01*
X376900Y24488D01*
X377517Y24420D01*
X378136Y24368D01*
X378756Y24330D01*
X378756Y26697D01*
X378188Y26734D01*
X377621Y26786D01*
X377055Y26851D01*
X376491Y26929D01*
X375929Y27022D01*
X375370Y27128D01*
X374813Y27248D01*
X374259Y27381D01*
X373709Y27528D01*
X373163Y27688D01*
X372620Y27862D01*
X372082Y28048D01*
X371549Y28248D01*
X371021Y28461D01*
X370498Y28686D01*
X369981Y28924D01*
X369470Y29175D01*
X368965Y29438D01*
X368466Y29714D01*
X367975Y30001D01*
X367490Y30300D01*
X367013Y30612D01*
X366544Y30934D01*
X366083Y31268D01*
X365630Y31613D01*
X365186Y31969D01*
X364750Y32336D01*
X364324Y32714D01*
X363906Y33101D01*
X363499Y33499D01*
X363101Y33906D01*
X362714Y34324D01*
X362336Y34750D01*
X361969Y35186D01*
X361613Y35630D01*
X361268Y36083D01*
X360934Y36544D01*
X360612Y37013D01*
X360300Y37490D01*
X360001Y37975D01*
X359714Y38466D01*
X359438Y38965D01*
X359175Y39470D01*
X358924Y39981D01*
X358686Y40498D01*
X358461Y41021D01*
X358248Y41549D01*
X358048Y42082D01*
X357862Y42620D01*
X357688Y43163D01*
X357528Y43709D01*
X357381Y44259D01*
X357248Y44813D01*
X357128Y45370D01*
X357022Y45929D01*
X356929Y46491D01*
X356851Y47055D01*
X356786Y47621D01*
X356734Y48188D01*
X356697Y48756D01*
X359065Y48756D01*
X359101Y48250D01*
X359150Y47745D01*
X359210Y47241D01*
X359283Y46739D01*
X359368Y46238D01*
X359465Y45740D01*
X359574Y45244D01*
X359695Y44751D01*
X359828Y44262D01*
X359973Y43775D01*
X360130Y43292D01*
X360298Y42813D01*
X360477Y42339D01*
X360669Y41869D01*
X360871Y41403D01*
X361085Y40943D01*
X361309Y40488D01*
X361545Y40038D01*
X361792Y39594D01*
X362049Y39157D01*
X362316Y38726D01*
X362594Y38301D01*
X362883Y37883D01*
X363181Y37472D01*
X363489Y37069D01*
X363807Y36673D01*
X364134Y36285D01*
X364470Y35905D01*
X364816Y35534D01*
X365171Y35171D01*
X365534Y34816D01*
X365905Y34470D01*
X366285Y34134D01*
X366673Y33807D01*
X367069Y33489D01*
X367472Y33181D01*
X367883Y32883D01*
X368301Y32594D01*
X368726Y32316D01*
X369157Y32049D01*
X369594Y31792D01*
X370038Y31545D01*
X370488Y31309D01*
X370943Y31085D01*
X371403Y30871D01*
X371869Y30669D01*
X372339Y30477D01*
X372813Y30298D01*
X373292Y30130D01*
X373775Y29973D01*
X374262Y29828D01*
X374751Y29695D01*
X375244Y29574D01*
X375740Y29465D01*
X376238Y29368D01*
X376739Y29283D01*
X377241Y29210D01*
X377745Y29150D01*
X378250Y29101D01*
X378756Y29065D01*
X378756Y31434D01*
X378305Y31469D01*
X377854Y31516D01*
X377404Y31574D01*
X376956Y31643D01*
X376510Y31722D01*
X376066Y31813D01*
X375624Y31914D01*
X375185Y32026D01*
X374749Y32148D01*
X374316Y32282D01*
X373886Y32425D01*
X373460Y32579D01*
X373037Y32744D01*
X372619Y32918D01*
X372205Y33103D01*
X371796Y33298D01*
X371392Y33503D01*
X370992Y33717D01*
X370599Y33942D01*
X370210Y34175D01*
X369828Y34418D01*
X369451Y34671D01*
X369081Y34932D01*
X368717Y35203D01*
X368360Y35482D01*
X368010Y35770D01*
X367667Y36066D01*
X367332Y36370D01*
X367003Y36683D01*
X366683Y37003D01*
X366370Y37332D01*
X366066Y37667D01*
X365770Y38010D01*
X365482Y38360D01*
X365203Y38717D01*
X364932Y39081D01*
X364671Y39451D01*
X364418Y39828D01*
X364175Y40210D01*
X363942Y40599D01*
X363717Y40992D01*
X363503Y41392D01*
X363298Y41796D01*
X363103Y42205D01*
X362918Y42619D01*
X362744Y43037D01*
X362579Y43460D01*
X362425Y43886D01*
X362282Y44316D01*
X362148Y44749D01*
X362026Y45185D01*
X361914Y45624D01*
X361813Y46066D01*
X361722Y46510D01*
X361643Y46956D01*
X361574Y47404D01*
X361516Y47854D01*
X361469Y48305D01*
X361434Y48756D01*
X363804Y48757D01*
X363839Y48361D01*
X363884Y47967D01*
X363938Y47574D01*
X364002Y47182D01*
X364076Y46792D01*
X364159Y46403D01*
X364252Y46017D01*
X364354Y45634D01*
X364465Y45253D01*
X364586Y44874D01*
X364716Y44499D01*
X364855Y44127D01*
X365003Y43759D01*
X365160Y43394D01*
X365326Y43034D01*
X365500Y42677D01*
X365684Y42325D01*
X365875Y41977D01*
X366076Y41635D01*
X366284Y41297D01*
X366501Y40964D01*
X366726Y40637D01*
X366959Y40315D01*
X367199Y40000D01*
X367447Y39690D01*
X367703Y39386D01*
X367966Y39089D01*
X368236Y38798D01*
X368514Y38514D01*
X368798Y38236D01*
X369089Y37966D01*
X369386Y37703D01*
X369690Y37447D01*
X370000Y37199D01*
X370315Y36959D01*
X370637Y36726D01*
X370964Y36501D01*
X371297Y36284D01*
X371635Y36076D01*
X371977Y35875D01*
X372325Y35684D01*
X372677Y35500D01*
X373034Y35326D01*
X373394Y35160D01*
X373759Y35003D01*
X374127Y34855D01*
X374499Y34716D01*
X374874Y34586D01*
X375253Y34465D01*
X375634Y34354D01*
X376017Y34252D01*
X376403Y34159D01*
X376792Y34076D01*
X377182Y34002D01*
X377574Y33938D01*
X377967Y33884D01*
X378361Y33839D01*
X378757Y33804D01*
X378757Y36176D01*
X378420Y36210D01*
X378084Y36253D01*
X377749Y36304D01*
X377415Y36363D01*
X377083Y36430D01*
X376753Y36505D01*
X376424Y36588D01*
X376098Y36680D01*
X375774Y36779D01*
X375453Y36886D01*
X375134Y37001D01*
X374818Y37124D01*
X374505Y37254D01*
X374196Y37392D01*
X373890Y37537D01*
X373587Y37690D01*
X373289Y37850D01*
X372994Y38018D01*
X372704Y38192D01*
X372418Y38374D01*
X372136Y38562D01*
X371859Y38758D01*
X371587Y38960D01*
X371321Y39169D01*
X371059Y39384D01*
X370802Y39605D01*
X370551Y39833D01*
X370306Y40066D01*
X370066Y40306D01*
X369833Y40551D01*
X369605Y40802D01*
X369384Y41059D01*
X369169Y41321D01*
X368960Y41587D01*
X368758Y41859D01*
X368562Y42136D01*
X368374Y42418D01*
X368192Y42704D01*
X368018Y42994D01*
X367850Y43289D01*
X367690Y43587D01*
X367537Y43890D01*
X367392Y44196D01*
X367254Y44505D01*
X367124Y44818D01*
X367001Y45134D01*
X366886Y45453D01*
X366779Y45774D01*
X366680Y46098D01*
X366588Y46424D01*
X366505Y46753D01*
X366430Y47083D01*
X366363Y47415D01*
X366304Y47749D01*
X366253Y48084D01*
X366210Y48420D01*
X366176Y48757D01*
X368551Y48758D01*
X368585Y48481D01*
X368625Y48206D01*
X368671Y47931D01*
X368725Y47658D01*
X368785Y47386D01*
X368851Y47115D01*
X368924Y46846D01*
X369004Y46579D01*
X369090Y46314D01*
X369182Y46052D01*
X369281Y45791D01*
X369386Y45533D01*
X369497Y45278D01*
X369614Y45025D01*
X369738Y44775D01*
X369867Y44528D01*
X370002Y44285D01*
X370143Y44045D01*
X370290Y43808D01*
X370443Y43575D01*
X370601Y43346D01*
X370765Y43120D01*
X370934Y42899D01*
X371108Y42682D01*
X371288Y42469D01*
X371473Y42260D01*
X371662Y42056D01*
X371857Y41857D01*
X372056Y41662D01*
X372260Y41473D01*
X372469Y41288D01*
X372682Y41108D01*
X372899Y40934D01*
X373120Y40765D01*
X373346Y40601D01*
X373575Y40443D01*
X373808Y40290D01*
X374045Y40143D01*
X374285Y40002D01*
X374528Y39867D01*
X374775Y39738D01*
X375025Y39614D01*
X375278Y39497D01*
X375533Y39386D01*
X375791Y39281D01*
X376052Y39182D01*
X376314Y39090D01*
X376579Y39004D01*
X376846Y38924D01*
X377115Y38851D01*
X377386Y38785D01*
X377658Y38725D01*
X377931Y38671D01*
X378206Y38625D01*
X378481Y38585D01*
X378758Y38551D01*
D13*
X345710Y50000D02*
X345720Y50842D01*
X345751Y51683D01*
X345803Y52523D01*
X345875Y53361D01*
X345968Y54197D01*
X346081Y55031D01*
X346215Y55862D01*
X346369Y56690D01*
X346543Y57513D01*
X346738Y58332D01*
X346952Y59146D01*
X347187Y59954D01*
X347441Y60756D01*
X347714Y61552D01*
X348008Y62341D01*
X348320Y63122D01*
X348652Y63896D01*
X349002Y64661D01*
X349371Y65417D01*
X349759Y66164D01*
X350165Y66901D01*
X350588Y67629D01*
X351030Y68345D01*
X351489Y69051D01*
X351965Y69744D01*
X352458Y70427D01*
X352968Y71096D01*
X353493Y71753D01*
X354035Y72397D01*
X354593Y73028D01*
X355166Y73644D01*
X355753Y74247D01*
X356356Y74834D01*
X356972Y75407D01*
X357603Y75965D01*
X358247Y76507D01*
X358904Y77032D01*
X359573Y77542D01*
X360256Y78035D01*
X360949Y78511D01*
X361655Y78970D01*
X362371Y79412D01*
X363099Y79835D01*
X363836Y80241D01*
X364583Y80629D01*
X365339Y80998D01*
X366104Y81348D01*
X366878Y81680D01*
X367659Y81992D01*
X368448Y82286D01*
X369244Y82559D01*
X370046Y82813D01*
X370854Y83048D01*
X371668Y83262D01*
X372487Y83457D01*
X373310Y83631D01*
X374138Y83785D01*
X374969Y83919D01*
X375803Y84032D01*
X376639Y84125D01*
X377477Y84197D01*
X378317Y84249D01*
X379158Y84280D01*
X380000Y84290D01*
X380842Y84280D01*
X381683Y84249D01*
X382523Y84197D01*
X383361Y84125D01*
X384197Y84032D01*
X385031Y83919D01*
X385862Y83785D01*
X386690Y83631D01*
X387513Y83457D01*
X388332Y83262D01*
X389146Y83048D01*
X389954Y82813D01*
X390756Y82559D01*
X391552Y82286D01*
X392341Y81992D01*
X393122Y81680D01*
X393896Y81348D01*
X394661Y80998D01*
X395417Y80629D01*
X396164Y80241D01*
X396901Y79835D01*
X397629Y79412D01*
X398345Y78970D01*
X399051Y78511D01*
X399744Y78035D01*
X400427Y77542D01*
X401096Y77032D01*
X401753Y76507D01*
X402397Y75965D01*
X403028Y75407D01*
X403644Y74834D01*
X404247Y74247D01*
X404834Y73644D01*
X405407Y73028D01*
X405965Y72397D01*
X406507Y71753D01*
X407032Y71096D01*
X407542Y70427D01*
X408035Y69744D01*
X408511Y69051D01*
X408970Y68345D01*
X409412Y67629D01*
X409835Y66901D01*
X410241Y66164D01*
X410629Y65417D01*
X410998Y64661D01*
X411348Y63896D01*
X411680Y63122D01*
X411992Y62341D01*
X412286Y61552D01*
X412559Y60756D01*
X412813Y59954D01*
X413048Y59146D01*
X413262Y58332D01*
X413457Y57513D01*
X413631Y56690D01*
X413785Y55862D01*
X413919Y55031D01*
X414032Y54197D01*
X414125Y53361D01*
X414197Y52523D01*
X414249Y51683D01*
X414280Y50842D01*
X414290Y50000D01*
X414280Y49158D01*
X414249Y48317D01*
X414197Y47477D01*
X414125Y46639D01*
X414032Y45803D01*
X413919Y44969D01*
X413785Y44138D01*
X413631Y43310D01*
X413457Y42487D01*
X413262Y41668D01*
X413048Y40854D01*
X412813Y40046D01*
X412559Y39244D01*
X412286Y38448D01*
X411992Y37659D01*
X411680Y36878D01*
X411348Y36104D01*
X410998Y35339D01*
X410629Y34583D01*
X410241Y33836D01*
X409835Y33099D01*
X409412Y32371D01*
X408970Y31655D01*
X408511Y30949D01*
X408035Y30256D01*
X407542Y29573D01*
X407032Y28904D01*
X406507Y28247D01*
X405965Y27603D01*
X405407Y26972D01*
X404834Y26356D01*
X404247Y25753D01*
X403644Y25166D01*
X403028Y24593D01*
X402397Y24035D01*
X401753Y23493D01*
X401096Y22968D01*
X400427Y22458D01*
X399744Y21965D01*
X399051Y21489D01*
X398345Y21030D01*
X397629Y20588D01*
X396901Y20165D01*
X396164Y19759D01*
X395417Y19371D01*
X394661Y19002D01*
X393896Y18652D01*
X393122Y18320D01*
X392341Y18008D01*
X391552Y17714D01*
X390756Y17441D01*
X389954Y17187D01*
X389146Y16952D01*
X388332Y16738D01*
X387513Y16543D01*
X386690Y16369D01*
X385862Y16215D01*
X385031Y16081D01*
X384197Y15968D01*
X383361Y15875D01*
X382523Y15803D01*
X381683Y15751D01*
X380842Y15720D01*
X380000Y15710D01*
X379158Y15720D01*
X378317Y15751D01*
X377477Y15803D01*
X376639Y15875D01*
X375803Y15968D01*
X374969Y16081D01*
X374138Y16215D01*
X373310Y16369D01*
X372487Y16543D01*
X371668Y16738D01*
X370854Y16952D01*
X370046Y17187D01*
X369244Y17441D01*
X368448Y17714D01*
X367659Y18008D01*
X366878Y18320D01*
X366104Y18652D01*
X365339Y19002D01*
X364583Y19371D01*
X363836Y19759D01*
X363099Y20165D01*
X362371Y20588D01*
X361655Y21030D01*
X360949Y21489D01*
X360256Y21965D01*
X359573Y22458D01*
X358904Y22968D01*
X358247Y23493D01*
X357603Y24035D01*
X356972Y24593D01*
X356356Y25166D01*
X355753Y25753D01*
X355166Y26356D01*
X354593Y26972D01*
X354035Y27603D01*
X353493Y28247D01*
X352968Y28904D01*
X352458Y29573D01*
X351965Y30256D01*
X351489Y30949D01*
X351030Y31655D01*
X350588Y32371D01*
X350165Y33099D01*
X349759Y33836D01*
X349371Y34583D01*
X349002Y35339D01*
X348652Y36104D01*
X348320Y36878D01*
X348008Y37659D01*
X347714Y38448D01*
X347441Y39244D01*
X347187Y40046D01*
X346952Y40854D01*
X346738Y41668D01*
X346543Y42487D01*
X346369Y43310D01*
X346215Y44138D01*
X346081Y44969D01*
X345968Y45803D01*
X345875Y46639D01*
X345803Y47477D01*
X345751Y48317D01*
X345720Y49158D01*
X345710Y50000D01*
D14*
X372380Y50000D02*
X372382Y50187D01*
X372389Y50374D01*
X372401Y50561D01*
X372417Y50747D01*
X372437Y50933D01*
X372462Y51118D01*
X372492Y51303D01*
X372526Y51487D01*
X372565Y51670D01*
X372608Y51852D01*
X372656Y52032D01*
X372708Y52212D01*
X372765Y52390D01*
X372825Y52567D01*
X372891Y52742D01*
X372960Y52916D01*
X373034Y53088D01*
X373112Y53258D01*
X373194Y53426D01*
X373280Y53592D01*
X373370Y53756D01*
X373464Y53917D01*
X373562Y54077D01*
X373664Y54233D01*
X373770Y54388D01*
X373880Y54539D01*
X373993Y54688D01*
X374110Y54834D01*
X374230Y54977D01*
X374354Y55117D01*
X374481Y55254D01*
X374612Y55388D01*
X374746Y55519D01*
X374883Y55646D01*
X375023Y55770D01*
X375166Y55890D01*
X375312Y56007D01*
X375461Y56120D01*
X375612Y56230D01*
X375767Y56336D01*
X375923Y56438D01*
X376083Y56536D01*
X376244Y56630D01*
X376408Y56720D01*
X376574Y56806D01*
X376742Y56888D01*
X376912Y56966D01*
X377084Y57040D01*
X377258Y57109D01*
X377433Y57175D01*
X377610Y57235D01*
X377788Y57292D01*
X377968Y57344D01*
X378148Y57392D01*
X378330Y57435D01*
X378513Y57474D01*
X378697Y57508D01*
X378882Y57538D01*
X379067Y57563D01*
X379253Y57583D01*
X379439Y57599D01*
X379626Y57611D01*
X379813Y57618D01*
X380000Y57620D01*
X380187Y57618D01*
X380374Y57611D01*
X380561Y57599D01*
X380747Y57583D01*
X380933Y57563D01*
X381118Y57538D01*
X381303Y57508D01*
X381487Y57474D01*
X381670Y57435D01*
X381852Y57392D01*
X382032Y57344D01*
X382212Y57292D01*
X382390Y57235D01*
X382567Y57175D01*
X382742Y57109D01*
X382916Y57040D01*
X383088Y56966D01*
X383258Y56888D01*
X383426Y56806D01*
X383592Y56720D01*
X383756Y56630D01*
X383917Y56536D01*
X384077Y56438D01*
X384233Y56336D01*
X384388Y56230D01*
X384539Y56120D01*
X384688Y56007D01*
X384834Y55890D01*
X384977Y55770D01*
X385117Y55646D01*
X385254Y55519D01*
X385388Y55388D01*
X385519Y55254D01*
X385646Y55117D01*
X385770Y54977D01*
X385890Y54834D01*
X386007Y54688D01*
X386120Y54539D01*
X386230Y54388D01*
X386336Y54233D01*
X386438Y54077D01*
X386536Y53917D01*
X386630Y53756D01*
X386720Y53592D01*
X386806Y53426D01*
X386888Y53258D01*
X386966Y53088D01*
X387040Y52916D01*
X387109Y52742D01*
X387175Y52567D01*
X387235Y52390D01*
X387292Y52212D01*
X387344Y52032D01*
X387392Y51852D01*
X387435Y51670D01*
X387474Y51487D01*
X387508Y51303D01*
X387538Y51118D01*
X387563Y50933D01*
X387583Y50747D01*
X387599Y50561D01*
X387611Y50374D01*
X387618Y50187D01*
X387620Y50000D01*
X387618Y49813D01*
X387611Y49626D01*
X387599Y49439D01*
X387583Y49253D01*
X387563Y49067D01*
X387538Y48882D01*
X387508Y48697D01*
X387474Y48513D01*
X387435Y48330D01*
X387392Y48148D01*
X387344Y47968D01*
X387292Y47788D01*
X387235Y47610D01*
X387175Y47433D01*
X387109Y47258D01*
X387040Y47084D01*
X386966Y46912D01*
X386888Y46742D01*
X386806Y46574D01*
X386720Y46408D01*
X386630Y46244D01*
X386536Y46083D01*
X386438Y45923D01*
X386336Y45767D01*
X386230Y45612D01*
X386120Y45461D01*
X386007Y45312D01*
X385890Y45166D01*
X385770Y45023D01*
X385646Y44883D01*
X385519Y44746D01*
X385388Y44612D01*
X385254Y44481D01*
X385117Y44354D01*
X384977Y44230D01*
X384834Y44110D01*
X384688Y43993D01*
X384539Y43880D01*
X384388Y43770D01*
X384233Y43664D01*
X384077Y43562D01*
X383917Y43464D01*
X383756Y43370D01*
X383592Y43280D01*
X383426Y43194D01*
X383258Y43112D01*
X383088Y43034D01*
X382916Y42960D01*
X382742Y42891D01*
X382567Y42825D01*
X382390Y42765D01*
X382212Y42708D01*
X382032Y42656D01*
X381852Y42608D01*
X381670Y42565D01*
X381487Y42526D01*
X381303Y42492D01*
X381118Y42462D01*
X380933Y42437D01*
X380747Y42417D01*
X380561Y42401D01*
X380374Y42389D01*
X380187Y42382D01*
X380000Y42380D01*
X379813Y42382D01*
X379626Y42389D01*
X379439Y42401D01*
X379253Y42417D01*
X379067Y42437D01*
X378882Y42462D01*
X378697Y42492D01*
X378513Y42526D01*
X378330Y42565D01*
X378148Y42608D01*
X377968Y42656D01*
X377788Y42708D01*
X377610Y42765D01*
X377433Y42825D01*
X377258Y42891D01*
X377084Y42960D01*
X376912Y43034D01*
X376742Y43112D01*
X376574Y43194D01*
X376408Y43280D01*
X376244Y43370D01*
X376083Y43464D01*
X375923Y43562D01*
X375767Y43664D01*
X375612Y43770D01*
X375461Y43880D01*
X375312Y43993D01*
X375166Y44110D01*
X375023Y44230D01*
X374883Y44354D01*
X374746Y44481D01*
X374612Y44612D01*
X374481Y44746D01*
X374354Y44883D01*
X374230Y45023D01*
X374110Y45166D01*
X373993Y45312D01*
X373880Y45461D01*
X373770Y45612D01*
X373664Y45767D01*
X373562Y45923D01*
X373464Y46083D01*
X373370Y46244D01*
X373280Y46408D01*
X373194Y46574D01*
X373112Y46742D01*
X373034Y46912D01*
X372960Y47084D01*
X372891Y47258D01*
X372825Y47433D01*
X372765Y47610D01*
X372708Y47788D01*
X372656Y47968D01*
X372608Y48148D01*
X372565Y48330D01*
X372526Y48513D01*
X372492Y48697D01*
X372462Y48882D01*
X372437Y49067D01*
X372417Y49253D01*
X372401Y49439D01*
X372389Y49626D01*
X372382Y49813D01*
X372380Y50000D01*
D13*
X363000Y50000D02*
X363005Y50417D01*
X363020Y50834D01*
X363046Y51251D01*
X363082Y51666D01*
X363128Y52081D01*
X363184Y52494D01*
X363250Y52906D01*
X363327Y53317D01*
X363413Y53725D01*
X363509Y54131D01*
X363616Y54534D01*
X363732Y54935D01*
X363858Y55333D01*
X363994Y55727D01*
X364139Y56118D01*
X364294Y56506D01*
X364458Y56889D01*
X364632Y57268D01*
X364815Y57643D01*
X365007Y58014D01*
X365209Y58379D01*
X365419Y58740D01*
X365637Y59095D01*
X365865Y59445D01*
X366101Y59789D01*
X366345Y60127D01*
X366598Y60459D01*
X366859Y60785D01*
X367127Y61104D01*
X367404Y61417D01*
X367688Y61722D01*
X367979Y62021D01*
X368278Y62312D01*
X368583Y62596D01*
X368896Y62873D01*
X369215Y63141D01*
X369541Y63402D01*
X369873Y63655D01*
X370211Y63899D01*
X370555Y64135D01*
X370905Y64363D01*
X371260Y64581D01*
X371621Y64791D01*
X371986Y64993D01*
X372357Y65185D01*
X372732Y65368D01*
X373111Y65542D01*
X373494Y65706D01*
X373882Y65861D01*
X374273Y66006D01*
X374667Y66142D01*
X375065Y66268D01*
X375466Y66384D01*
X375869Y66491D01*
X376275Y66587D01*
X376683Y66673D01*
X377094Y66750D01*
X377506Y66816D01*
X377919Y66872D01*
X378334Y66918D01*
X378749Y66954D01*
X379166Y66980D01*
X379583Y66995D01*
X380000Y67000D01*
X380417Y66995D01*
X380834Y66980D01*
X381251Y66954D01*
X381666Y66918D01*
X382081Y66872D01*
X382494Y66816D01*
X382906Y66750D01*
X383317Y66673D01*
X383725Y66587D01*
X384131Y66491D01*
X384534Y66384D01*
X384935Y66268D01*
X385333Y66142D01*
X385727Y66006D01*
X386118Y65861D01*
X386506Y65706D01*
X386889Y65542D01*
X387268Y65368D01*
X387643Y65185D01*
X388014Y64993D01*
X388379Y64791D01*
X388740Y64581D01*
X389095Y64363D01*
X389445Y64135D01*
X389789Y63899D01*
X390127Y63655D01*
X390459Y63402D01*
X390785Y63141D01*
X391104Y62873D01*
X391417Y62596D01*
X391722Y62312D01*
X392021Y62021D01*
X392312Y61722D01*
X392596Y61417D01*
X392873Y61104D01*
X393141Y60785D01*
X393402Y60459D01*
X393655Y60127D01*
X393899Y59789D01*
X394135Y59445D01*
X394363Y59095D01*
X394581Y58740D01*
X394791Y58379D01*
X394993Y58014D01*
X395185Y57643D01*
X395368Y57268D01*
X395542Y56889D01*
X395706Y56506D01*
X395861Y56118D01*
X396006Y55727D01*
X396142Y55333D01*
X396268Y54935D01*
X396384Y54534D01*
X396491Y54131D01*
X396587Y53725D01*
X396673Y53317D01*
X396750Y52906D01*
X396816Y52494D01*
X396872Y52081D01*
X396918Y51666D01*
X396954Y51251D01*
X396980Y50834D01*
X396995Y50417D01*
X397000Y50000D01*
X396995Y49583D01*
X396980Y49166D01*
X396954Y48749D01*
X396918Y48334D01*
X396872Y47919D01*
X396816Y47506D01*
X396750Y47094D01*
X396673Y46683D01*
X396587Y46275D01*
X396491Y45869D01*
X396384Y45466D01*
X396268Y45065D01*
X396142Y44667D01*
X396006Y44273D01*
X395861Y43882D01*
X395706Y43494D01*
X395542Y43111D01*
X395368Y42732D01*
X395185Y42357D01*
X394993Y41986D01*
X394791Y41621D01*
X394581Y41260D01*
X394363Y40905D01*
X394135Y40555D01*
X393899Y40211D01*
X393655Y39873D01*
X393402Y39541D01*
X393141Y39215D01*
X392873Y38896D01*
X392596Y38583D01*
X392312Y38278D01*
X392021Y37979D01*
X391722Y37688D01*
X391417Y37404D01*
X391104Y37127D01*
X390785Y36859D01*
X390459Y36598D01*
X390127Y36345D01*
X389789Y36101D01*
X389445Y35865D01*
X389095Y35637D01*
X388740Y35419D01*
X388379Y35209D01*
X388014Y35007D01*
X387643Y34815D01*
X387268Y34632D01*
X386889Y34458D01*
X386506Y34294D01*
X386118Y34139D01*
X385727Y33994D01*
X385333Y33858D01*
X384935Y33732D01*
X384534Y33616D01*
X384131Y33509D01*
X383725Y33413D01*
X383317Y33327D01*
X382906Y33250D01*
X382494Y33184D01*
X382081Y33128D01*
X381666Y33082D01*
X381251Y33046D01*
X380834Y33020D01*
X380417Y33005D01*
X380000Y33000D01*
X379583Y33005D01*
X379166Y33020D01*
X378749Y33046D01*
X378334Y33082D01*
X377919Y33128D01*
X377506Y33184D01*
X377094Y33250D01*
X376683Y33327D01*
X376275Y33413D01*
X375869Y33509D01*
X375466Y33616D01*
X375065Y33732D01*
X374667Y33858D01*
X374273Y33994D01*
X373882Y34139D01*
X373494Y34294D01*
X373111Y34458D01*
X372732Y34632D01*
X372357Y34815D01*
X371986Y35007D01*
X371621Y35209D01*
X371260Y35419D01*
X370905Y35637D01*
X370555Y35865D01*
X370211Y36101D01*
X369873Y36345D01*
X369541Y36598D01*
X369215Y36859D01*
X368896Y37127D01*
X368583Y37404D01*
X368278Y37688D01*
X367979Y37979D01*
X367688Y38278D01*
X367404Y38583D01*
X367127Y38896D01*
X366859Y39215D01*
X366598Y39541D01*
X366345Y39873D01*
X366101Y40211D01*
X365865Y40555D01*
X365637Y40905D01*
X365419Y41260D01*
X365209Y41621D01*
X365007Y41986D01*
X364815Y42357D01*
X364632Y42732D01*
X364458Y43111D01*
X364294Y43494D01*
X364139Y43882D01*
X363994Y44273D01*
X363858Y44667D01*
X363732Y45065D01*
X363616Y45466D01*
X363509Y45869D01*
X363413Y46275D01*
X363327Y46683D01*
X363250Y47094D01*
X363184Y47506D01*
X363128Y47919D01*
X363082Y48334D01*
X363046Y48749D01*
X363020Y49166D01*
X363005Y49583D01*
X363000Y50000D01*
D10*
X345710Y300000D02*
X345720Y300842D01*
X345751Y301683D01*
X345803Y302523D01*
X345875Y303361D01*
X345968Y304197D01*
X346081Y305031D01*
X346215Y305862D01*
X346369Y306690D01*
X346543Y307513D01*
X346738Y308332D01*
X346952Y309146D01*
X347187Y309954D01*
X347441Y310756D01*
X347714Y311552D01*
X348008Y312341D01*
X348320Y313122D01*
X348652Y313896D01*
X349002Y314661D01*
X349371Y315417D01*
X349759Y316164D01*
X350165Y316901D01*
X350588Y317629D01*
X351030Y318345D01*
X351489Y319051D01*
X351965Y319744D01*
X352458Y320427D01*
X352968Y321096D01*
X353493Y321753D01*
X354035Y322397D01*
X354593Y323028D01*
X355166Y323644D01*
X355753Y324247D01*
X356356Y324834D01*
X356972Y325407D01*
X357603Y325965D01*
X358247Y326507D01*
X358904Y327032D01*
X359573Y327542D01*
X360256Y328035D01*
X360949Y328511D01*
X361655Y328970D01*
X362371Y329412D01*
X363099Y329835D01*
X363836Y330241D01*
X364583Y330629D01*
X365339Y330998D01*
X366104Y331348D01*
X366878Y331680D01*
X367659Y331992D01*
X368448Y332286D01*
X369244Y332559D01*
X370046Y332813D01*
X370854Y333048D01*
X371668Y333262D01*
X372487Y333457D01*
X373310Y333631D01*
X374138Y333785D01*
X374969Y333919D01*
X375803Y334032D01*
X376639Y334125D01*
X377477Y334197D01*
X378317Y334249D01*
X379158Y334280D01*
X380000Y334290D01*
X380842Y334280D01*
X381683Y334249D01*
X382523Y334197D01*
X383361Y334125D01*
X384197Y334032D01*
X385031Y333919D01*
X385862Y333785D01*
X386690Y333631D01*
X387513Y333457D01*
X388332Y333262D01*
X389146Y333048D01*
X389954Y332813D01*
X390756Y332559D01*
X391552Y332286D01*
X392341Y331992D01*
X393122Y331680D01*
X393896Y331348D01*
X394661Y330998D01*
X395417Y330629D01*
X396164Y330241D01*
X396901Y329835D01*
X397629Y329412D01*
X398345Y328970D01*
X399051Y328511D01*
X399744Y328035D01*
X400427Y327542D01*
X401096Y327032D01*
X401753Y326507D01*
X402397Y325965D01*
X403028Y325407D01*
X403644Y324834D01*
X404247Y324247D01*
X404834Y323644D01*
X405407Y323028D01*
X405965Y322397D01*
X406507Y321753D01*
X407032Y321096D01*
X407542Y320427D01*
X408035Y319744D01*
X408511Y319051D01*
X408970Y318345D01*
X409412Y317629D01*
X409835Y316901D01*
X410241Y316164D01*
X410629Y315417D01*
X410998Y314661D01*
X411348Y313896D01*
X411680Y313122D01*
X411992Y312341D01*
X412286Y311552D01*
X412559Y310756D01*
X412813Y309954D01*
X413048Y309146D01*
X413262Y308332D01*
X413457Y307513D01*
X413631Y306690D01*
X413785Y305862D01*
X413919Y305031D01*
X414032Y304197D01*
X414125Y303361D01*
X414197Y302523D01*
X414249Y301683D01*
X414280Y300842D01*
X414290Y300000D01*
X414280Y299158D01*
X414249Y298317D01*
X414197Y297477D01*
X414125Y296639D01*
X414032Y295803D01*
X413919Y294969D01*
X413785Y294138D01*
X413631Y293310D01*
X413457Y292487D01*
X413262Y291668D01*
X413048Y290854D01*
X412813Y290046D01*
X412559Y289244D01*
X412286Y288448D01*
X411992Y287659D01*
X411680Y286878D01*
X411348Y286104D01*
X410998Y285339D01*
X410629Y284583D01*
X410241Y283836D01*
X409835Y283099D01*
X409412Y282371D01*
X408970Y281655D01*
X408511Y280949D01*
X408035Y280256D01*
X407542Y279573D01*
X407032Y278904D01*
X406507Y278247D01*
X405965Y277603D01*
X405407Y276972D01*
X404834Y276356D01*
X404247Y275753D01*
X403644Y275166D01*
X403028Y274593D01*
X402397Y274035D01*
X401753Y273493D01*
X401096Y272968D01*
X400427Y272458D01*
X399744Y271965D01*
X399051Y271489D01*
X398345Y271030D01*
X397629Y270588D01*
X396901Y270165D01*
X396164Y269759D01*
X395417Y269371D01*
X394661Y269002D01*
X393896Y268652D01*
X393122Y268320D01*
X392341Y268008D01*
X391552Y267714D01*
X390756Y267441D01*
X389954Y267187D01*
X389146Y266952D01*
X388332Y266738D01*
X387513Y266543D01*
X386690Y266369D01*
X385862Y266215D01*
X385031Y266081D01*
X384197Y265968D01*
X383361Y265875D01*
X382523Y265803D01*
X381683Y265751D01*
X380842Y265720D01*
X380000Y265710D01*
X379158Y265720D01*
X378317Y265751D01*
X377477Y265803D01*
X376639Y265875D01*
X375803Y265968D01*
X374969Y266081D01*
X374138Y266215D01*
X373310Y266369D01*
X372487Y266543D01*
X371668Y266738D01*
X370854Y266952D01*
X370046Y267187D01*
X369244Y267441D01*
X368448Y267714D01*
X367659Y268008D01*
X366878Y268320D01*
X366104Y268652D01*
X365339Y269002D01*
X364583Y269371D01*
X363836Y269759D01*
X363099Y270165D01*
X362371Y270588D01*
X361655Y271030D01*
X360949Y271489D01*
X360256Y271965D01*
X359573Y272458D01*
X358904Y272968D01*
X358247Y273493D01*
X357603Y274035D01*
X356972Y274593D01*
X356356Y275166D01*
X355753Y275753D01*
X355166Y276356D01*
X354593Y276972D01*
X354035Y277603D01*
X353493Y278247D01*
X352968Y278904D01*
X352458Y279573D01*
X351965Y280256D01*
X351489Y280949D01*
X351030Y281655D01*
X350588Y282371D01*
X350165Y283099D01*
X349759Y283836D01*
X349371Y284583D01*
X349002Y285339D01*
X348652Y286104D01*
X348320Y286878D01*
X348008Y287659D01*
X347714Y288448D01*
X347441Y289244D01*
X347187Y290046D01*
X346952Y290854D01*
X346738Y291668D01*
X346543Y292487D01*
X346369Y293310D01*
X346215Y294138D01*
X346081Y294969D01*
X345968Y295803D01*
X345875Y296639D01*
X345803Y297477D01*
X345751Y298317D01*
X345720Y299158D01*
X345710Y300000D01*
D11*
X363000Y300000D02*
X363005Y300417D01*
X363020Y300834D01*
X363046Y301251D01*
X363082Y301666D01*
X363128Y302081D01*
X363184Y302494D01*
X363250Y302906D01*
X363327Y303317D01*
X363413Y303725D01*
X363509Y304131D01*
X363616Y304534D01*
X363732Y304935D01*
X363858Y305333D01*
X363994Y305727D01*
X364139Y306118D01*
X364294Y306506D01*
X364458Y306889D01*
X364632Y307268D01*
X364815Y307643D01*
X365007Y308014D01*
X365209Y308379D01*
X365419Y308740D01*
X365637Y309095D01*
X365865Y309445D01*
X366101Y309789D01*
X366345Y310127D01*
X366598Y310459D01*
X366859Y310785D01*
X367127Y311104D01*
X367404Y311417D01*
X367688Y311722D01*
X367979Y312021D01*
X368278Y312312D01*
X368583Y312596D01*
X368896Y312873D01*
X369215Y313141D01*
X369541Y313402D01*
X369873Y313655D01*
X370211Y313899D01*
X370555Y314135D01*
X370905Y314363D01*
X371260Y314581D01*
X371621Y314791D01*
X371986Y314993D01*
X372357Y315185D01*
X372732Y315368D01*
X373111Y315542D01*
X373494Y315706D01*
X373882Y315861D01*
X374273Y316006D01*
X374667Y316142D01*
X375065Y316268D01*
X375466Y316384D01*
X375869Y316491D01*
X376275Y316587D01*
X376683Y316673D01*
X377094Y316750D01*
X377506Y316816D01*
X377919Y316872D01*
X378334Y316918D01*
X378749Y316954D01*
X379166Y316980D01*
X379583Y316995D01*
X380000Y317000D01*
X380417Y316995D01*
X380834Y316980D01*
X381251Y316954D01*
X381666Y316918D01*
X382081Y316872D01*
X382494Y316816D01*
X382906Y316750D01*
X383317Y316673D01*
X383725Y316587D01*
X384131Y316491D01*
X384534Y316384D01*
X384935Y316268D01*
X385333Y316142D01*
X385727Y316006D01*
X386118Y315861D01*
X386506Y315706D01*
X386889Y315542D01*
X387268Y315368D01*
X387643Y315185D01*
X388014Y314993D01*
X388379Y314791D01*
X388740Y314581D01*
X389095Y314363D01*
X389445Y314135D01*
X389789Y313899D01*
X390127Y313655D01*
X390459Y313402D01*
X390785Y313141D01*
X391104Y312873D01*
X391417Y312596D01*
X391722Y312312D01*
X392021Y312021D01*
X392312Y311722D01*
X392596Y311417D01*
X392873Y311104D01*
X393141Y310785D01*
X393402Y310459D01*
X393655Y310127D01*
X393899Y309789D01*
X394135Y309445D01*
X394363Y309095D01*
X394581Y308740D01*
X394791Y308379D01*
X394993Y308014D01*
X395185Y307643D01*
X395368Y307268D01*
X395542Y306889D01*
X395706Y306506D01*
X395861Y306118D01*
X396006Y305727D01*
X396142Y305333D01*
X396268Y304935D01*
X396384Y304534D01*
X396491Y304131D01*
X396587Y303725D01*
X396673Y303317D01*
X396750Y302906D01*
X396816Y302494D01*
X396872Y302081D01*
X396918Y301666D01*
X396954Y301251D01*
X396980Y300834D01*
X396995Y300417D01*
X397000Y300000D01*
X396995Y299583D01*
X396980Y299166D01*
X396954Y298749D01*
X396918Y298334D01*
X396872Y297919D01*
X396816Y297506D01*
X396750Y297094D01*
X396673Y296683D01*
X396587Y296275D01*
X396491Y295869D01*
X396384Y295466D01*
X396268Y295065D01*
X396142Y294667D01*
X396006Y294273D01*
X395861Y293882D01*
X395706Y293494D01*
X395542Y293111D01*
X395368Y292732D01*
X395185Y292357D01*
X394993Y291986D01*
X394791Y291621D01*
X394581Y291260D01*
X394363Y290905D01*
X394135Y290555D01*
X393899Y290211D01*
X393655Y289873D01*
X393402Y289541D01*
X393141Y289215D01*
X392873Y288896D01*
X392596Y288583D01*
X392312Y288278D01*
X392021Y287979D01*
X391722Y287688D01*
X391417Y287404D01*
X391104Y287127D01*
X390785Y286859D01*
X390459Y286598D01*
X390127Y286345D01*
X389789Y286101D01*
X389445Y285865D01*
X389095Y285637D01*
X388740Y285419D01*
X388379Y285209D01*
X388014Y285007D01*
X387643Y284815D01*
X387268Y284632D01*
X386889Y284458D01*
X386506Y284294D01*
X386118Y284139D01*
X385727Y283994D01*
X385333Y283858D01*
X384935Y283732D01*
X384534Y283616D01*
X384131Y283509D01*
X383725Y283413D01*
X383317Y283327D01*
X382906Y283250D01*
X382494Y283184D01*
X382081Y283128D01*
X381666Y283082D01*
X381251Y283046D01*
X380834Y283020D01*
X380417Y283005D01*
X380000Y283000D01*
X379583Y283005D01*
X379166Y283020D01*
X378749Y283046D01*
X378334Y283082D01*
X377919Y283128D01*
X377506Y283184D01*
X377094Y283250D01*
X376683Y283327D01*
X376275Y283413D01*
X375869Y283509D01*
X375466Y283616D01*
X375065Y283732D01*
X374667Y283858D01*
X374273Y283994D01*
X373882Y284139D01*
X373494Y284294D01*
X373111Y284458D01*
X372732Y284632D01*
X372357Y284815D01*
X371986Y285007D01*
X371621Y285209D01*
X371260Y285419D01*
X370905Y285637D01*
X370555Y285865D01*
X370211Y286101D01*
X369873Y286345D01*
X369541Y286598D01*
X369215Y286859D01*
X368896Y287127D01*
X368583Y287404D01*
X368278Y287688D01*
X367979Y287979D01*
X367688Y288278D01*
X367404Y288583D01*
X367127Y288896D01*
X366859Y289215D01*
X366598Y289541D01*
X366345Y289873D01*
X366101Y290211D01*
X365865Y290555D01*
X365637Y290905D01*
X365419Y291260D01*
X365209Y291621D01*
X365007Y291986D01*
X364815Y292357D01*
X364632Y292732D01*
X364458Y293111D01*
X364294Y293494D01*
X364139Y293882D01*
X363994Y294273D01*
X363858Y294667D01*
X363732Y295065D01*
X363616Y295466D01*
X363509Y295869D01*
X363413Y296275D01*
X363327Y296683D01*
X363250Y297094D01*
X363184Y297506D01*
X363128Y297919D01*
X363082Y298334D01*
X363046Y298749D01*
X363020Y299166D01*
X363005Y299583D01*
X363000Y300000D01*
D12*
X381244Y267232D02*
X381241Y289686D01*
X381242Y289685D02*
X381491Y289719D01*
X381739Y289758D01*
X381987Y289803D01*
X382233Y289854D01*
X382478Y289911D01*
X382721Y289974D01*
X382963Y290042D01*
X383203Y290117D01*
X383441Y290198D01*
X383678Y290284D01*
X383912Y290376D01*
X384143Y290473D01*
X384373Y290576D01*
X384600Y290685D01*
X384824Y290799D01*
X385045Y290918D01*
X385263Y291043D01*
X385478Y291173D01*
X385691Y291308D01*
X385899Y291448D01*
X386104Y291594D01*
X386306Y291744D01*
X386504Y291899D01*
X386698Y292059D01*
X386888Y292223D01*
X387075Y292392D01*
X387257Y292566D01*
X387434Y292743D01*
X387608Y292925D01*
X387777Y293112D01*
X387941Y293302D01*
X388101Y293496D01*
X388256Y293694D01*
X388406Y293896D01*
X388552Y294101D01*
X388692Y294309D01*
X388827Y294522D01*
X388957Y294737D01*
X389082Y294955D01*
X389201Y295176D01*
X389315Y295400D01*
X389424Y295627D01*
X389527Y295857D01*
X389624Y296088D01*
X389716Y296322D01*
X389802Y296559D01*
X389883Y296797D01*
X389958Y297037D01*
X390026Y297279D01*
X390089Y297522D01*
X390146Y297767D01*
X390197Y298013D01*
X390242Y298261D01*
X390281Y298509D01*
X390315Y298758D01*
X412768Y298756D01*
X412728Y297953D01*
X412668Y297152D01*
X412588Y296352D01*
X412489Y295555D01*
X412371Y294760D01*
X412233Y293968D01*
X412075Y293180D01*
X411898Y292396D01*
X411702Y291617D01*
X411487Y290843D01*
X411254Y290074D01*
X411001Y289311D01*
X410730Y288555D01*
X410440Y287805D01*
X410132Y287063D01*
X409806Y286328D01*
X409462Y285602D01*
X409100Y284884D01*
X408721Y284176D01*
X408325Y283477D01*
X407912Y282788D01*
X407481Y282109D01*
X407035Y281441D01*
X406572Y280784D01*
X406093Y280139D01*
X405599Y279505D01*
X405089Y278884D01*
X404564Y278276D01*
X404024Y277680D01*
X403470Y277098D01*
X402902Y276530D01*
X402320Y275976D01*
X401724Y275436D01*
X401116Y274911D01*
X400495Y274401D01*
X399861Y273907D01*
X399216Y273428D01*
X398559Y272965D01*
X397891Y272519D01*
X397212Y272088D01*
X396523Y271675D01*
X395824Y271279D01*
X395116Y270900D01*
X394398Y270538D01*
X393672Y270194D01*
X392937Y269868D01*
X392195Y269560D01*
X391445Y269270D01*
X390689Y268999D01*
X389926Y268746D01*
X389157Y268513D01*
X388383Y268298D01*
X387604Y268102D01*
X386820Y267925D01*
X386032Y267767D01*
X385240Y267629D01*
X384445Y267511D01*
X383648Y267412D01*
X382848Y267332D01*
X382047Y267272D01*
X381244Y267232D01*
X381244Y269597D01*
X381986Y269637D01*
X382726Y269694D01*
X383465Y269770D01*
X384202Y269864D01*
X384936Y269975D01*
X385668Y270104D01*
X386396Y270252D01*
X387120Y270417D01*
X387840Y270599D01*
X388555Y270799D01*
X389265Y271017D01*
X389970Y271252D01*
X390668Y271504D01*
X391361Y271772D01*
X392046Y272058D01*
X392725Y272360D01*
X393396Y272679D01*
X394058Y273014D01*
X394713Y273366D01*
X395359Y273733D01*
X395995Y274115D01*
X396622Y274513D01*
X397239Y274927D01*
X397846Y275355D01*
X398442Y275798D01*
X399028Y276255D01*
X399601Y276727D01*
X400164Y277212D01*
X400714Y277711D01*
X401252Y278223D01*
X401777Y278748D01*
X402289Y279286D01*
X402788Y279836D01*
X403273Y280399D01*
X403745Y280972D01*
X404202Y281558D01*
X404645Y282154D01*
X405073Y282761D01*
X405487Y283378D01*
X405885Y284005D01*
X406267Y284641D01*
X406634Y285287D01*
X406986Y285942D01*
X407321Y286604D01*
X407640Y287275D01*
X407942Y287954D01*
X408228Y288639D01*
X408496Y289332D01*
X408748Y290030D01*
X408983Y290735D01*
X409201Y291445D01*
X409401Y292160D01*
X409583Y292880D01*
X409748Y293604D01*
X409896Y294332D01*
X410025Y295064D01*
X410136Y295798D01*
X410230Y296535D01*
X410306Y297274D01*
X410363Y298014D01*
X410403Y298756D01*
X408036Y298756D01*
X407998Y298075D01*
X407943Y297396D01*
X407871Y296717D01*
X407783Y296041D01*
X407679Y295367D01*
X407558Y294696D01*
X407421Y294028D01*
X407268Y293364D01*
X407099Y292704D01*
X406914Y292047D01*
X406712Y291396D01*
X406496Y290749D01*
X406263Y290108D01*
X406015Y289473D01*
X405752Y288844D01*
X405473Y288222D01*
X405179Y287607D01*
X404871Y286999D01*
X404548Y286398D01*
X404210Y285806D01*
X403858Y285222D01*
X403492Y284647D01*
X403112Y284080D01*
X402718Y283524D01*
X402311Y282977D01*
X401891Y282440D01*
X401458Y281913D01*
X401012Y281397D01*
X400554Y280892D01*
X400084Y280398D01*
X399602Y279916D01*
X399108Y279446D01*
X398603Y278988D01*
X398087Y278542D01*
X397560Y278109D01*
X397023Y277689D01*
X396476Y277282D01*
X395920Y276888D01*
X395353Y276508D01*
X394778Y276142D01*
X394194Y275790D01*
X393602Y275452D01*
X393001Y275129D01*
X392393Y274821D01*
X391778Y274527D01*
X391156Y274248D01*
X390527Y273985D01*
X389892Y273737D01*
X389251Y273504D01*
X388604Y273288D01*
X387953Y273086D01*
X387296Y272901D01*
X386636Y272732D01*
X385972Y272579D01*
X385304Y272442D01*
X384633Y272321D01*
X383959Y272217D01*
X383283Y272129D01*
X382604Y272057D01*
X381925Y272002D01*
X381244Y271964D01*
X381244Y274330D01*
X381864Y274368D01*
X382483Y274420D01*
X383100Y274488D01*
X383715Y274570D01*
X384329Y274667D01*
X384940Y274779D01*
X385547Y274906D01*
X386152Y275047D01*
X386753Y275203D01*
X387350Y275374D01*
X387943Y275558D01*
X388531Y275757D01*
X389115Y275971D01*
X389693Y276198D01*
X390265Y276439D01*
X390831Y276694D01*
X391391Y276962D01*
X391944Y277244D01*
X392491Y277539D01*
X393030Y277848D01*
X393561Y278169D01*
X394084Y278503D01*
X394600Y278850D01*
X395106Y279209D01*
X395604Y279580D01*
X396093Y279963D01*
X396573Y280357D01*
X397042Y280763D01*
X397502Y281181D01*
X397952Y281609D01*
X398391Y282048D01*
X398819Y282498D01*
X399237Y282958D01*
X399643Y283427D01*
X400037Y283907D01*
X400420Y284396D01*
X400791Y284894D01*
X401150Y285400D01*
X401497Y285916D01*
X401831Y286439D01*
X402152Y286970D01*
X402461Y287509D01*
X402756Y288056D01*
X403038Y288609D01*
X403306Y289169D01*
X403561Y289735D01*
X403802Y290307D01*
X404029Y290885D01*
X404243Y291469D01*
X404442Y292057D01*
X404626Y292650D01*
X404797Y293247D01*
X404953Y293848D01*
X405094Y294453D01*
X405221Y295060D01*
X405333Y295671D01*
X405430Y296285D01*
X405512Y296900D01*
X405580Y297517D01*
X405632Y298136D01*
X405670Y298756D01*
X403303Y298756D01*
X403266Y298188D01*
X403214Y297621D01*
X403149Y297055D01*
X403071Y296491D01*
X402978Y295929D01*
X402872Y295370D01*
X402752Y294813D01*
X402619Y294259D01*
X402472Y293709D01*
X402312Y293163D01*
X402138Y292620D01*
X401952Y292082D01*
X401752Y291549D01*
X401539Y291021D01*
X401314Y290498D01*
X401076Y289981D01*
X400825Y289470D01*
X400562Y288965D01*
X400286Y288466D01*
X399999Y287975D01*
X399700Y287490D01*
X399388Y287013D01*
X399066Y286544D01*
X398732Y286083D01*
X398387Y285630D01*
X398031Y285186D01*
X397664Y284750D01*
X397286Y284324D01*
X396899Y283906D01*
X396501Y283499D01*
X396094Y283101D01*
X395676Y282714D01*
X395250Y282336D01*
X394814Y281969D01*
X394370Y281613D01*
X393917Y281268D01*
X393456Y280934D01*
X392987Y280612D01*
X392510Y280300D01*
X392025Y280001D01*
X391534Y279714D01*
X391035Y279438D01*
X390530Y279175D01*
X390019Y278924D01*
X389502Y278686D01*
X388979Y278461D01*
X388451Y278248D01*
X387918Y278048D01*
X387380Y277862D01*
X386837Y277688D01*
X386291Y277528D01*
X385741Y277381D01*
X385187Y277248D01*
X384630Y277128D01*
X384071Y277022D01*
X383509Y276929D01*
X382945Y276851D01*
X382379Y276786D01*
X381812Y276734D01*
X381244Y276697D01*
X381244Y279065D01*
X381750Y279101D01*
X382255Y279150D01*
X382759Y279210D01*
X383261Y279283D01*
X383762Y279368D01*
X384260Y279465D01*
X384756Y279574D01*
X385249Y279695D01*
X385738Y279828D01*
X386225Y279973D01*
X386708Y280130D01*
X387187Y280298D01*
X387661Y280477D01*
X388131Y280669D01*
X388597Y280871D01*
X389057Y281085D01*
X389512Y281309D01*
X389962Y281545D01*
X390406Y281792D01*
X390843Y282049D01*
X391274Y282316D01*
X391699Y282594D01*
X392117Y282883D01*
X392528Y283181D01*
X392931Y283489D01*
X393327Y283807D01*
X393715Y284134D01*
X394095Y284470D01*
X394466Y284816D01*
X394829Y285171D01*
X395184Y285534D01*
X395530Y285905D01*
X395866Y286285D01*
X396193Y286673D01*
X396511Y287069D01*
X396819Y287472D01*
X397117Y287883D01*
X397406Y288301D01*
X397684Y288726D01*
X397951Y289157D01*
X398208Y289594D01*
X398455Y290038D01*
X398691Y290488D01*
X398915Y290943D01*
X399129Y291403D01*
X399331Y291869D01*
X399523Y292339D01*
X399702Y292813D01*
X399870Y293292D01*
X400027Y293775D01*
X400172Y294262D01*
X400305Y294751D01*
X400426Y295244D01*
X400535Y295740D01*
X400632Y296238D01*
X400717Y296739D01*
X400790Y297241D01*
X400850Y297745D01*
X400899Y298250D01*
X400935Y298756D01*
X398566Y298756D01*
X398531Y298305D01*
X398484Y297854D01*
X398426Y297404D01*
X398357Y296956D01*
X398278Y296510D01*
X398187Y296066D01*
X398086Y295624D01*
X397974Y295185D01*
X397852Y294749D01*
X397718Y294316D01*
X397575Y293886D01*
X397421Y293460D01*
X397256Y293037D01*
X397082Y292619D01*
X396897Y292205D01*
X396702Y291796D01*
X396497Y291392D01*
X396283Y290992D01*
X396058Y290599D01*
X395825Y290210D01*
X395582Y289828D01*
X395329Y289451D01*
X395068Y289081D01*
X394797Y288717D01*
X394518Y288360D01*
X394230Y288010D01*
X393934Y287667D01*
X393630Y287332D01*
X393317Y287003D01*
X392997Y286683D01*
X392668Y286370D01*
X392333Y286066D01*
X391990Y285770D01*
X391640Y285482D01*
X391283Y285203D01*
X390919Y284932D01*
X390549Y284671D01*
X390172Y284418D01*
X389790Y284175D01*
X389401Y283942D01*
X389008Y283717D01*
X388608Y283503D01*
X388204Y283298D01*
X387795Y283103D01*
X387381Y282918D01*
X386963Y282744D01*
X386540Y282579D01*
X386114Y282425D01*
X385684Y282282D01*
X385251Y282148D01*
X384815Y282026D01*
X384376Y281914D01*
X383934Y281813D01*
X383490Y281722D01*
X383044Y281643D01*
X382596Y281574D01*
X382146Y281516D01*
X381695Y281469D01*
X381244Y281434D01*
X381243Y283804D01*
X381639Y283839D01*
X382033Y283884D01*
X382426Y283938D01*
X382818Y284002D01*
X383208Y284076D01*
X383597Y284159D01*
X383983Y284252D01*
X384366Y284354D01*
X384747Y284465D01*
X385126Y284586D01*
X385501Y284716D01*
X385873Y284855D01*
X386241Y285003D01*
X386606Y285160D01*
X386966Y285326D01*
X387323Y285500D01*
X387675Y285684D01*
X388023Y285875D01*
X388365Y286076D01*
X388703Y286284D01*
X389036Y286501D01*
X389363Y286726D01*
X389685Y286959D01*
X390000Y287199D01*
X390310Y287447D01*
X390614Y287703D01*
X390911Y287966D01*
X391202Y288236D01*
X391486Y288514D01*
X391764Y288798D01*
X392034Y289089D01*
X392297Y289386D01*
X392553Y289690D01*
X392801Y290000D01*
X393041Y290315D01*
X393274Y290637D01*
X393499Y290964D01*
X393716Y291297D01*
X393924Y291635D01*
X394125Y291977D01*
X394316Y292325D01*
X394500Y292677D01*
X394674Y293034D01*
X394840Y293394D01*
X394997Y293759D01*
X395145Y294127D01*
X395284Y294499D01*
X395414Y294874D01*
X395535Y295253D01*
X395646Y295634D01*
X395748Y296017D01*
X395841Y296403D01*
X395924Y296792D01*
X395998Y297182D01*
X396062Y297574D01*
X396116Y297967D01*
X396161Y298361D01*
X396196Y298757D01*
X393824Y298757D01*
X393790Y298420D01*
X393747Y298084D01*
X393696Y297749D01*
X393637Y297415D01*
X393570Y297083D01*
X393495Y296753D01*
X393412Y296424D01*
X393320Y296098D01*
X393221Y295774D01*
X393114Y295453D01*
X392999Y295134D01*
X392876Y294818D01*
X392746Y294505D01*
X392608Y294196D01*
X392463Y293890D01*
X392310Y293587D01*
X392150Y293289D01*
X391982Y292994D01*
X391808Y292704D01*
X391626Y292418D01*
X391438Y292136D01*
X391242Y291859D01*
X391040Y291587D01*
X390831Y291321D01*
X390616Y291059D01*
X390395Y290802D01*
X390167Y290551D01*
X389934Y290306D01*
X389694Y290066D01*
X389449Y289833D01*
X389198Y289605D01*
X388941Y289384D01*
X388679Y289169D01*
X388413Y288960D01*
X388141Y288758D01*
X387864Y288562D01*
X387582Y288374D01*
X387296Y288192D01*
X387006Y288018D01*
X386711Y287850D01*
X386413Y287690D01*
X386110Y287537D01*
X385804Y287392D01*
X385495Y287254D01*
X385182Y287124D01*
X384866Y287001D01*
X384547Y286886D01*
X384226Y286779D01*
X383902Y286680D01*
X383576Y286588D01*
X383247Y286505D01*
X382917Y286430D01*
X382585Y286363D01*
X382251Y286304D01*
X381916Y286253D01*
X381580Y286210D01*
X381243Y286176D01*
X381242Y288551D01*
X381519Y288585D01*
X381794Y288625D01*
X382069Y288671D01*
X382342Y288725D01*
X382614Y288785D01*
X382885Y288851D01*
X383154Y288924D01*
X383421Y289004D01*
X383686Y289090D01*
X383948Y289182D01*
X384209Y289281D01*
X384467Y289386D01*
X384722Y289497D01*
X384975Y289614D01*
X385225Y289738D01*
X385472Y289867D01*
X385715Y290002D01*
X385955Y290143D01*
X386192Y290290D01*
X386425Y290443D01*
X386654Y290601D01*
X386880Y290765D01*
X387101Y290934D01*
X387318Y291108D01*
X387531Y291288D01*
X387740Y291473D01*
X387944Y291662D01*
X388143Y291857D01*
X388338Y292056D01*
X388527Y292260D01*
X388712Y292469D01*
X388892Y292682D01*
X389066Y292899D01*
X389235Y293120D01*
X389399Y293346D01*
X389557Y293575D01*
X389710Y293808D01*
X389857Y294045D01*
X389998Y294285D01*
X390133Y294528D01*
X390262Y294775D01*
X390386Y295025D01*
X390503Y295278D01*
X390614Y295533D01*
X390719Y295791D01*
X390818Y296052D01*
X390910Y296314D01*
X390996Y296579D01*
X391076Y296846D01*
X391149Y297115D01*
X391215Y297386D01*
X391275Y297658D01*
X391329Y297931D01*
X391375Y298206D01*
X391415Y298481D01*
X391449Y298758D01*
X378756Y332768D02*
X378759Y310314D01*
X378758Y310315D02*
X378509Y310281D01*
X378261Y310242D01*
X378013Y310197D01*
X377767Y310146D01*
X377522Y310089D01*
X377279Y310026D01*
X377037Y309958D01*
X376797Y309883D01*
X376559Y309802D01*
X376322Y309716D01*
X376088Y309624D01*
X375857Y309527D01*
X375627Y309424D01*
X375400Y309315D01*
X375176Y309201D01*
X374955Y309082D01*
X374737Y308957D01*
X374522Y308827D01*
X374309Y308692D01*
X374101Y308552D01*
X373896Y308406D01*
X373694Y308256D01*
X373496Y308101D01*
X373302Y307941D01*
X373112Y307777D01*
X372925Y307608D01*
X372743Y307434D01*
X372566Y307257D01*
X372392Y307075D01*
X372223Y306888D01*
X372059Y306698D01*
X371899Y306504D01*
X371744Y306306D01*
X371594Y306104D01*
X371448Y305899D01*
X371308Y305691D01*
X371173Y305478D01*
X371043Y305263D01*
X370918Y305045D01*
X370799Y304824D01*
X370685Y304600D01*
X370576Y304373D01*
X370473Y304143D01*
X370376Y303912D01*
X370284Y303678D01*
X370198Y303441D01*
X370117Y303203D01*
X370042Y302963D01*
X369974Y302721D01*
X369911Y302478D01*
X369854Y302233D01*
X369803Y301987D01*
X369758Y301739D01*
X369719Y301491D01*
X369685Y301242D01*
X347232Y301244D01*
X347272Y302047D01*
X347332Y302848D01*
X347412Y303648D01*
X347511Y304445D01*
X347629Y305240D01*
X347767Y306032D01*
X347925Y306820D01*
X348102Y307604D01*
X348298Y308383D01*
X348513Y309157D01*
X348746Y309926D01*
X348999Y310689D01*
X349270Y311445D01*
X349560Y312195D01*
X349868Y312937D01*
X350194Y313672D01*
X350538Y314398D01*
X350900Y315116D01*
X351279Y315824D01*
X351675Y316523D01*
X352088Y317212D01*
X352519Y317891D01*
X352965Y318559D01*
X353428Y319216D01*
X353907Y319861D01*
X354401Y320495D01*
X354911Y321116D01*
X355436Y321724D01*
X355976Y322320D01*
X356530Y322902D01*
X357098Y323470D01*
X357680Y324024D01*
X358276Y324564D01*
X358884Y325089D01*
X359505Y325599D01*
X360139Y326093D01*
X360784Y326572D01*
X361441Y327035D01*
X362109Y327481D01*
X362788Y327912D01*
X363477Y328325D01*
X364176Y328721D01*
X364884Y329100D01*
X365602Y329462D01*
X366328Y329806D01*
X367063Y330132D01*
X367805Y330440D01*
X368555Y330730D01*
X369311Y331001D01*
X370074Y331254D01*
X370843Y331487D01*
X371617Y331702D01*
X372396Y331898D01*
X373180Y332075D01*
X373968Y332233D01*
X374760Y332371D01*
X375555Y332489D01*
X376352Y332588D01*
X377152Y332668D01*
X377953Y332728D01*
X378756Y332768D01*
X378756Y330403D01*
X378014Y330363D01*
X377274Y330306D01*
X376535Y330230D01*
X375798Y330136D01*
X375064Y330025D01*
X374332Y329896D01*
X373604Y329748D01*
X372880Y329583D01*
X372160Y329401D01*
X371445Y329201D01*
X370735Y328983D01*
X370030Y328748D01*
X369332Y328496D01*
X368639Y328228D01*
X367954Y327942D01*
X367275Y327640D01*
X366604Y327321D01*
X365942Y326986D01*
X365287Y326634D01*
X364641Y326267D01*
X364005Y325885D01*
X363378Y325487D01*
X362761Y325073D01*
X362154Y324645D01*
X361558Y324202D01*
X360972Y323745D01*
X360399Y323273D01*
X359836Y322788D01*
X359286Y322289D01*
X358748Y321777D01*
X358223Y321252D01*
X357711Y320714D01*
X357212Y320164D01*
X356727Y319601D01*
X356255Y319028D01*
X355798Y318442D01*
X355355Y317846D01*
X354927Y317239D01*
X354513Y316622D01*
X354115Y315995D01*
X353733Y315359D01*
X353366Y314713D01*
X353014Y314058D01*
X352679Y313396D01*
X352360Y312725D01*
X352058Y312046D01*
X351772Y311361D01*
X351504Y310668D01*
X351252Y309970D01*
X351017Y309265D01*
X350799Y308555D01*
X350599Y307840D01*
X350417Y307120D01*
X350252Y306396D01*
X350104Y305668D01*
X349975Y304936D01*
X349864Y304202D01*
X349770Y303465D01*
X349694Y302726D01*
X349637Y301986D01*
X349597Y301244D01*
X351964Y301244D01*
X352002Y301925D01*
X352057Y302604D01*
X352129Y303283D01*
X352217Y303959D01*
X352321Y304633D01*
X352442Y305304D01*
X352579Y305972D01*
X352732Y306636D01*
X352901Y307296D01*
X353086Y307953D01*
X353288Y308604D01*
X353504Y309251D01*
X353737Y309892D01*
X353985Y310527D01*
X354248Y311156D01*
X354527Y311778D01*
X354821Y312393D01*
X355129Y313001D01*
X355452Y313602D01*
X355790Y314194D01*
X356142Y314778D01*
X356508Y315353D01*
X356888Y315920D01*
X357282Y316476D01*
X357689Y317023D01*
X358109Y317560D01*
X358542Y318087D01*
X358988Y318603D01*
X359446Y319108D01*
X359916Y319602D01*
X360398Y320084D01*
X360892Y320554D01*
X361397Y321012D01*
X361913Y321458D01*
X362440Y321891D01*
X362977Y322311D01*
X363524Y322718D01*
X364080Y323112D01*
X364647Y323492D01*
X365222Y323858D01*
X365806Y324210D01*
X366398Y324548D01*
X366999Y324871D01*
X367607Y325179D01*
X368222Y325473D01*
X368844Y325752D01*
X369473Y326015D01*
X370108Y326263D01*
X370749Y326496D01*
X371396Y326712D01*
X372047Y326914D01*
X372704Y327099D01*
X373364Y327268D01*
X374028Y327421D01*
X374696Y327558D01*
X375367Y327679D01*
X376041Y327783D01*
X376717Y327871D01*
X377396Y327943D01*
X378075Y327998D01*
X378756Y328036D01*
X378756Y325670D01*
X378136Y325632D01*
X377517Y325580D01*
X376900Y325512D01*
X376285Y325430D01*
X375671Y325333D01*
X375060Y325221D01*
X374453Y325094D01*
X373848Y324953D01*
X373247Y324797D01*
X372650Y324626D01*
X372057Y324442D01*
X371469Y324243D01*
X370885Y324029D01*
X370307Y323802D01*
X369735Y323561D01*
X369169Y323306D01*
X368609Y323038D01*
X368056Y322756D01*
X367509Y322461D01*
X366970Y322152D01*
X366439Y321831D01*
X365916Y321497D01*
X365400Y321150D01*
X364894Y320791D01*
X364396Y320420D01*
X363907Y320037D01*
X363427Y319643D01*
X362958Y319237D01*
X362498Y318819D01*
X362048Y318391D01*
X361609Y317952D01*
X361181Y317502D01*
X360763Y317042D01*
X360357Y316573D01*
X359963Y316093D01*
X359580Y315604D01*
X359209Y315106D01*
X358850Y314600D01*
X358503Y314084D01*
X358169Y313561D01*
X357848Y313030D01*
X357539Y312491D01*
X357244Y311944D01*
X356962Y311391D01*
X356694Y310831D01*
X356439Y310265D01*
X356198Y309693D01*
X355971Y309115D01*
X355757Y308531D01*
X355558Y307943D01*
X355374Y307350D01*
X355203Y306753D01*
X355047Y306152D01*
X354906Y305547D01*
X354779Y304940D01*
X354667Y304329D01*
X354570Y303715D01*
X354488Y303100D01*
X354420Y302483D01*
X354368Y301864D01*
X354330Y301244D01*
X356697Y301244D01*
X356734Y301812D01*
X356786Y302379D01*
X356851Y302945D01*
X356929Y303509D01*
X357022Y304071D01*
X357128Y304630D01*
X357248Y305187D01*
X357381Y305741D01*
X357528Y306291D01*
X357688Y306837D01*
X357862Y307380D01*
X358048Y307918D01*
X358248Y308451D01*
X358461Y308979D01*
X358686Y309502D01*
X358924Y310019D01*
X359175Y310530D01*
X359438Y311035D01*
X359714Y311534D01*
X360001Y312025D01*
X360300Y312510D01*
X360612Y312987D01*
X360934Y313456D01*
X361268Y313917D01*
X361613Y314370D01*
X361969Y314814D01*
X362336Y315250D01*
X362714Y315676D01*
X363101Y316094D01*
X363499Y316501D01*
X363906Y316899D01*
X364324Y317286D01*
X364750Y317664D01*
X365186Y318031D01*
X365630Y318387D01*
X366083Y318732D01*
X366544Y319066D01*
X367013Y319388D01*
X367490Y319700D01*
X367975Y319999D01*
X368466Y320286D01*
X368965Y320562D01*
X369470Y320825D01*
X369981Y321076D01*
X370498Y321314D01*
X371021Y321539D01*
X371549Y321752D01*
X372082Y321952D01*
X372620Y322138D01*
X373163Y322312D01*
X373709Y322472D01*
X374259Y322619D01*
X374813Y322752D01*
X375370Y322872D01*
X375929Y322978D01*
X376491Y323071D01*
X377055Y323149D01*
X377621Y323214D01*
X378188Y323266D01*
X378756Y323303D01*
X378756Y320935D01*
X378250Y320899D01*
X377745Y320850D01*
X377241Y320790D01*
X376739Y320717D01*
X376238Y320632D01*
X375740Y320535D01*
X375244Y320426D01*
X374751Y320305D01*
X374262Y320172D01*
X373775Y320027D01*
X373292Y319870D01*
X372813Y319702D01*
X372339Y319523D01*
X371869Y319331D01*
X371403Y319129D01*
X370943Y318915D01*
X370488Y318691D01*
X370038Y318455D01*
X369594Y318208D01*
X369157Y317951D01*
X368726Y317684D01*
X368301Y317406D01*
X367883Y317117D01*
X367472Y316819D01*
X367069Y316511D01*
X366673Y316193D01*
X366285Y315866D01*
X365905Y315530D01*
X365534Y315184D01*
X365171Y314829D01*
X364816Y314466D01*
X364470Y314095D01*
X364134Y313715D01*
X363807Y313327D01*
X363489Y312931D01*
X363181Y312528D01*
X362883Y312117D01*
X362594Y311699D01*
X362316Y311274D01*
X362049Y310843D01*
X361792Y310406D01*
X361545Y309962D01*
X361309Y309512D01*
X361085Y309057D01*
X360871Y308597D01*
X360669Y308131D01*
X360477Y307661D01*
X360298Y307187D01*
X360130Y306708D01*
X359973Y306225D01*
X359828Y305738D01*
X359695Y305249D01*
X359574Y304756D01*
X359465Y304260D01*
X359368Y303762D01*
X359283Y303261D01*
X359210Y302759D01*
X359150Y302255D01*
X359101Y301750D01*
X359065Y301244D01*
X361434Y301244D01*
X361469Y301695D01*
X361516Y302146D01*
X361574Y302596D01*
X361643Y303044D01*
X361722Y303490D01*
X361813Y303934D01*
X361914Y304376D01*
X362026Y304815D01*
X362148Y305251D01*
X362282Y305684D01*
X362425Y306114D01*
X362579Y306540D01*
X362744Y306963D01*
X362918Y307381D01*
X363103Y307795D01*
X363298Y308204D01*
X363503Y308608D01*
X363717Y309008D01*
X363942Y309401D01*
X364175Y309790D01*
X364418Y310172D01*
X364671Y310549D01*
X364932Y310919D01*
X365203Y311283D01*
X365482Y311640D01*
X365770Y311990D01*
X366066Y312333D01*
X366370Y312668D01*
X366683Y312997D01*
X367003Y313317D01*
X367332Y313630D01*
X367667Y313934D01*
X368010Y314230D01*
X368360Y314518D01*
X368717Y314797D01*
X369081Y315068D01*
X369451Y315329D01*
X369828Y315582D01*
X370210Y315825D01*
X370599Y316058D01*
X370992Y316283D01*
X371392Y316497D01*
X371796Y316702D01*
X372205Y316897D01*
X372619Y317082D01*
X373037Y317256D01*
X373460Y317421D01*
X373886Y317575D01*
X374316Y317718D01*
X374749Y317852D01*
X375185Y317974D01*
X375624Y318086D01*
X376066Y318187D01*
X376510Y318278D01*
X376956Y318357D01*
X377404Y318426D01*
X377854Y318484D01*
X378305Y318531D01*
X378756Y318566D01*
X378757Y316196D01*
X378361Y316161D01*
X377967Y316116D01*
X377574Y316062D01*
X377182Y315998D01*
X376792Y315924D01*
X376403Y315841D01*
X376017Y315748D01*
X375634Y315646D01*
X375253Y315535D01*
X374874Y315414D01*
X374499Y315284D01*
X374127Y315145D01*
X373759Y314997D01*
X373394Y314840D01*
X373034Y314674D01*
X372677Y314500D01*
X372325Y314316D01*
X371977Y314125D01*
X371635Y313924D01*
X371297Y313716D01*
X370964Y313499D01*
X370637Y313274D01*
X370315Y313041D01*
X370000Y312801D01*
X369690Y312553D01*
X369386Y312297D01*
X369089Y312034D01*
X368798Y311764D01*
X368514Y311486D01*
X368236Y311202D01*
X367966Y310911D01*
X367703Y310614D01*
X367447Y310310D01*
X367199Y310000D01*
X366959Y309685D01*
X366726Y309363D01*
X366501Y309036D01*
X366284Y308703D01*
X366076Y308365D01*
X365875Y308023D01*
X365684Y307675D01*
X365500Y307323D01*
X365326Y306966D01*
X365160Y306606D01*
X365003Y306241D01*
X364855Y305873D01*
X364716Y305501D01*
X364586Y305126D01*
X364465Y304747D01*
X364354Y304366D01*
X364252Y303983D01*
X364159Y303597D01*
X364076Y303208D01*
X364002Y302818D01*
X363938Y302426D01*
X363884Y302033D01*
X363839Y301639D01*
X363804Y301243D01*
X366176Y301243D01*
X366210Y301580D01*
X366253Y301916D01*
X366304Y302251D01*
X366363Y302585D01*
X366430Y302917D01*
X366505Y303247D01*
X366588Y303576D01*
X366680Y303902D01*
X366779Y304226D01*
X366886Y304547D01*
X367001Y304866D01*
X367124Y305182D01*
X367254Y305495D01*
X367392Y305804D01*
X367537Y306110D01*
X367690Y306413D01*
X367850Y306711D01*
X368018Y307006D01*
X368192Y307296D01*
X368374Y307582D01*
X368562Y307864D01*
X368758Y308141D01*
X368960Y308413D01*
X369169Y308679D01*
X369384Y308941D01*
X369605Y309198D01*
X369833Y309449D01*
X370066Y309694D01*
X370306Y309934D01*
X370551Y310167D01*
X370802Y310395D01*
X371059Y310616D01*
X371321Y310831D01*
X371587Y311040D01*
X371859Y311242D01*
X372136Y311438D01*
X372418Y311626D01*
X372704Y311808D01*
X372994Y311982D01*
X373289Y312150D01*
X373587Y312310D01*
X373890Y312463D01*
X374196Y312608D01*
X374505Y312746D01*
X374818Y312876D01*
X375134Y312999D01*
X375453Y313114D01*
X375774Y313221D01*
X376098Y313320D01*
X376424Y313412D01*
X376753Y313495D01*
X377083Y313570D01*
X377415Y313637D01*
X377749Y313696D01*
X378084Y313747D01*
X378420Y313790D01*
X378757Y313824D01*
X378758Y311449D01*
X378481Y311415D01*
X378206Y311375D01*
X377931Y311329D01*
X377658Y311275D01*
X377386Y311215D01*
X377115Y311149D01*
X376846Y311076D01*
X376579Y310996D01*
X376314Y310910D01*
X376052Y310818D01*
X375791Y310719D01*
X375533Y310614D01*
X375278Y310503D01*
X375025Y310386D01*
X374775Y310262D01*
X374528Y310133D01*
X374285Y309998D01*
X374045Y309857D01*
X373808Y309710D01*
X373575Y309557D01*
X373346Y309399D01*
X373120Y309235D01*
X372899Y309066D01*
X372682Y308892D01*
X372469Y308712D01*
X372260Y308527D01*
X372056Y308338D01*
X371857Y308143D01*
X371662Y307944D01*
X371473Y307740D01*
X371288Y307531D01*
X371108Y307318D01*
X370934Y307101D01*
X370765Y306880D01*
X370601Y306654D01*
X370443Y306425D01*
X370290Y306192D01*
X370143Y305955D01*
X370002Y305715D01*
X369867Y305472D01*
X369738Y305225D01*
X369614Y304975D01*
X369497Y304722D01*
X369386Y304467D01*
X369281Y304209D01*
X369182Y303948D01*
X369090Y303686D01*
X369004Y303421D01*
X368924Y303154D01*
X368851Y302885D01*
X368785Y302614D01*
X368725Y302342D01*
X368671Y302069D01*
X368625Y301794D01*
X368585Y301519D01*
X368551Y301242D01*
D13*
X345710Y300000D02*
X345720Y300842D01*
X345751Y301683D01*
X345803Y302523D01*
X345875Y303361D01*
X345968Y304197D01*
X346081Y305031D01*
X346215Y305862D01*
X346369Y306690D01*
X346543Y307513D01*
X346738Y308332D01*
X346952Y309146D01*
X347187Y309954D01*
X347441Y310756D01*
X347714Y311552D01*
X348008Y312341D01*
X348320Y313122D01*
X348652Y313896D01*
X349002Y314661D01*
X349371Y315417D01*
X349759Y316164D01*
X350165Y316901D01*
X350588Y317629D01*
X351030Y318345D01*
X351489Y319051D01*
X351965Y319744D01*
X352458Y320427D01*
X352968Y321096D01*
X353493Y321753D01*
X354035Y322397D01*
X354593Y323028D01*
X355166Y323644D01*
X355753Y324247D01*
X356356Y324834D01*
X356972Y325407D01*
X357603Y325965D01*
X358247Y326507D01*
X358904Y327032D01*
X359573Y327542D01*
X360256Y328035D01*
X360949Y328511D01*
X361655Y328970D01*
X362371Y329412D01*
X363099Y329835D01*
X363836Y330241D01*
X364583Y330629D01*
X365339Y330998D01*
X366104Y331348D01*
X366878Y331680D01*
X367659Y331992D01*
X368448Y332286D01*
X369244Y332559D01*
X370046Y332813D01*
X370854Y333048D01*
X371668Y333262D01*
X372487Y333457D01*
X373310Y333631D01*
X374138Y333785D01*
X374969Y333919D01*
X375803Y334032D01*
X376639Y334125D01*
X377477Y334197D01*
X378317Y334249D01*
X379158Y334280D01*
X380000Y334290D01*
X380842Y334280D01*
X381683Y334249D01*
X382523Y334197D01*
X383361Y334125D01*
X384197Y334032D01*
X385031Y333919D01*
X385862Y333785D01*
X386690Y333631D01*
X387513Y333457D01*
X388332Y333262D01*
X389146Y333048D01*
X389954Y332813D01*
X390756Y332559D01*
X391552Y332286D01*
X392341Y331992D01*
X393122Y331680D01*
X393896Y331348D01*
X394661Y330998D01*
X395417Y330629D01*
X396164Y330241D01*
X396901Y329835D01*
X397629Y329412D01*
X398345Y328970D01*
X399051Y328511D01*
X399744Y328035D01*
X400427Y327542D01*
X401096Y327032D01*
X401753Y326507D01*
X402397Y325965D01*
X403028Y325407D01*
X403644Y324834D01*
X404247Y324247D01*
X404834Y323644D01*
X405407Y323028D01*
X405965Y322397D01*
X406507Y321753D01*
X407032Y321096D01*
X407542Y320427D01*
X408035Y319744D01*
X408511Y319051D01*
X408970Y318345D01*
X409412Y317629D01*
X409835Y316901D01*
X410241Y316164D01*
X410629Y315417D01*
X410998Y314661D01*
X411348Y313896D01*
X411680Y313122D01*
X411992Y312341D01*
X412286Y311552D01*
X412559Y310756D01*
X412813Y309954D01*
X413048Y309146D01*
X413262Y308332D01*
X413457Y307513D01*
X413631Y306690D01*
X413785Y305862D01*
X413919Y305031D01*
X414032Y304197D01*
X414125Y303361D01*
X414197Y302523D01*
X414249Y301683D01*
X414280Y300842D01*
X414290Y300000D01*
X414280Y299158D01*
X414249Y298317D01*
X414197Y297477D01*
X414125Y296639D01*
X414032Y295803D01*
X413919Y294969D01*
X413785Y294138D01*
X413631Y293310D01*
X413457Y292487D01*
X413262Y291668D01*
X413048Y290854D01*
X412813Y290046D01*
X412559Y289244D01*
X412286Y288448D01*
X411992Y287659D01*
X411680Y286878D01*
X411348Y286104D01*
X410998Y285339D01*
X410629Y284583D01*
X410241Y283836D01*
X409835Y283099D01*
X409412Y282371D01*
X408970Y281655D01*
X408511Y280949D01*
X408035Y280256D01*
X407542Y279573D01*
X407032Y278904D01*
X406507Y278247D01*
X405965Y277603D01*
X405407Y276972D01*
X404834Y276356D01*
X404247Y275753D01*
X403644Y275166D01*
X403028Y274593D01*
X402397Y274035D01*
X401753Y273493D01*
X401096Y272968D01*
X400427Y272458D01*
X399744Y271965D01*
X399051Y271489D01*
X398345Y271030D01*
X397629Y270588D01*
X396901Y270165D01*
X396164Y269759D01*
X395417Y269371D01*
X394661Y269002D01*
X393896Y268652D01*
X393122Y268320D01*
X392341Y268008D01*
X391552Y267714D01*
X390756Y267441D01*
X389954Y267187D01*
X389146Y266952D01*
X388332Y266738D01*
X387513Y266543D01*
X386690Y266369D01*
X385862Y266215D01*
X385031Y266081D01*
X384197Y265968D01*
X383361Y265875D01*
X382523Y265803D01*
X381683Y265751D01*
X380842Y265720D01*
X380000Y265710D01*
X379158Y265720D01*
X378317Y265751D01*
X377477Y265803D01*
X376639Y265875D01*
X375803Y265968D01*
X374969Y266081D01*
X374138Y266215D01*
X373310Y266369D01*
X372487Y266543D01*
X371668Y266738D01*
X370854Y266952D01*
X370046Y267187D01*
X369244Y267441D01*
X368448Y267714D01*
X367659Y268008D01*
X366878Y268320D01*
X366104Y268652D01*
X365339Y269002D01*
X364583Y269371D01*
X363836Y269759D01*
X363099Y270165D01*
X362371Y270588D01*
X361655Y271030D01*
X360949Y271489D01*
X360256Y271965D01*
X359573Y272458D01*
X358904Y272968D01*
X358247Y273493D01*
X357603Y274035D01*
X356972Y274593D01*
X356356Y275166D01*
X355753Y275753D01*
X355166Y276356D01*
X354593Y276972D01*
X354035Y277603D01*
X353493Y278247D01*
X352968Y278904D01*
X352458Y279573D01*
X351965Y280256D01*
X351489Y280949D01*
X351030Y281655D01*
X350588Y282371D01*
X350165Y283099D01*
X349759Y283836D01*
X349371Y284583D01*
X349002Y285339D01*
X348652Y286104D01*
X348320Y286878D01*
X348008Y287659D01*
X347714Y288448D01*
X347441Y289244D01*
X347187Y290046D01*
X346952Y290854D01*
X346738Y291668D01*
X346543Y292487D01*
X346369Y293310D01*
X346215Y294138D01*
X346081Y294969D01*
X345968Y295803D01*
X345875Y296639D01*
X345803Y297477D01*
X345751Y298317D01*
X345720Y299158D01*
X345710Y300000D01*
D14*
X372380Y300000D02*
X372382Y300187D01*
X372389Y300374D01*
X372401Y300561D01*
X372417Y300747D01*
X372437Y300933D01*
X372462Y301118D01*
X372492Y301303D01*
X372526Y301487D01*
X372565Y301670D01*
X372608Y301852D01*
X372656Y302032D01*
X372708Y302212D01*
X372765Y302390D01*
X372825Y302567D01*
X372891Y302742D01*
X372960Y302916D01*
X373034Y303088D01*
X373112Y303258D01*
X373194Y303426D01*
X373280Y303592D01*
X373370Y303756D01*
X373464Y303917D01*
X373562Y304077D01*
X373664Y304233D01*
X373770Y304388D01*
X373880Y304539D01*
X373993Y304688D01*
X374110Y304834D01*
X374230Y304977D01*
X374354Y305117D01*
X374481Y305254D01*
X374612Y305388D01*
X374746Y305519D01*
X374883Y305646D01*
X375023Y305770D01*
X375166Y305890D01*
X375312Y306007D01*
X375461Y306120D01*
X375612Y306230D01*
X375767Y306336D01*
X375923Y306438D01*
X376083Y306536D01*
X376244Y306630D01*
X376408Y306720D01*
X376574Y306806D01*
X376742Y306888D01*
X376912Y306966D01*
X377084Y307040D01*
X377258Y307109D01*
X377433Y307175D01*
X377610Y307235D01*
X377788Y307292D01*
X377968Y307344D01*
X378148Y307392D01*
X378330Y307435D01*
X378513Y307474D01*
X378697Y307508D01*
X378882Y307538D01*
X379067Y307563D01*
X379253Y307583D01*
X379439Y307599D01*
X379626Y307611D01*
X379813Y307618D01*
X380000Y307620D01*
X380187Y307618D01*
X380374Y307611D01*
X380561Y307599D01*
X380747Y307583D01*
X380933Y307563D01*
X381118Y307538D01*
X381303Y307508D01*
X381487Y307474D01*
X381670Y307435D01*
X381852Y307392D01*
X382032Y307344D01*
X382212Y307292D01*
X382390Y307235D01*
X382567Y307175D01*
X382742Y307109D01*
X382916Y307040D01*
X383088Y306966D01*
X383258Y306888D01*
X383426Y306806D01*
X383592Y306720D01*
X383756Y306630D01*
X383917Y306536D01*
X384077Y306438D01*
X384233Y306336D01*
X384388Y306230D01*
X384539Y306120D01*
X384688Y306007D01*
X384834Y305890D01*
X384977Y305770D01*
X385117Y305646D01*
X385254Y305519D01*
X385388Y305388D01*
X385519Y305254D01*
X385646Y305117D01*
X385770Y304977D01*
X385890Y304834D01*
X386007Y304688D01*
X386120Y304539D01*
X386230Y304388D01*
X386336Y304233D01*
X386438Y304077D01*
X386536Y303917D01*
X386630Y303756D01*
X386720Y303592D01*
X386806Y303426D01*
X386888Y303258D01*
X386966Y303088D01*
X387040Y302916D01*
X387109Y302742D01*
X387175Y302567D01*
X387235Y302390D01*
X387292Y302212D01*
X387344Y302032D01*
X387392Y301852D01*
X387435Y301670D01*
X387474Y301487D01*
X387508Y301303D01*
X387538Y301118D01*
X387563Y300933D01*
X387583Y300747D01*
X387599Y300561D01*
X387611Y300374D01*
X387618Y300187D01*
X387620Y300000D01*
X387618Y299813D01*
X387611Y299626D01*
X387599Y299439D01*
X387583Y299253D01*
X387563Y299067D01*
X387538Y298882D01*
X387508Y298697D01*
X387474Y298513D01*
X387435Y298330D01*
X387392Y298148D01*
X387344Y297968D01*
X387292Y297788D01*
X387235Y297610D01*
X387175Y297433D01*
X387109Y297258D01*
X387040Y297084D01*
X386966Y296912D01*
X386888Y296742D01*
X386806Y296574D01*
X386720Y296408D01*
X386630Y296244D01*
X386536Y296083D01*
X386438Y295923D01*
X386336Y295767D01*
X386230Y295612D01*
X386120Y295461D01*
X386007Y295312D01*
X385890Y295166D01*
X385770Y295023D01*
X385646Y294883D01*
X385519Y294746D01*
X385388Y294612D01*
X385254Y294481D01*
X385117Y294354D01*
X384977Y294230D01*
X384834Y294110D01*
X384688Y293993D01*
X384539Y293880D01*
X384388Y293770D01*
X384233Y293664D01*
X384077Y293562D01*
X383917Y293464D01*
X383756Y293370D01*
X383592Y293280D01*
X383426Y293194D01*
X383258Y293112D01*
X383088Y293034D01*
X382916Y292960D01*
X382742Y292891D01*
X382567Y292825D01*
X382390Y292765D01*
X382212Y292708D01*
X382032Y292656D01*
X381852Y292608D01*
X381670Y292565D01*
X381487Y292526D01*
X381303Y292492D01*
X381118Y292462D01*
X380933Y292437D01*
X380747Y292417D01*
X380561Y292401D01*
X380374Y292389D01*
X380187Y292382D01*
X380000Y292380D01*
X379813Y292382D01*
X379626Y292389D01*
X379439Y292401D01*
X379253Y292417D01*
X379067Y292437D01*
X378882Y292462D01*
X378697Y292492D01*
X378513Y292526D01*
X378330Y292565D01*
X378148Y292608D01*
X377968Y292656D01*
X377788Y292708D01*
X377610Y292765D01*
X377433Y292825D01*
X377258Y292891D01*
X377084Y292960D01*
X376912Y293034D01*
X376742Y293112D01*
X376574Y293194D01*
X376408Y293280D01*
X376244Y293370D01*
X376083Y293464D01*
X375923Y293562D01*
X375767Y293664D01*
X375612Y293770D01*
X375461Y293880D01*
X375312Y293993D01*
X375166Y294110D01*
X375023Y294230D01*
X374883Y294354D01*
X374746Y294481D01*
X374612Y294612D01*
X374481Y294746D01*
X374354Y294883D01*
X374230Y295023D01*
X374110Y295166D01*
X373993Y295312D01*
X373880Y295461D01*
X373770Y295612D01*
X373664Y295767D01*
X373562Y295923D01*
X373464Y296083D01*
X373370Y296244D01*
X373280Y296408D01*
X373194Y296574D01*
X373112Y296742D01*
X373034Y296912D01*
X372960Y297084D01*
X372891Y297258D01*
X372825Y297433D01*
X372765Y297610D01*
X372708Y297788D01*
X372656Y297968D01*
X372608Y298148D01*
X372565Y298330D01*
X372526Y298513D01*
X372492Y298697D01*
X372462Y298882D01*
X372437Y299067D01*
X372417Y299253D01*
X372401Y299439D01*
X372389Y299626D01*
X372382Y299813D01*
X372380Y300000D01*
D13*
X363000Y300000D02*
X363005Y300417D01*
X363020Y300834D01*
X363046Y301251D01*
X363082Y301666D01*
X363128Y302081D01*
X363184Y302494D01*
X363250Y302906D01*
X363327Y303317D01*
X363413Y303725D01*
X363509Y304131D01*
X363616Y304534D01*
X363732Y304935D01*
X363858Y305333D01*
X363994Y305727D01*
X364139Y306118D01*
X364294Y306506D01*
X364458Y306889D01*
X364632Y307268D01*
X364815Y307643D01*
X365007Y308014D01*
X365209Y308379D01*
X365419Y308740D01*
X365637Y309095D01*
X365865Y309445D01*
X366101Y309789D01*
X366345Y310127D01*
X366598Y310459D01*
X366859Y310785D01*
X367127Y311104D01*
X367404Y311417D01*
X367688Y311722D01*
X367979Y312021D01*
X368278Y312312D01*
X368583Y312596D01*
X368896Y312873D01*
X369215Y313141D01*
X369541Y313402D01*
X369873Y313655D01*
X370211Y313899D01*
X370555Y314135D01*
X370905Y314363D01*
X371260Y314581D01*
X371621Y314791D01*
X371986Y314993D01*
X372357Y315185D01*
X372732Y315368D01*
X373111Y315542D01*
X373494Y315706D01*
X373882Y315861D01*
X374273Y316006D01*
X374667Y316142D01*
X375065Y316268D01*
X375466Y316384D01*
X375869Y316491D01*
X376275Y316587D01*
X376683Y316673D01*
X377094Y316750D01*
X377506Y316816D01*
X377919Y316872D01*
X378334Y316918D01*
X378749Y316954D01*
X379166Y316980D01*
X379583Y316995D01*
X380000Y317000D01*
X380417Y316995D01*
X380834Y316980D01*
X381251Y316954D01*
X381666Y316918D01*
X382081Y316872D01*
X382494Y316816D01*
X382906Y316750D01*
X383317Y316673D01*
X383725Y316587D01*
X384131Y316491D01*
X384534Y316384D01*
X384935Y316268D01*
X385333Y316142D01*
X385727Y316006D01*
X386118Y315861D01*
X386506Y315706D01*
X386889Y315542D01*
X387268Y315368D01*
X387643Y315185D01*
X388014Y314993D01*
X388379Y314791D01*
X388740Y314581D01*
X389095Y314363D01*
X389445Y314135D01*
X389789Y313899D01*
X390127Y313655D01*
X390459Y313402D01*
X390785Y313141D01*
X391104Y312873D01*
X391417Y312596D01*
X391722Y312312D01*
X392021Y312021D01*
X392312Y311722D01*
X392596Y311417D01*
X392873Y311104D01*
X393141Y310785D01*
X393402Y310459D01*
X393655Y310127D01*
X393899Y309789D01*
X394135Y309445D01*
X394363Y309095D01*
X394581Y308740D01*
X394791Y308379D01*
X394993Y308014D01*
X395185Y307643D01*
X395368Y307268D01*
X395542Y306889D01*
X395706Y306506D01*
X395861Y306118D01*
X396006Y305727D01*
X396142Y305333D01*
X396268Y304935D01*
X396384Y304534D01*
X396491Y304131D01*
X396587Y303725D01*
X396673Y303317D01*
X396750Y302906D01*
X396816Y302494D01*
X396872Y302081D01*
X396918Y301666D01*
X396954Y301251D01*
X396980Y300834D01*
X396995Y300417D01*
X397000Y300000D01*
X396995Y299583D01*
X396980Y299166D01*
X396954Y298749D01*
X396918Y298334D01*
X396872Y297919D01*
X396816Y297506D01*
X396750Y297094D01*
X396673Y296683D01*
X396587Y296275D01*
X396491Y295869D01*
X396384Y295466D01*
X396268Y295065D01*
X396142Y294667D01*
X396006Y294273D01*
X395861Y293882D01*
X395706Y293494D01*
X395542Y293111D01*
X395368Y292732D01*
X395185Y292357D01*
X394993Y291986D01*
X394791Y291621D01*
X394581Y291260D01*
X394363Y290905D01*
X394135Y290555D01*
X393899Y290211D01*
X393655Y289873D01*
X393402Y289541D01*
X393141Y289215D01*
X392873Y288896D01*
X392596Y288583D01*
X392312Y288278D01*
X392021Y287979D01*
X391722Y287688D01*
X391417Y287404D01*
X391104Y287127D01*
X390785Y286859D01*
X390459Y286598D01*
X390127Y286345D01*
X389789Y286101D01*
X389445Y285865D01*
X389095Y285637D01*
X388740Y285419D01*
X388379Y285209D01*
X388014Y285007D01*
X387643Y284815D01*
X387268Y284632D01*
X386889Y284458D01*
X386506Y284294D01*
X386118Y284139D01*
X385727Y283994D01*
X385333Y283858D01*
X384935Y283732D01*
X384534Y283616D01*
X384131Y283509D01*
X383725Y283413D01*
X383317Y283327D01*
X382906Y283250D01*
X382494Y283184D01*
X382081Y283128D01*
X381666Y283082D01*
X381251Y283046D01*
X380834Y283020D01*
X380417Y283005D01*
X380000Y283000D01*
X379583Y283005D01*
X379166Y283020D01*
X378749Y283046D01*
X378334Y283082D01*
X377919Y283128D01*
X377506Y283184D01*
X377094Y283250D01*
X376683Y283327D01*
X376275Y283413D01*
X375869Y283509D01*
X375466Y283616D01*
X375065Y283732D01*
X374667Y283858D01*
X374273Y283994D01*
X373882Y284139D01*
X373494Y284294D01*
X373111Y284458D01*
X372732Y284632D01*
X372357Y284815D01*
X371986Y285007D01*
X371621Y285209D01*
X371260Y285419D01*
X370905Y285637D01*
X370555Y285865D01*
X370211Y286101D01*
X369873Y286345D01*
X369541Y286598D01*
X369215Y286859D01*
X368896Y287127D01*
X368583Y287404D01*
X368278Y287688D01*
X367979Y287979D01*
X367688Y288278D01*
X367404Y288583D01*
X367127Y288896D01*
X366859Y289215D01*
X366598Y289541D01*
X366345Y289873D01*
X366101Y290211D01*
X365865Y290555D01*
X365637Y290905D01*
X365419Y291260D01*
X365209Y291621D01*
X365007Y291986D01*
X364815Y292357D01*
X364632Y292732D01*
X364458Y293111D01*
X364294Y293494D01*
X364139Y293882D01*
X363994Y294273D01*
X363858Y294667D01*
X363732Y295065D01*
X363616Y295466D01*
X363509Y295869D01*
X363413Y296275D01*
X363327Y296683D01*
X363250Y297094D01*
X363184Y297506D01*
X363128Y297919D01*
X363082Y298334D01*
X363046Y298749D01*
X363020Y299166D01*
X363005Y299583D01*
X363000Y300000D01*
M02*
