G04 EAGLE Gerber RS-274X export*
G75*
%MOMM*%
%FSLAX34Y34*%
%LPD*%
%INSoldermask Top*%
%IPPOS*%
%AMOC8*
5,1,8,0,0,1.08239X$1,22.5*%
G01*
%ADD10R,2.103200X0.803200*%
%ADD11C,0.630638*%
%ADD12R,0.803200X0.903200*%
%ADD13R,1.203200X1.303200*%
%ADD14R,1.303200X1.203200*%
%ADD15R,3.603200X2.103200*%
%ADD16C,1.993900*%
%ADD17C,3.403200*%
%ADD18R,0.903200X0.803200*%
%ADD19C,1.473200*%
%ADD20C,0.959600*%


D10*
X208000Y189650D03*
X150000Y189650D03*
X208000Y176950D03*
X208000Y202350D03*
X208000Y215050D03*
X150000Y176950D03*
X150000Y202350D03*
X150000Y215050D03*
D11*
X166387Y210863D02*
X191613Y210863D01*
X191613Y181137D01*
X166387Y181137D01*
X166387Y210863D01*
X166387Y187128D02*
X191613Y187128D01*
X191613Y193119D02*
X166387Y193119D01*
X166387Y199110D02*
X191613Y199110D01*
X191613Y205101D02*
X166387Y205101D01*
D12*
X236000Y215000D03*
X226000Y215000D03*
D13*
X128000Y131500D03*
X128000Y148500D03*
D14*
X111000Y202500D03*
X111000Y185500D03*
X111000Y244500D03*
X111000Y227500D03*
D15*
X291000Y216500D03*
X291000Y177500D03*
D16*
X357347Y221000D02*
X375254Y221000D01*
X375254Y171000D02*
X357347Y171000D01*
D17*
X49000Y302000D03*
X50000Y50000D03*
X375000Y51000D03*
D16*
X52254Y217000D02*
X34347Y217000D01*
X34347Y167000D02*
X52254Y167000D01*
D17*
X374000Y299000D03*
D14*
X150000Y131500D03*
X150000Y148500D03*
D13*
X105000Y131500D03*
X105000Y148500D03*
D18*
X250000Y204000D03*
X250000Y214000D03*
X250000Y182000D03*
X250000Y192000D03*
D19*
X177000Y138000D03*
X141000Y236000D03*
X233000Y192000D03*
X125000Y180000D03*
X83000Y128000D03*
D20*
X180000Y220000D03*
X87000Y161000D03*
X130650Y202350D03*
X134000Y189000D03*
X165000Y161000D03*
M02*
