G04 EAGLE Gerber RS-274X export*
G75*
%MOMM*%
%FSLAX34Y34*%
%LPD*%
%INSoldermask Bottom*%
%IPPOS*%
%AMOC8*
5,1,8,0,0,1.08239X$1,22.5*%
G01*
%ADD10R,1.203200X1.303200*%
%ADD11C,1.386894*%
%ADD12C,1.993900*%
%ADD13C,3.403200*%
%ADD14C,0.959600*%


D10*
X111000Y206500D03*
X111000Y223500D03*
X111000Y188500D03*
X111000Y171500D03*
D11*
X238832Y152082D02*
X238832Y23918D01*
X203168Y23918D01*
X203168Y152082D01*
X238832Y152082D01*
X238832Y37094D02*
X203168Y37094D01*
X203168Y50270D02*
X238832Y50270D01*
X238832Y63446D02*
X203168Y63446D01*
X203168Y76622D02*
X238832Y76622D01*
X238832Y89798D02*
X203168Y89798D01*
X203168Y102974D02*
X238832Y102974D01*
X238832Y116150D02*
X203168Y116150D01*
X203168Y129326D02*
X238832Y129326D01*
X238832Y142502D02*
X203168Y142502D01*
X146832Y152082D02*
X146832Y23918D01*
X111168Y23918D01*
X111168Y152082D01*
X146832Y152082D01*
X146832Y37094D02*
X111168Y37094D01*
X111168Y50270D02*
X146832Y50270D01*
X146832Y63446D02*
X111168Y63446D01*
X111168Y76622D02*
X146832Y76622D01*
X146832Y89798D02*
X111168Y89798D01*
X111168Y102974D02*
X146832Y102974D01*
X146832Y116150D02*
X111168Y116150D01*
X111168Y129326D02*
X146832Y129326D01*
X146832Y142502D02*
X111168Y142502D01*
D10*
X67000Y206500D03*
X67000Y223500D03*
X89000Y206500D03*
X89000Y223500D03*
D12*
X357347Y221000D02*
X375254Y221000D01*
X375254Y171000D02*
X357347Y171000D01*
D13*
X49000Y302000D03*
X50000Y50000D03*
X375000Y51000D03*
D12*
X52254Y217000D02*
X34347Y217000D01*
X34347Y167000D02*
X52254Y167000D01*
D13*
X374000Y299000D03*
D14*
X180000Y220000D03*
X87000Y161000D03*
X130650Y202350D03*
X134000Y189000D03*
X165000Y161000D03*
M02*
