G04 EAGLE Gerber RS-274X export*
G75*
%MOMM*%
%FSLAX34Y34*%
%LPD*%
%INSolderpaste Top*%
%IPPOS*%
%AMOC8*
5,1,8,0,0,1.08239X$1,22.5*%
G01*
%ADD10R,1.900000X0.600000*%
%ADD11C,0.442500*%
%ADD12R,1.100000X1.000000*%
%ADD13R,0.600000X0.700000*%
%ADD14R,1.000000X1.100000*%
%ADD15C,1.187500*%
%ADD16R,3.400000X1.900000*%


D10*
X269000Y186650D03*
X211000Y186650D03*
X269000Y173950D03*
X269000Y199350D03*
X269000Y212050D03*
X211000Y173950D03*
X211000Y199350D03*
X211000Y212050D03*
D11*
X227462Y207788D02*
X252538Y207788D01*
X252538Y178212D01*
X227462Y178212D01*
X227462Y207788D01*
X227462Y182416D02*
X252538Y182416D01*
X252538Y186620D02*
X227462Y186620D01*
X227462Y190824D02*
X252538Y190824D01*
X252538Y195028D02*
X227462Y195028D01*
X227462Y199232D02*
X252538Y199232D01*
X252538Y203436D02*
X227462Y203436D01*
X227462Y207640D02*
X252538Y207640D01*
D12*
X191500Y204000D03*
X174500Y204000D03*
D13*
X300000Y233000D03*
X290000Y233000D03*
D14*
X181000Y186500D03*
X181000Y169500D03*
D15*
X199187Y146063D02*
X199187Y17937D01*
X199187Y146063D02*
X234813Y146063D01*
X234813Y17937D01*
X199187Y17937D01*
X199187Y29218D02*
X234813Y29218D01*
X234813Y40499D02*
X199187Y40499D01*
X199187Y51780D02*
X234813Y51780D01*
X234813Y63061D02*
X199187Y63061D01*
X199187Y74342D02*
X234813Y74342D01*
X234813Y85623D02*
X199187Y85623D01*
X199187Y96904D02*
X234813Y96904D01*
X234813Y108185D02*
X199187Y108185D01*
X199187Y119466D02*
X234813Y119466D01*
X234813Y130747D02*
X199187Y130747D01*
X199187Y142028D02*
X234813Y142028D01*
X107187Y146063D02*
X107187Y17937D01*
X107187Y146063D02*
X142813Y146063D01*
X142813Y17937D01*
X107187Y17937D01*
X107187Y29218D02*
X142813Y29218D01*
X142813Y40499D02*
X107187Y40499D01*
X107187Y51780D02*
X142813Y51780D01*
X142813Y63061D02*
X107187Y63061D01*
X107187Y74342D02*
X142813Y74342D01*
X142813Y85623D02*
X107187Y85623D01*
X107187Y96904D02*
X142813Y96904D01*
X142813Y108185D02*
X107187Y108185D01*
X107187Y119466D02*
X142813Y119466D01*
X142813Y130747D02*
X107187Y130747D01*
X107187Y142028D02*
X142813Y142028D01*
D12*
X186500Y239000D03*
X203500Y239000D03*
D14*
X167500Y274000D03*
X150500Y274000D03*
X201500Y274000D03*
X184500Y274000D03*
X129000Y171500D03*
X129000Y188500D03*
X107000Y171500D03*
X107000Y188500D03*
D16*
X302000Y178500D03*
X302000Y139500D03*
D14*
X167500Y228000D03*
X150500Y228000D03*
D12*
X167500Y250000D03*
X150500Y250000D03*
D13*
X290000Y222000D03*
X300000Y222000D03*
X300000Y197000D03*
X290000Y197000D03*
M02*
