G04 EAGLE Gerber RS-274X export*
G75*
%MOMM*%
%FSLAX34Y34*%
%LPD*%
%INSolderpaste Top*%
%IPPOS*%
%AMOC8*
5,1,8,0,0,1.08239X$1,22.5*%
G01*
%ADD10R,1.900000X0.600000*%
%ADD11C,0.442500*%
%ADD12R,0.600000X0.700000*%
%ADD13R,1.000000X1.100000*%
%ADD14R,1.100000X1.000000*%
%ADD15R,3.400000X1.900000*%
%ADD16R,0.700000X0.600000*%


D10*
X208000Y189650D03*
X150000Y189650D03*
X208000Y176950D03*
X208000Y202350D03*
X208000Y215050D03*
X150000Y176950D03*
X150000Y202350D03*
X150000Y215050D03*
D11*
X166462Y210788D02*
X191538Y210788D01*
X191538Y181212D01*
X166462Y181212D01*
X166462Y210788D01*
X166462Y185416D02*
X191538Y185416D01*
X191538Y189620D02*
X166462Y189620D01*
X166462Y193824D02*
X191538Y193824D01*
X191538Y198028D02*
X166462Y198028D01*
X166462Y202232D02*
X191538Y202232D01*
X191538Y206436D02*
X166462Y206436D01*
X166462Y210640D02*
X191538Y210640D01*
D12*
X236000Y215000D03*
X226000Y215000D03*
D13*
X128000Y131500D03*
X128000Y148500D03*
D14*
X111000Y202500D03*
X111000Y185500D03*
X111000Y244500D03*
X111000Y227500D03*
D15*
X291000Y216500D03*
X291000Y177500D03*
D14*
X150000Y131500D03*
X150000Y148500D03*
D13*
X105000Y131500D03*
X105000Y148500D03*
D16*
X250000Y204000D03*
X250000Y214000D03*
X250000Y182000D03*
X250000Y192000D03*
M02*
