G04 EAGLE Gerber RS-274X export*
G75*
%MOMM*%
%FSLAX34Y34*%
%LPD*%
%INSoldermask Top*%
%IPPOS*%
%AMOC8*
5,1,8,0,0,1.08239X$1,22.5*%
G01*
%ADD10R,2.103200X0.803200*%
%ADD11C,0.630638*%
%ADD12R,1.303200X1.203200*%
%ADD13R,0.803200X0.903200*%
%ADD14R,1.203200X1.303200*%
%ADD15C,1.386894*%
%ADD16R,3.603200X2.103200*%
%ADD17C,1.993900*%
%ADD18C,3.403200*%
%ADD19C,1.473200*%
%ADD20C,0.959600*%


D10*
X269000Y186650D03*
X211000Y186650D03*
X269000Y173950D03*
X269000Y199350D03*
X269000Y212050D03*
X211000Y173950D03*
X211000Y199350D03*
X211000Y212050D03*
D11*
X227387Y207863D02*
X252613Y207863D01*
X252613Y178137D01*
X227387Y178137D01*
X227387Y207863D01*
X227387Y184128D02*
X252613Y184128D01*
X252613Y190119D02*
X227387Y190119D01*
X227387Y196110D02*
X252613Y196110D01*
X252613Y202101D02*
X227387Y202101D01*
D12*
X191500Y204000D03*
X174500Y204000D03*
D13*
X300000Y233000D03*
X290000Y233000D03*
D14*
X181000Y186500D03*
X181000Y169500D03*
D15*
X199168Y146082D02*
X199168Y17918D01*
X199168Y146082D02*
X234832Y146082D01*
X234832Y17918D01*
X199168Y17918D01*
X199168Y31094D02*
X234832Y31094D01*
X234832Y44270D02*
X199168Y44270D01*
X199168Y57446D02*
X234832Y57446D01*
X234832Y70622D02*
X199168Y70622D01*
X199168Y83798D02*
X234832Y83798D01*
X234832Y96974D02*
X199168Y96974D01*
X199168Y110150D02*
X234832Y110150D01*
X234832Y123326D02*
X199168Y123326D01*
X199168Y136502D02*
X234832Y136502D01*
X107168Y146082D02*
X107168Y17918D01*
X107168Y146082D02*
X142832Y146082D01*
X142832Y17918D01*
X107168Y17918D01*
X107168Y31094D02*
X142832Y31094D01*
X142832Y44270D02*
X107168Y44270D01*
X107168Y57446D02*
X142832Y57446D01*
X142832Y70622D02*
X107168Y70622D01*
X107168Y83798D02*
X142832Y83798D01*
X142832Y96974D02*
X107168Y96974D01*
X107168Y110150D02*
X142832Y110150D01*
X142832Y123326D02*
X107168Y123326D01*
X107168Y136502D02*
X142832Y136502D01*
D12*
X186500Y239000D03*
X203500Y239000D03*
D14*
X167500Y274000D03*
X150500Y274000D03*
X201500Y274000D03*
X184500Y274000D03*
X129000Y171500D03*
X129000Y188500D03*
X107000Y171500D03*
X107000Y188500D03*
D16*
X302000Y178500D03*
X302000Y139500D03*
D17*
X368347Y205000D02*
X386254Y205000D01*
X386254Y155000D02*
X368347Y155000D01*
D18*
X50000Y300000D03*
X50000Y50000D03*
X380000Y50000D03*
D17*
X61654Y155000D02*
X43747Y155000D01*
X43747Y205000D02*
X61654Y205000D01*
D18*
X380000Y300000D03*
D14*
X167500Y228000D03*
X150500Y228000D03*
D12*
X167500Y250000D03*
X150500Y250000D03*
D13*
X290000Y222000D03*
X300000Y222000D03*
X300000Y197000D03*
X290000Y197000D03*
D19*
X162000Y160000D03*
X233000Y241000D03*
X300000Y209000D03*
X163000Y187000D03*
X148000Y168000D03*
D20*
X311000Y197000D03*
X162000Y204000D03*
X223000Y274000D03*
M02*
