G04 EAGLE Gerber RS-274X export*
G75*
%MOMM*%
%FSLAX34Y34*%
%LPD*%
%INSolderpaste Bottom*%
%IPPOS*%
%AMOC8*
5,1,8,0,0,1.08239X$1,22.5*%
G01*
%ADD10R,1.000000X1.100000*%
%ADD11C,1.187500*%


D10*
X111000Y206500D03*
X111000Y223500D03*
X111000Y188500D03*
X111000Y171500D03*
D11*
X238813Y152063D02*
X238813Y23937D01*
X203187Y23937D01*
X203187Y152063D01*
X238813Y152063D01*
X238813Y35218D02*
X203187Y35218D01*
X203187Y46499D02*
X238813Y46499D01*
X238813Y57780D02*
X203187Y57780D01*
X203187Y69061D02*
X238813Y69061D01*
X238813Y80342D02*
X203187Y80342D01*
X203187Y91623D02*
X238813Y91623D01*
X238813Y102904D02*
X203187Y102904D01*
X203187Y114185D02*
X238813Y114185D01*
X238813Y125466D02*
X203187Y125466D01*
X203187Y136747D02*
X238813Y136747D01*
X238813Y148028D02*
X203187Y148028D01*
X146813Y152063D02*
X146813Y23937D01*
X111187Y23937D01*
X111187Y152063D01*
X146813Y152063D01*
X146813Y35218D02*
X111187Y35218D01*
X111187Y46499D02*
X146813Y46499D01*
X146813Y57780D02*
X111187Y57780D01*
X111187Y69061D02*
X146813Y69061D01*
X146813Y80342D02*
X111187Y80342D01*
X111187Y91623D02*
X146813Y91623D01*
X146813Y102904D02*
X111187Y102904D01*
X111187Y114185D02*
X146813Y114185D01*
X146813Y125466D02*
X111187Y125466D01*
X111187Y136747D02*
X146813Y136747D01*
X146813Y148028D02*
X111187Y148028D01*
D10*
X67000Y206500D03*
X67000Y223500D03*
X89000Y206500D03*
X89000Y223500D03*
M02*
